M48
; DRILL file {KiCad 7.0.7} date Fri Oct 13 08:16:49 2023
; FORMAT={-:-/ absolute / inch / decimal}
; #@! TF.CreationDate,2023-10-13T08:16:49+05:30
; #@! TF.GenerationSoftware,Kicad,Pcbnew,7.0.7
; #@! TF.FileFunction,Plated,1,2,PTH
FMAT,2
INCH
; #@! TA.AperFunction,Plated,PTH,ViaDrill
T1C0.0157
%
G90
G05
T1
X4.2933Y-3.937
X4.5093Y-3.1309
X4.5093Y-4.7431
X4.8189Y-3.937
X4.9031Y-3.3583
X4.9577Y-4.4843
X4.9918Y-3.4094
X5.0994Y-2.5408
X5.0994Y-5.3332
X5.3268Y-4.9394
X5.3583Y-2.9892
X5.378Y-4.8508
X5.9055Y-2.3248
X5.9055Y-5.0236
X5.9055Y-5.5492
X6.4528Y-4.8849
X6.4843Y-2.9346
X6.7116Y-2.5408
X6.7116Y-5.3332
X6.8534Y-3.3898
X6.9079Y-4.5157
X7.3017Y-3.1309
X7.3017Y-4.7431
X7.5177Y-3.937
X7.9512Y-2.7559
X7.9512Y-5.1181
X8.2677Y-3.937
T0
M30
