%TF.GenerationSoftware,KiCad,Pcbnew,7.0.7*%
%TF.CreationDate,2023-10-13T08:16:47+05:30*%
%TF.ProjectId,12W,3132572e-6b69-4636-9164-5f7063625858,rev?*%
%TF.SameCoordinates,Original*%
%TF.FileFunction,Copper,L2,Bot*%
%TF.FilePolarity,Positive*%
%FSLAX46Y46*%
G04 Gerber Fmt 4.6, Leading zero omitted, Abs format (unit mm)*
G04 Created by KiCad (PCBNEW 7.0.7) date 2023-10-13 08:16:47*
%MOMM*%
%LPD*%
G01*
G04 APERTURE LIST*
%TA.AperFunction,ViaPad*%
%ADD10C,0.800000*%
%TD*%
%TA.AperFunction,Conductor*%
%ADD11C,0.400000*%
%TD*%
G04 APERTURE END LIST*
D10*
%TO.N,coils*%
X170475000Y-64536259D03*
X129525000Y-135463740D03*
X164700000Y-74538853D03*
X129524999Y-64536259D03*
X175461146Y-114699999D03*
X210000000Y-100000000D03*
X185463740Y-79525000D03*
X125924493Y-113899999D03*
X150000000Y-59050000D03*
X170475000Y-135463740D03*
X185463740Y-120475000D03*
X163900000Y-124075506D03*
X135300000Y-125461146D03*
X114536259Y-120475000D03*
X190950000Y-100000000D03*
X201961524Y-130000000D03*
X136600000Y-123209480D03*
X201961524Y-70000000D03*
X150000000Y-140950000D03*
X174075506Y-86100000D03*
X114536259Y-79524999D03*
X136100000Y-75924493D03*
X126790519Y-86600000D03*
X150000000Y-127600000D03*
X109050000Y-100000000D03*
X122400000Y-100000000D03*
X124538853Y-85300000D03*
%TD*%
D11*
%TO.N,coils*%
X170912213Y-76551040D02*
X184431528Y-64452394D01*
X127218847Y-136082442D02*
X127363951Y-136194986D01*
X139281182Y-50440451D02*
X139434855Y-51453248D01*
X120029077Y-114185326D02*
X122677319Y-118409704D01*
X179480015Y-111433182D02*
X180380305Y-111597546D01*
X114258148Y-76040376D02*
X119401138Y-80620792D01*
X113732442Y-77125353D02*
X113829256Y-76969770D01*
X167358280Y-53707467D02*
X166401003Y-54041638D01*
X130984676Y-74619953D02*
X137146846Y-71354965D01*
X155156389Y-71183742D02*
X156023481Y-70246216D01*
X186096799Y-69805103D02*
X186977187Y-69891477D01*
X104463722Y-85229067D02*
X103598070Y-84997043D01*
X192298985Y-117931860D02*
X192067999Y-118458095D01*
X194106764Y-103917188D02*
X193634861Y-103839520D01*
X187532478Y-80545229D02*
X182276573Y-82284604D01*
X167665540Y-131523767D02*
X167617109Y-131570176D01*
X173698612Y-80046384D02*
X174341440Y-79288221D01*
X172776694Y-135614564D02*
X169094634Y-131480268D01*
X117924688Y-103099427D02*
X117259715Y-103653681D01*
X136899999Y-77310134D02*
X138927401Y-76254735D01*
X156721930Y-145739957D02*
X154232058Y-133704855D01*
X165123692Y-52674708D02*
X159564928Y-69471736D01*
X167174068Y-141424068D02*
X167323637Y-141993965D01*
X103589695Y-105934550D02*
X102926321Y-94345282D01*
X183083820Y-104919208D02*
X182299708Y-104735640D01*
X180925623Y-113343805D02*
X193480172Y-115972500D01*
X135021259Y-69118498D02*
X134909936Y-68529058D01*
X115390940Y-98376512D02*
X115499929Y-101372504D01*
X118000879Y-118475826D02*
X118005296Y-118482872D01*
X126415330Y-118351795D02*
X126659857Y-118835729D01*
X114130861Y-74857446D02*
X120282545Y-80336220D01*
X119400318Y-92332188D02*
X120494575Y-92576475D01*
X199407505Y-90522529D02*
X200455861Y-108837495D01*
X168695758Y-67816005D02*
X168907862Y-67626223D01*
X150000000Y-140950000D02*
X149999025Y-136949964D01*
X152878717Y-142933163D02*
X151483455Y-136188995D01*
X185591482Y-73903449D02*
X185951139Y-73538414D01*
X152752843Y-143687004D02*
X152945527Y-143327795D01*
X131516022Y-60210015D02*
X131105201Y-59965368D01*
X185003285Y-139039649D02*
X185293510Y-137749195D01*
X129482502Y-72926767D02*
X129978141Y-73456329D01*
X182462785Y-105606359D02*
X181600994Y-105403678D01*
X178153773Y-81354088D02*
X178412720Y-80745205D01*
X180300162Y-119105137D02*
X180066566Y-118752290D01*
X117891110Y-105146382D02*
X103178960Y-109976135D01*
X140148712Y-70165012D02*
X136430635Y-52407618D01*
X154636993Y-55141833D02*
X154163090Y-55088296D01*
X119118498Y-85021259D02*
X118529058Y-84909936D01*
X154555500Y-71215720D02*
X155156389Y-71183742D01*
X123938806Y-136813130D02*
X130827652Y-141334137D01*
X180380305Y-111597546D02*
X195536277Y-114770932D01*
X112980820Y-127202908D02*
X107535751Y-118906028D01*
X169438665Y-59795974D02*
X169109271Y-59609179D01*
X151973865Y-142548826D02*
X151917913Y-142231464D01*
X131941322Y-143931847D02*
X132694999Y-143637485D01*
X145199676Y-55663439D02*
X147142243Y-65053074D01*
X130756067Y-77455353D02*
X139553039Y-72794332D01*
X187270808Y-126210239D02*
X187031415Y-126622145D01*
X131060880Y-73674819D02*
X136344781Y-70875176D01*
X151676245Y-142845948D02*
X151859391Y-142839897D01*
X139636799Y-150156806D02*
X159633189Y-151301407D01*
X126301387Y-119953615D02*
X125658559Y-120711778D01*
X178387544Y-106529859D02*
X178174935Y-100685454D01*
X179798017Y-89807119D02*
X178671648Y-89670535D01*
X179264209Y-91676248D02*
X178087225Y-91733362D01*
X168413329Y-141166808D02*
X168850509Y-140976220D01*
X130691267Y-130588812D02*
X125094160Y-135597750D01*
X168582581Y-132561577D02*
X169577205Y-137311860D01*
X155048820Y-54338996D02*
X145140976Y-53771867D01*
X105491775Y-84628283D02*
X104700061Y-84416873D01*
X150099004Y-62779963D02*
X150187800Y-62509556D01*
X112688139Y-80422794D02*
X112413997Y-80355681D01*
X121834754Y-87948910D02*
X121569223Y-88351981D01*
X155403678Y-131600994D02*
X154792592Y-130769315D01*
X137718249Y-131111033D02*
X137951330Y-130340188D01*
X188995734Y-80887003D02*
X188620568Y-81026460D01*
X182003988Y-118466790D02*
X182018878Y-118469428D01*
X180066566Y-118752290D02*
X180105714Y-118634307D01*
X169796122Y-122312094D02*
X169243932Y-122544646D01*
X105893235Y-96082811D02*
X106365138Y-96160479D01*
X114433590Y-130859395D02*
X113854647Y-131439334D01*
X120585038Y-112138836D02*
X120842223Y-112472103D01*
X161690479Y-150338517D02*
X161525947Y-149248449D01*
X113186869Y-126061193D02*
X108665862Y-119172347D01*
X150463077Y-63866845D02*
X150528224Y-63850870D01*
X164216934Y-131198282D02*
X166573284Y-142452120D01*
X127349833Y-118337318D02*
X127622584Y-118873692D01*
X133111562Y-53564887D02*
X118230438Y-61057106D01*
X116133858Y-97598018D02*
X116171348Y-97837952D01*
X123607152Y-95346228D02*
X124113187Y-93063649D01*
X198764769Y-107246106D02*
X198769649Y-108113554D01*
X134502994Y-148279236D02*
X134876307Y-147325291D01*
X130620792Y-69401138D02*
X130894862Y-69699837D01*
X119140604Y-135566409D02*
X118560665Y-136145352D01*
X149314545Y-71825064D02*
X149657272Y-71837532D01*
X184640348Y-101804329D02*
X184609059Y-101623487D01*
X117088516Y-138049420D02*
X132425564Y-148114805D01*
X190034631Y-118894798D02*
X189884442Y-119242924D01*
X156873174Y-54948742D02*
X157047710Y-54306073D01*
X103178960Y-109976135D02*
X102313272Y-110208023D01*
X128913357Y-74689582D02*
X129519780Y-75334575D01*
X104618780Y-95460253D02*
X105114266Y-95111150D01*
X103598070Y-84997043D02*
X103172306Y-83994015D01*
X119471736Y-109564928D02*
X120473067Y-109264985D01*
X185726786Y-98716119D02*
X186145055Y-98572553D01*
X128797268Y-79809067D02*
X128680595Y-80151203D01*
X143218941Y-74692743D02*
X145450417Y-74198036D01*
X194118407Y-96346059D02*
X194162402Y-96722639D01*
X187311860Y-119577205D02*
X187586002Y-119644318D01*
X156529859Y-128387544D02*
X150685454Y-128174935D01*
X185560141Y-67949893D02*
X186193905Y-67316228D01*
X118575470Y-115760247D02*
X119098413Y-115757579D01*
X134740652Y-69915598D02*
X134941072Y-69775280D01*
X118512573Y-96222270D02*
X118766095Y-103191359D01*
X133146997Y-144797923D02*
X133432615Y-144061020D01*
X181239285Y-118875956D02*
X181035875Y-118621811D01*
X127244208Y-120093379D02*
X126551040Y-120912213D01*
X151804329Y-134640348D02*
X151623487Y-134609059D01*
X127333804Y-78059639D02*
X128159315Y-78818326D01*
X139206090Y-48689028D02*
X138309520Y-49661482D01*
X194162402Y-96722639D02*
X194537040Y-103267634D01*
X188178978Y-131411368D02*
X187182866Y-131600606D01*
X137529324Y-69347035D02*
X134628283Y-55491775D01*
X142952289Y-145693926D02*
X143396900Y-146337685D01*
X198605910Y-113842615D02*
X199092046Y-115043046D01*
X113903200Y-130194896D02*
X113022812Y-130108522D01*
X193327795Y-102945527D02*
X192933163Y-102878717D01*
X145872091Y-130445784D02*
X145161418Y-131247034D01*
X151427446Y-63854944D02*
X153770213Y-56718523D01*
X114996714Y-60960350D02*
X114706489Y-62250804D01*
X118306196Y-114998572D02*
X118846555Y-114832352D01*
X181888060Y-84095819D02*
X181424529Y-84239752D01*
X113949792Y-75785201D02*
X114258148Y-76040376D01*
X122712738Y-135585214D02*
X122293977Y-135999692D01*
X120004891Y-94609754D02*
X120073389Y-95145149D01*
X119236499Y-106386028D02*
X101999106Y-112044775D01*
X138623856Y-130916776D02*
X138879225Y-130069102D01*
X168621811Y-131035875D02*
X168558104Y-131050848D01*
X152833960Y-56963140D02*
X152670887Y-56621352D01*
X112509556Y-100187800D02*
X107898378Y-101701573D01*
X177287261Y-64414785D02*
X177706022Y-64000307D01*
X105881592Y-103653940D02*
X105837597Y-103277360D01*
X184519602Y-98443294D02*
X184980160Y-98123669D01*
X116171348Y-97837952D02*
X116316470Y-101827218D01*
X102473109Y-83503977D02*
X110722689Y-67118573D01*
X129470008Y-117226707D02*
X128046725Y-115371848D01*
X162281750Y-68888966D02*
X162048669Y-69659811D01*
X144393640Y-67537214D02*
X144596321Y-68399005D01*
X117996011Y-81533209D02*
X117981121Y-81530571D01*
X197503919Y-114422785D02*
X197959869Y-115524515D01*
X189884442Y-119242924D02*
X186936391Y-125098374D01*
X164422785Y-147503919D02*
X165524515Y-147959869D01*
X130142264Y-62229722D02*
X129972246Y-62299113D01*
X131648204Y-123584669D02*
X131164270Y-123340142D01*
X134101451Y-130784068D02*
X131561340Y-129191685D01*
X145836909Y-144911703D02*
X154063329Y-145382586D01*
X177469899Y-80605441D02*
X177911367Y-80089962D01*
X118588631Y-61821021D02*
X118399393Y-62817133D01*
X160793909Y-151310971D02*
X161690479Y-150338517D01*
X117391325Y-61534131D02*
X117168425Y-62628357D01*
X169704984Y-60926085D02*
X169459470Y-60789522D01*
X145805060Y-68456478D02*
X146222270Y-68512573D01*
X110115557Y-80757075D02*
X113063608Y-74901625D01*
X182276573Y-82284604D02*
X181966700Y-82383963D01*
X156820280Y-52840395D02*
X143549587Y-52080775D01*
X182183994Y-81304241D02*
X182373776Y-81092137D01*
X180707018Y-104316289D02*
X180417362Y-96353926D01*
X185741851Y-123959623D02*
X180598861Y-119379207D01*
X130364661Y-61207335D02*
X126013489Y-63398025D01*
X168469428Y-132018878D02*
X168524277Y-132282999D01*
X187371642Y-132831574D02*
X186632860Y-132240129D01*
X178433968Y-137939642D02*
X179016757Y-137605196D01*
X169379207Y-130598861D02*
X169105137Y-130300162D01*
X186133154Y-99536922D02*
X186149129Y-99471775D01*
X150000000Y-71850000D02*
X150000000Y-73800000D01*
X180500408Y-94568968D02*
X181436195Y-94233794D01*
X187220036Y-99900995D02*
X187490443Y-99812199D01*
X105462959Y-96732365D02*
X105465887Y-96353704D01*
X145683710Y-69292981D02*
X153646073Y-69582637D01*
X141461251Y-127849264D02*
X136506153Y-124742937D01*
X121569223Y-88351981D02*
X120519984Y-88566817D01*
X162853153Y-128645034D02*
X162500745Y-128879262D01*
X181487426Y-103777729D02*
X181233904Y-96808640D01*
X119622504Y-115041937D02*
X121742817Y-118424181D01*
X165760247Y-68575470D02*
X165757579Y-69098413D01*
X171940360Y-122666195D02*
X171181673Y-121840684D01*
X148516544Y-63811004D02*
X148604546Y-64206721D01*
X130890728Y-140390820D02*
X131339002Y-140156172D01*
X105802052Y-83836703D02*
X105436660Y-83031077D01*
X166888437Y-146435112D02*
X181769561Y-138942893D01*
X178887294Y-63171936D02*
X178344623Y-62774772D01*
X188942893Y-131769561D02*
X188465868Y-132608674D01*
X181480268Y-119094634D02*
X181239285Y-118875956D01*
X120875176Y-86344781D02*
X120672251Y-86646526D01*
X169064148Y-138687993D02*
X169376267Y-138902454D01*
X98698592Y-90366810D02*
X98689028Y-89206090D01*
X180763500Y-93613971D02*
X198000893Y-87955224D01*
X120473067Y-109264985D02*
X121700007Y-109424779D01*
X131360290Y-143594360D02*
X131941322Y-143931847D01*
X178215447Y-118786713D02*
X180084401Y-115259347D01*
X180598861Y-119379207D02*
X180300162Y-119105137D01*
X113398025Y-76013489D02*
X113542365Y-75772465D01*
X155606359Y-132462785D02*
X155403678Y-131600994D01*
X109795974Y-119438665D02*
X109609179Y-119109271D01*
X177938057Y-90097729D02*
X172650166Y-81662681D01*
X153917188Y-144106764D02*
X153839520Y-143634861D01*
X178299992Y-90575220D02*
X177938057Y-90097729D01*
X168453136Y-69873811D02*
X168569984Y-69920773D01*
X155994273Y-54970340D02*
X155620046Y-54402073D01*
X148793323Y-64585444D02*
X148915073Y-64610532D01*
X166657884Y-51346783D02*
X165497005Y-51720763D01*
X119841726Y-113948207D02*
X120029077Y-114185326D01*
X115019839Y-101876330D02*
X114527638Y-102047269D01*
X106362514Y-117305000D02*
X107027069Y-117048615D01*
X158941815Y-53768887D02*
X159154585Y-52977539D01*
X144951179Y-145661003D02*
X154859023Y-146228132D01*
X136215576Y-124560776D02*
X135940293Y-124388202D01*
X133248480Y-68417755D02*
X133163677Y-67983740D01*
X102091094Y-107706010D02*
X101235230Y-92753893D01*
X186267557Y-122874646D02*
X186170743Y-123030229D01*
X169577205Y-137311860D02*
X169644318Y-137586002D01*
X181994703Y-81517127D02*
X182004433Y-81505552D01*
X146353704Y-55465887D02*
X146082811Y-55893235D01*
X180859395Y-64433590D02*
X181439334Y-63854647D01*
X140252843Y-51219420D02*
X140395659Y-52154947D01*
X150528224Y-63850870D02*
X150691430Y-63526588D01*
X200463863Y-109900457D02*
X199559548Y-110718817D01*
X187573683Y-65006563D02*
X188255468Y-65946801D01*
X122517206Y-80207321D02*
X122841360Y-80856272D01*
X130905365Y-68519731D02*
X131124043Y-68760714D01*
X120779098Y-94012102D02*
X120853797Y-94606589D01*
X119785937Y-62107912D02*
X119630361Y-63005910D01*
X132159245Y-146984694D02*
X132991917Y-147472874D01*
X112229722Y-80142264D02*
X112299113Y-79972246D01*
X129488656Y-125233922D02*
X117949893Y-135560141D01*
X116295161Y-102070946D02*
X115766464Y-102468780D01*
X189039649Y-135003285D02*
X187749195Y-135293510D01*
X185597750Y-75094160D02*
X185902586Y-74782851D01*
X149812199Y-137490443D02*
X148298426Y-142101621D01*
X131934319Y-56840222D02*
X121566031Y-62060357D01*
X121825064Y-99314545D02*
X121837532Y-99657272D01*
X182683771Y-63806094D02*
X182550979Y-62724564D01*
X118694709Y-113187358D02*
X119388726Y-112976563D01*
X169143727Y-127158639D02*
X168862916Y-127270314D01*
X188687993Y-119064148D02*
X188902454Y-119376267D01*
X160208023Y-52313272D02*
X159552257Y-51443035D01*
X114683387Y-100917790D02*
X114665633Y-101042464D01*
X113050337Y-100009285D02*
X113036123Y-100014444D01*
X182288918Y-117709452D02*
X188339912Y-118976421D01*
X164170148Y-146564329D02*
X164422785Y-147503919D01*
X113621713Y-70125729D02*
X123808175Y-79197929D01*
X130028697Y-137943803D02*
X130190331Y-138030135D01*
X169709602Y-71196150D02*
X177287261Y-64414785D01*
X150342727Y-128162467D02*
X150018038Y-128150656D01*
X195854582Y-81892927D02*
X196292532Y-82641719D01*
X145450417Y-74198036D02*
X147716519Y-73899698D01*
X170517497Y-127073232D02*
X170021858Y-126543670D01*
X137951330Y-130340188D02*
X137861163Y-129414961D01*
X114048860Y-126461585D02*
X113470184Y-126444837D01*
X169334317Y-129361039D02*
X168882769Y-129097257D01*
X181043978Y-116863476D02*
X181121691Y-116764381D01*
X141898851Y-146358193D02*
X142413848Y-147077445D01*
X183486910Y-96938768D02*
X184126972Y-96713085D01*
X114665633Y-101042464D02*
X114273213Y-101283880D01*
X179097257Y-118882769D02*
X179160581Y-118710510D01*
X109050000Y-100000000D02*
X113050035Y-100000974D01*
X180611273Y-87023436D02*
X179786617Y-86956477D01*
X129288221Y-124341440D02*
X116759182Y-135553873D01*
X155146382Y-67891110D02*
X159976135Y-53178960D01*
X180369638Y-136994089D02*
X179874270Y-136378286D01*
X119292981Y-95683710D02*
X119582637Y-103646073D01*
X129809067Y-78797268D02*
X130151203Y-78680595D01*
X116576941Y-63239852D02*
X128344212Y-76452397D01*
X132433049Y-131644899D02*
X132388229Y-131597214D01*
X126273698Y-79290599D02*
X126718596Y-80334356D01*
X196337685Y-93396900D02*
X196410304Y-94065449D01*
X141430795Y-147817204D02*
X142293989Y-147908905D01*
X148494100Y-142663801D02*
X151676245Y-142845948D01*
X168337318Y-77349833D02*
X168873692Y-77622584D01*
X149536922Y-136133154D02*
X149471775Y-136149129D01*
X120519984Y-88566817D02*
X119619694Y-88402453D01*
X169792678Y-127482793D02*
X169143727Y-127158639D01*
X187424559Y-66227791D02*
X188049420Y-67088516D01*
X129978141Y-73456329D02*
X130725793Y-73810669D01*
X120861329Y-63194686D02*
X121308658Y-63749000D01*
X124782851Y-135902586D02*
X124776390Y-136380691D01*
X113757541Y-133928208D02*
X112575440Y-133772208D01*
X100755083Y-117308116D02*
X100166440Y-116307685D01*
X131124043Y-68760714D02*
X131378188Y-68964124D01*
X183091935Y-102999634D02*
X183048243Y-102700608D01*
X166061411Y-130564189D02*
X165911654Y-130673205D01*
X112056196Y-119971302D02*
X111969864Y-119809668D01*
X180334007Y-91340679D02*
X179264209Y-91676248D01*
X163784423Y-75439223D02*
X164059706Y-75611797D01*
X111379431Y-118973539D02*
X117917683Y-116809787D01*
X199439674Y-84954993D02*
X198413382Y-85357538D01*
X141162504Y-49544138D02*
X140099542Y-49536136D01*
X131533209Y-67996011D02*
X131530571Y-67981121D01*
X119468869Y-85907648D02*
X118801717Y-85783065D01*
X190976220Y-118850509D02*
X187270808Y-126210239D01*
X177482793Y-119792678D02*
X177158639Y-119143727D01*
X171086642Y-125310417D02*
X170480219Y-124665424D01*
X124546325Y-118380750D02*
X124734405Y-118759802D01*
X170232925Y-127954639D02*
X169792678Y-127482793D01*
X110632035Y-81624362D02*
X110210015Y-81516022D01*
X149390976Y-63811237D02*
X149453633Y-63830124D01*
X163187358Y-68694709D02*
X162976563Y-69388726D01*
X192477048Y-82243000D02*
X191884839Y-82470153D01*
X181600994Y-105403678D02*
X180769315Y-104792592D01*
X113806094Y-132683771D02*
X112724564Y-132550979D01*
X181600606Y-137182866D02*
X181057200Y-136505573D01*
X118801717Y-85783065D02*
X107547879Y-83426715D01*
X196237201Y-84395076D02*
X180722520Y-89529464D01*
X116295144Y-95767941D02*
X117001577Y-95932396D01*
X146732365Y-55462959D02*
X146353704Y-55465887D01*
X136095541Y-130882359D02*
X136051792Y-130158273D01*
X199248449Y-111525947D02*
X180599681Y-107667811D01*
X182000095Y-118474138D02*
X182003988Y-118466790D01*
X113829256Y-76969770D02*
X114138568Y-77016169D01*
X176210239Y-137270808D02*
X176622145Y-137031415D01*
X109965368Y-81105201D02*
X110115557Y-80757075D01*
X181305290Y-86812641D02*
X180611273Y-87023436D01*
X142293989Y-147908905D02*
X157246106Y-148764769D01*
X133256533Y-56904043D02*
X132549608Y-56568837D01*
X173986510Y-136601974D02*
X174227534Y-136457634D01*
X106128596Y-104804534D02*
X105634607Y-104940835D01*
X175223609Y-63619308D02*
X174919478Y-63392917D01*
X187835297Y-80435004D02*
X187532478Y-80545229D01*
X114610532Y-98915073D02*
X114683387Y-100917790D01*
X129918167Y-120081832D02*
X128244337Y-118255168D01*
X198279236Y-84502994D02*
X197325291Y-84876307D01*
X158775495Y-148001610D02*
X158643537Y-147143354D01*
X159477470Y-50592494D02*
X141162504Y-49544138D01*
X156603099Y-53662314D02*
X155934550Y-53589695D01*
X169674087Y-74415743D02*
X170310908Y-73873595D01*
X177191047Y-81316125D02*
X177469899Y-80605441D01*
X183048243Y-102700608D02*
X182866987Y-97718068D01*
X118956021Y-83136523D02*
X118878308Y-83235618D01*
X117949554Y-102736645D02*
X117924688Y-103099427D01*
X186607082Y-75080521D02*
X190204025Y-80561334D01*
X192972930Y-82951384D02*
X181305290Y-86812641D01*
X131546863Y-130126188D02*
X131430015Y-130079226D01*
X194061020Y-83432615D02*
X181111033Y-87718249D01*
X169848796Y-121319404D02*
X164681089Y-124057482D01*
X131430015Y-130079226D02*
X131024733Y-130298364D01*
X131213286Y-71784552D02*
X134740652Y-69915598D01*
X123674517Y-64003574D02*
X130051647Y-71163953D01*
X107627407Y-101780522D02*
X107361111Y-101687835D01*
X169243932Y-122544646D02*
X160446960Y-127205667D01*
X182608674Y-138465868D02*
X182831574Y-137371642D01*
X127622584Y-118873692D02*
X127244208Y-120093379D01*
X132383963Y-131966700D02*
X132433049Y-131644899D01*
X150000000Y-128150000D02*
X150000000Y-126200000D01*
X145068391Y-127968540D02*
X142649539Y-127432293D01*
X99843193Y-110363200D02*
X98698592Y-90366810D01*
X114408517Y-126096550D02*
X114048860Y-126461585D01*
X175220021Y-119404685D02*
X175380046Y-119015323D01*
X189073914Y-80295015D02*
X189210477Y-80540529D01*
X196228132Y-104859023D02*
X196228327Y-105433198D01*
X170475000Y-64536259D02*
X168475826Y-68000879D01*
X187605196Y-129016757D02*
X186805313Y-129138670D01*
X168786713Y-128215447D02*
X165259347Y-130084401D01*
X104145417Y-118107072D02*
X103707467Y-117358280D01*
X130827652Y-141334137D02*
X131240926Y-141571162D01*
X159660403Y-128779273D02*
X159851287Y-129834987D01*
X114432039Y-97829394D02*
X114905435Y-97936509D01*
X161234150Y-70956695D02*
X161615492Y-71248796D01*
X190396016Y-117774853D02*
X190891975Y-117903807D01*
X140395659Y-52154947D02*
X143706489Y-68158249D01*
X132691883Y-149244916D02*
X133692314Y-149833559D01*
X176100301Y-102283480D02*
X175801963Y-104549582D01*
X147263354Y-132050445D02*
X146900572Y-132075311D01*
X176061193Y-63186869D02*
X169172347Y-58665862D01*
X169534323Y-73472922D02*
X170110472Y-72981113D01*
X107547879Y-83426715D02*
X106904043Y-83256533D01*
X180657697Y-138608476D02*
X181411368Y-138178978D01*
X180628053Y-62362676D02*
X168107072Y-54145417D01*
X178751203Y-88384507D02*
X174519172Y-81633726D01*
X130295015Y-139073914D02*
X130540529Y-139210477D01*
X114395981Y-123715127D02*
X114145966Y-123972711D01*
X118417755Y-83248480D02*
X117983740Y-83163677D01*
X133311858Y-131695615D02*
X133337734Y-131273242D01*
X176325180Y-118939119D02*
X179124823Y-113655218D01*
X112413997Y-80355681D02*
X112229722Y-80142264D01*
X136344781Y-70875176D02*
X136646526Y-70672251D01*
X138351981Y-71569223D02*
X138566817Y-70519984D01*
X172781152Y-63917557D02*
X172636048Y-63805013D01*
X120282545Y-80336220D02*
X120638960Y-80665682D01*
X105748444Y-82326733D02*
X111725940Y-70454167D01*
X113367139Y-67759870D02*
X125570989Y-78628784D01*
X197118798Y-84050995D02*
X196237201Y-84395076D01*
X179505424Y-107423524D02*
X178457570Y-106884494D01*
X189277310Y-132881426D02*
X188752759Y-133805979D01*
X117259715Y-103653681D02*
X116545721Y-103906737D01*
X187225227Y-71655376D02*
X193594360Y-81360290D01*
X150000000Y-59050000D02*
X150000974Y-63050035D01*
X158323751Y-70735790D02*
X158266637Y-71912774D01*
X106405639Y-118639709D02*
X106068152Y-118058677D01*
X140435071Y-130528263D02*
X140735014Y-129526932D01*
X149985555Y-136963876D02*
X149900995Y-137220036D01*
X147837952Y-66171348D02*
X151827218Y-66316470D01*
X177018886Y-79889527D02*
X185572678Y-70331316D01*
X126659857Y-118835729D02*
X126301387Y-119953615D01*
X185805480Y-77271726D02*
X186082442Y-77218847D01*
X118560665Y-136145352D02*
X118670248Y-137126311D01*
X143167827Y-53556328D02*
X143278069Y-54260042D01*
X155393410Y-129146202D02*
X145444499Y-128784279D01*
X186616536Y-127907702D02*
X186123712Y-127508411D01*
X109603983Y-82225146D02*
X109108024Y-82096192D01*
X160363200Y-49843193D02*
X140366810Y-48698592D01*
X131278161Y-126228321D02*
X130465676Y-126527077D01*
X112426316Y-134993436D02*
X111744531Y-134053198D01*
X185996425Y-126325482D02*
X178836046Y-119948352D01*
X147608369Y-143413102D02*
X152471940Y-143691494D01*
X104335297Y-94139488D02*
X104961741Y-94238872D01*
X163948207Y-69841726D02*
X164185326Y-70029077D01*
X197845052Y-109604340D02*
X181841750Y-106293510D01*
X181470941Y-115090063D02*
X191424068Y-117174068D01*
X169857735Y-137770277D02*
X170027753Y-137700886D01*
X146455092Y-65674109D02*
X146600434Y-66302863D01*
X153099427Y-67924688D02*
X153653681Y-67259715D01*
X166863476Y-131043978D02*
X166764381Y-131121691D01*
X194534112Y-103646295D02*
X194106764Y-103917188D01*
X179926610Y-104854850D02*
X179600820Y-95899213D01*
X177158639Y-119143727D02*
X177270314Y-118862916D01*
X193378647Y-97329112D02*
X193413102Y-97608369D01*
X175584256Y-80325912D02*
X176126404Y-79689091D01*
X113255474Y-74575159D02*
X113761015Y-74554233D01*
X176228321Y-81278161D02*
X176527077Y-80465676D01*
X142753893Y-51235230D02*
X141886445Y-51230350D01*
X123301982Y-97664226D02*
X123607152Y-95346228D01*
X135229067Y-54463722D02*
X134997043Y-53598070D01*
X178174935Y-100685454D02*
X178162467Y-100342727D01*
X107248495Y-118408875D02*
X107522951Y-117756999D01*
X197077445Y-92413848D02*
X197159604Y-93179719D01*
X198001610Y-108775495D02*
X197143354Y-108643537D01*
X121163953Y-80051647D02*
X121578083Y-80436501D01*
X145357850Y-129631020D02*
X144568968Y-130500408D01*
X113239852Y-66576941D02*
X126452397Y-78344212D01*
X135909050Y-75629835D02*
X135924999Y-75621384D01*
X101453248Y-89434855D02*
X118779283Y-93019339D01*
X184946925Y-102857756D02*
X184395850Y-102731528D01*
X138738538Y-148350994D02*
X139464689Y-149296723D01*
X123456329Y-79978141D02*
X123810669Y-80725793D01*
X181769768Y-62156628D02*
X167840754Y-53015305D01*
X112467521Y-119454770D02*
X117723426Y-117715395D01*
X181035875Y-118621811D02*
X181050848Y-118558104D01*
X112107912Y-69785937D02*
X113005910Y-69630361D01*
X193871403Y-95195465D02*
X194365392Y-95059164D01*
X174378615Y-85925000D02*
X174075506Y-86100000D01*
X186949662Y-99990714D02*
X186963876Y-99985555D01*
X169376267Y-138902454D02*
X169635338Y-138792664D01*
X113761015Y-74554233D02*
X114130861Y-74857446D01*
X193691494Y-102471940D02*
X193687004Y-102752843D01*
X150609023Y-136188762D02*
X150546366Y-136169875D01*
X131378188Y-68964124D02*
X131441895Y-68949151D01*
X104358815Y-107907494D02*
X103641806Y-108101148D01*
X123808175Y-79197929D02*
X124395452Y-79748960D01*
X193413102Y-97608369D02*
X193691494Y-102471940D01*
X185472361Y-97952730D02*
X193871403Y-95195465D01*
X130561334Y-140204025D02*
X130890728Y-140390820D01*
X131093971Y-142464248D02*
X131591124Y-142751504D01*
X177982291Y-110795291D02*
X179129644Y-110546792D01*
X113708988Y-135172645D02*
X112426316Y-134993436D01*
X159604340Y-147845052D02*
X156293510Y-131841750D01*
X165371716Y-144508224D02*
X165583126Y-145299938D01*
X129290599Y-76273698D02*
X130334356Y-76718596D01*
X130435004Y-137835297D02*
X130545229Y-137532478D01*
X134027499Y-56519827D02*
X133836703Y-55802052D01*
X122530100Y-119394558D02*
X122088632Y-119910037D01*
X186250999Y-128691341D02*
X177073232Y-120517497D01*
X131626608Y-144724471D02*
X132291521Y-145112189D01*
X150917790Y-64683387D02*
X151042464Y-64665633D01*
X102589033Y-111010455D02*
X101649005Y-111261461D01*
X169167729Y-123489779D02*
X161249024Y-127685456D01*
X147598018Y-66133858D02*
X147837952Y-66171348D01*
X179355542Y-80884969D02*
X179696331Y-80490832D01*
X186188995Y-101483455D02*
X185793278Y-101395453D01*
X147054472Y-56672204D02*
X147121282Y-57066836D01*
X168939119Y-126325180D02*
X163655218Y-129124823D01*
X138481636Y-150036482D02*
X139636799Y-150156806D01*
X128628784Y-75570989D02*
X129290599Y-76273698D01*
X108665862Y-119172347D02*
X108428837Y-118759073D01*
X108575931Y-82825931D02*
X108006034Y-82676362D01*
X165090063Y-131470941D02*
X167174068Y-141424068D01*
X180108522Y-63022812D02*
X179486338Y-62568724D01*
X104304483Y-83512546D02*
X104656666Y-82719148D01*
X178836046Y-119948352D02*
X178421916Y-119563498D01*
X133190212Y-132082316D02*
X133311858Y-131695615D01*
X187126311Y-68670248D02*
X187637323Y-69371946D01*
X189210477Y-80540529D02*
X188995734Y-80887003D01*
X125942517Y-85318910D02*
X125781951Y-85621955D01*
X120808314Y-118438659D02*
X120883500Y-118607947D01*
X174429010Y-121371215D02*
X173726301Y-120709400D01*
X169013248Y-128127948D02*
X168786713Y-128215447D01*
X142332188Y-69400318D02*
X142576475Y-70494575D01*
X118766095Y-103191359D02*
X118739452Y-103613667D01*
X130605441Y-127469899D02*
X130089962Y-127911367D01*
X110789522Y-119459470D02*
X111004265Y-119112996D01*
X118519731Y-80905365D02*
X118760714Y-81124043D01*
X155390245Y-129995108D02*
X154854850Y-129926610D01*
X187770277Y-119857735D02*
X187700886Y-120027753D01*
X103435670Y-85829851D02*
X102496080Y-85577214D01*
X186082442Y-77218847D02*
X186194986Y-77363951D01*
X154549582Y-125801963D02*
X152283480Y-126100301D01*
X118158249Y-93706489D02*
X119097719Y-93928284D01*
X181121691Y-116764381D02*
X181582244Y-116751519D01*
X186194986Y-77363951D02*
X187943803Y-80028697D01*
X194197947Y-116163296D02*
X194563339Y-116968922D01*
X176444837Y-63470184D02*
X176061193Y-63186869D01*
X170480219Y-124665424D02*
X169535164Y-124250712D01*
X162976563Y-69388726D02*
X163043522Y-70213382D01*
X135925000Y-124378615D02*
X135300000Y-125461146D01*
X128159315Y-78818326D02*
X128797268Y-79809067D01*
X150187800Y-62509556D02*
X151701573Y-57898378D01*
X181999120Y-81524173D02*
X181994703Y-81517127D01*
X147716519Y-73899698D02*
X150000000Y-73800000D01*
X115766464Y-102468780D02*
X115200333Y-102667091D01*
X166836322Y-132016259D02*
X168375637Y-139367964D01*
X150727415Y-136491992D02*
X150609023Y-136188762D01*
X118518705Y-119108297D02*
X114395981Y-123715127D01*
X118500453Y-114092965D02*
X119117640Y-113904458D01*
X181273242Y-83337734D02*
X181190641Y-83244840D01*
X124575159Y-63255474D02*
X124554233Y-63761015D01*
X103556328Y-93167827D02*
X104260042Y-93278069D01*
X182550979Y-62724564D02*
X181769768Y-62156628D01*
X145936670Y-54617413D02*
X145460253Y-54618780D01*
X177533805Y-109942564D02*
X178779273Y-109660403D01*
X197022460Y-90845414D02*
X197817204Y-91430795D01*
X172983830Y-135861431D02*
X172776694Y-135614564D01*
X188792664Y-119635338D02*
X186601974Y-123986510D01*
X174218048Y-114378044D02*
X174370164Y-114090949D01*
X168474138Y-132000095D02*
X168466790Y-132003988D01*
X116316470Y-101827218D02*
X116295161Y-102070946D01*
X125565086Y-80908473D02*
X121834754Y-87948910D01*
X129929635Y-83158964D02*
X131473802Y-81473802D01*
X194858166Y-95363006D02*
X194911703Y-95836909D01*
X197908905Y-92293989D02*
X198764769Y-107246106D01*
X144379953Y-145597926D02*
X144951179Y-145661003D01*
X153286914Y-65873027D02*
X156873174Y-54948742D01*
X169109271Y-59609179D02*
X168660997Y-59843827D01*
X122491588Y-63876287D02*
X129767074Y-72045360D01*
X175453674Y-81619249D02*
X175265594Y-81240197D01*
X165259347Y-130084401D02*
X165058927Y-130224719D01*
X154163090Y-55088296D02*
X145936670Y-54617413D01*
X178087225Y-91733362D02*
X177849264Y-91461251D01*
X106308505Y-97528059D02*
X106312995Y-97247156D01*
X142649539Y-127432293D02*
X140286627Y-126687270D01*
X121837532Y-99657272D02*
X121849343Y-99981961D01*
X157682734Y-146441655D02*
X154919208Y-133083820D01*
X108833191Y-81586670D02*
X109023779Y-81149490D01*
X113182250Y-100807623D02*
X107308451Y-102735893D01*
X137685101Y-149015261D02*
X138481636Y-150036482D01*
X181570176Y-117617109D02*
X181932616Y-117637909D01*
X131744831Y-121755662D02*
X129918167Y-120081832D01*
X156884494Y-128457570D02*
X156529859Y-128387544D01*
X174519172Y-81633726D02*
X174302868Y-81202234D01*
X112681693Y-72180548D02*
X113383463Y-72092297D01*
X168873692Y-77622584D02*
X170093379Y-77244208D01*
X155431031Y-69499591D02*
X155766205Y-68563804D01*
X178430776Y-111648018D02*
X179480015Y-111433182D01*
X125772465Y-63542365D02*
X125785201Y-63949792D01*
X132284604Y-132276573D02*
X132383963Y-131966700D01*
X185869138Y-125142553D02*
X179717454Y-119663779D01*
X181499546Y-85907034D02*
X180882359Y-86095541D01*
X196292532Y-82641719D02*
X195958361Y-83598996D01*
X120368979Y-104642149D02*
X119499591Y-105431031D01*
X102840395Y-106820280D02*
X102080775Y-93549587D01*
X193095956Y-116743466D02*
X193431162Y-117450391D01*
X167708478Y-54887810D02*
X166853002Y-55202076D01*
X179160581Y-118710510D02*
X180564189Y-116061411D01*
X129906620Y-122755791D02*
X129087786Y-123448959D01*
X193687004Y-102752843D02*
X193327795Y-102945527D01*
X118958047Y-118532020D02*
X118758814Y-118835502D01*
X170021858Y-126543670D02*
X169274206Y-126189330D01*
X125749287Y-80464835D02*
X125565086Y-80908473D01*
X188255468Y-65946801D02*
X199244916Y-82691883D01*
X130089962Y-127911367D02*
X121522027Y-135578946D01*
X148957535Y-135334366D02*
X148716119Y-135726786D01*
X114446126Y-133240817D02*
X113757541Y-133928208D01*
X131532386Y-131060690D02*
X131467979Y-131041952D01*
X154919208Y-133083820D02*
X154735640Y-132299708D01*
X179043304Y-88765849D02*
X178751203Y-88384507D01*
X113383463Y-72092297D02*
X113876287Y-72491588D01*
X117316228Y-136193905D02*
X117449020Y-137275435D01*
X155761127Y-145038258D02*
X153544907Y-134325890D01*
X187700886Y-120027753D02*
X186267557Y-122874646D01*
X139434855Y-51453248D02*
X143019339Y-68779283D01*
X196410304Y-94065449D02*
X197073678Y-105654717D01*
X181041952Y-81467979D02*
X181241185Y-81164497D01*
X153887397Y-56298873D02*
X153653940Y-55881592D01*
X119074376Y-86656194D02*
X106519827Y-84027499D01*
X138750975Y-72314543D02*
X139204708Y-72017708D01*
X161376143Y-69083223D02*
X161120774Y-69930897D01*
X180673205Y-115911654D02*
X181231873Y-115865130D01*
X162319572Y-129830387D02*
X162470675Y-130652964D01*
X128244337Y-118255168D02*
X126736081Y-116289570D01*
X107361111Y-101687835D02*
X107336198Y-101505899D01*
X134395076Y-146237201D02*
X139529464Y-130722520D01*
X168409704Y-72677319D02*
X168683874Y-72808952D01*
X173972711Y-64145966D02*
X174002380Y-63768433D01*
X154246131Y-68006340D02*
X154526560Y-67218416D01*
X163493846Y-75257062D02*
X163784423Y-75439223D01*
X130490832Y-129696331D02*
X123903449Y-135591482D01*
X119499591Y-105431031D02*
X118563804Y-105766205D01*
X165911654Y-130673205D02*
X165865130Y-131231873D01*
X131541904Y-57932000D02*
X122677896Y-62394774D01*
X183454278Y-96093262D02*
X195641184Y-92092505D01*
X180105714Y-118634307D02*
X181043978Y-116863476D01*
X141058184Y-146231112D02*
X140845414Y-147022460D01*
X173281403Y-119665643D02*
X173489779Y-119167729D01*
X117759870Y-63367139D02*
X128628784Y-75570989D01*
X184605988Y-136887434D02*
X171940360Y-122666195D01*
X130436501Y-71578083D02*
X130986751Y-71872051D01*
X196401929Y-115002956D02*
X196827693Y-116005984D01*
X187431275Y-70513661D02*
X194724471Y-81626608D01*
X104402073Y-105620046D02*
X104338996Y-105048820D01*
X127271726Y-135805480D02*
X127218847Y-136082442D01*
X180881501Y-114978740D02*
X181470941Y-115090063D01*
X193036859Y-97166039D02*
X193378647Y-97329112D01*
X130884969Y-129355542D02*
X130490832Y-129696331D01*
X121220726Y-90339596D02*
X120165012Y-90148712D01*
X125334575Y-79519780D02*
X125749287Y-80464835D01*
X130325912Y-125584256D02*
X129689091Y-126126404D01*
X179753783Y-93976518D02*
X180763500Y-93613971D01*
X174665424Y-120480219D02*
X174250712Y-119535164D01*
X118033299Y-117616036D02*
X118355100Y-117566950D01*
X201301407Y-109633189D02*
X201310971Y-110793909D01*
X144609754Y-70004891D02*
X145145149Y-70073389D01*
X151395453Y-135793278D02*
X151206676Y-135414555D01*
X125080521Y-136607082D02*
X130561334Y-140204025D01*
X113194686Y-70861329D02*
X113749000Y-71308658D01*
X168721838Y-73771678D02*
X169534323Y-73472922D01*
X119117640Y-113904458D02*
X119841726Y-113948207D01*
X185094564Y-102063490D02*
X184640348Y-101804329D01*
X117732164Y-96760831D02*
X117949554Y-102736645D01*
X184053198Y-61744531D02*
X167308116Y-50755083D01*
X146402712Y-67682271D02*
X146760831Y-67732164D01*
X174057482Y-114681089D02*
X174218048Y-114378044D01*
X199616756Y-109007005D02*
X198780579Y-109747156D01*
X164092965Y-68500453D02*
X163904458Y-69117640D01*
X116513089Y-103061231D02*
X115873027Y-103286914D01*
X130465676Y-126527077D02*
X129889527Y-127018886D01*
X145932396Y-67001577D02*
X146402712Y-67682271D01*
X177322103Y-137605225D02*
X177819451Y-137318306D01*
X111247240Y-66194020D02*
X112439581Y-65937457D01*
X115394011Y-63112565D02*
X128059639Y-77333804D01*
X180224719Y-115058927D02*
X180881501Y-114978740D01*
X121120737Y-87499254D02*
X120169612Y-87680427D01*
X100751550Y-88474052D02*
X119400318Y-92332188D01*
X173584669Y-81648204D02*
X173340142Y-81164270D01*
X152736645Y-67949554D02*
X153099427Y-67924688D01*
X178477972Y-64421053D02*
X178950459Y-63951753D01*
X124857446Y-64130861D02*
X130336220Y-70282545D01*
X166841035Y-120070364D02*
X165027702Y-121461783D01*
X166005984Y-146827693D02*
X166888437Y-146435112D01*
X181582244Y-116751519D02*
X182016259Y-116836322D01*
X154539746Y-145381219D02*
X154888849Y-144885733D01*
X121700007Y-109424779D02*
X122061942Y-109902270D01*
X101219420Y-90252843D02*
X102154947Y-90395659D01*
X147268471Y-65604149D02*
X147598018Y-66133858D01*
X115873027Y-103286914D02*
X104948742Y-106873174D01*
X178671648Y-89670535D02*
X178344630Y-89241118D01*
X100592494Y-109477470D02*
X99544138Y-91162504D01*
X102077458Y-92779897D02*
X102777359Y-92196166D01*
X182890075Y-97414813D02*
X183486910Y-96938768D01*
X157246106Y-148764769D02*
X158113554Y-148769649D01*
X136430635Y-52407618D02*
X136157384Y-51394089D01*
X180158273Y-86051792D02*
X179970922Y-85814673D01*
X179129644Y-110546792D02*
X180107646Y-110724417D01*
X112394803Y-70983242D02*
X113194686Y-70861329D01*
X131240926Y-141571162D02*
X131791001Y-141316610D01*
X119659811Y-112048669D02*
X120585038Y-112138836D01*
X147166039Y-143036859D02*
X147329112Y-143378647D01*
X123555162Y-136529815D02*
X123938806Y-136813130D01*
X171319404Y-119848796D02*
X174057482Y-114681089D01*
X174378615Y-114075000D02*
X175461146Y-114699999D01*
X165963193Y-131743600D02*
X167774853Y-140396016D01*
X162048669Y-69659811D02*
X162138836Y-70585038D01*
X190204025Y-80561334D02*
X190390820Y-80890728D01*
X119892353Y-89275582D02*
X103435670Y-85829851D01*
X145363006Y-144858166D02*
X145836909Y-144911703D01*
X131575818Y-128257182D02*
X131354088Y-128153773D01*
X113854647Y-131439334D02*
X112873688Y-131329751D01*
X168710510Y-129160581D02*
X166061411Y-130564189D01*
X186149129Y-99471775D02*
X186473411Y-99308569D01*
X130665682Y-70638960D02*
X131117230Y-70902742D01*
X133938588Y-69435810D02*
X134088345Y-69326794D01*
X128059639Y-77333804D02*
X128818326Y-78159315D01*
X118230438Y-61057106D02*
X117391325Y-61534131D01*
X169953615Y-76301387D02*
X170711778Y-75658559D01*
X115568471Y-135547605D02*
X114827354Y-136291011D01*
X114145966Y-123972711D02*
X113768433Y-124002380D01*
X180079226Y-81430015D02*
X180298364Y-81024733D01*
X128818326Y-78159315D02*
X129809067Y-78797268D01*
X185793278Y-101395453D02*
X185414555Y-101206676D01*
X164378044Y-124218048D02*
X164090949Y-124370164D01*
X114194519Y-122728273D02*
X113917557Y-122781152D01*
X107308451Y-102735893D02*
X106963140Y-102833960D01*
X186427760Y-126676734D02*
X185996425Y-126325482D01*
X188049420Y-67088516D02*
X198114805Y-82425564D01*
X131092137Y-132373776D02*
X127475583Y-135610287D01*
X134876307Y-147325291D02*
X140435071Y-130528263D01*
X175142553Y-135869138D02*
X169663779Y-129717454D01*
X185567960Y-102170605D02*
X185094564Y-102063490D01*
X103762798Y-115604923D02*
X119277479Y-110470535D01*
X103564887Y-83111562D02*
X111057106Y-68230438D01*
X182317728Y-103597287D02*
X182267835Y-103239168D01*
X195299938Y-115583126D02*
X195695516Y-116487453D01*
X198350994Y-88738538D02*
X199296723Y-89464689D01*
X176461585Y-64048860D02*
X176444837Y-63470184D01*
X132225146Y-59603983D02*
X132096192Y-59108024D01*
X167323637Y-141993965D02*
X167931860Y-142298985D01*
X170802070Y-126191824D02*
X170251039Y-125604547D01*
X103707467Y-117358280D02*
X104041638Y-116401003D01*
X145753868Y-131993659D02*
X145473439Y-132781583D01*
X150018038Y-128150656D02*
X150000000Y-128150000D01*
X130464835Y-75749287D02*
X130908473Y-75565086D01*
X178803849Y-80290397D02*
X185585214Y-72712738D01*
X121196150Y-119709602D02*
X114414785Y-127287261D01*
X133836703Y-55802052D02*
X133031077Y-55436660D01*
X181436195Y-94233794D02*
X197410966Y-88989544D01*
X172787178Y-120938580D02*
X172312094Y-119796122D01*
X179776233Y-114206200D02*
X180531130Y-114092351D01*
X133710429Y-123263918D02*
X131744831Y-121755662D01*
X168438659Y-70808314D02*
X168607947Y-70883500D01*
X181411368Y-138178978D02*
X181600606Y-137182866D01*
X134095819Y-131888060D02*
X134239752Y-131424529D01*
X165043046Y-149092046D02*
X166103608Y-148618668D01*
X173745264Y-111072598D02*
X172689865Y-113100000D01*
X119097719Y-93928284D02*
X120004891Y-94609754D01*
X137146846Y-71354965D02*
X137499254Y-71120737D01*
X139670535Y-128671648D02*
X139241118Y-128344630D01*
X132719148Y-54656666D02*
X119342302Y-61391523D01*
X165497005Y-51720763D02*
X165123692Y-52674708D01*
X167008082Y-52527125D02*
X165949004Y-52881201D01*
X129524999Y-64536259D02*
X131525861Y-67999904D01*
X117438422Y-81417418D02*
X112688139Y-80422794D01*
X120513661Y-137431275D02*
X131626608Y-144724471D01*
X151372504Y-65499929D02*
X151556705Y-65480397D01*
X184993436Y-62426316D02*
X184053198Y-61744531D01*
X130891702Y-131481294D02*
X126284872Y-135604018D01*
X183704855Y-104232058D02*
X182998422Y-104067603D01*
X129525000Y-135463740D02*
X131524173Y-131999120D01*
X142413848Y-147077445D02*
X143179719Y-147159604D01*
X126040376Y-64258148D02*
X130620792Y-69401138D01*
X124692743Y-93218941D02*
X125380053Y-91039072D01*
X112164702Y-119564995D02*
X112467521Y-119454770D01*
X132096192Y-59108024D02*
X131586670Y-58833191D01*
X153906737Y-66545721D02*
X157907494Y-54358815D01*
X125997619Y-136231566D02*
X126222236Y-136401034D01*
X168467613Y-68939309D02*
X168532020Y-68958047D01*
X113542365Y-75772465D02*
X113949792Y-75785201D01*
X112156628Y-131769768D02*
X103015305Y-117840754D01*
X183993290Y-139611727D02*
X185003285Y-139039649D01*
X181695615Y-83311858D02*
X181273242Y-83337734D01*
X169015323Y-125380046D02*
X162853153Y-128645034D01*
X186123712Y-127508411D02*
X177954639Y-120232925D01*
X103641806Y-108101148D02*
X102922554Y-107586151D01*
X166743466Y-143095956D02*
X167450391Y-143431162D01*
X107701014Y-82068139D02*
X107932000Y-81541904D01*
X130887003Y-138995734D02*
X131026460Y-138620568D01*
X197686727Y-89791976D02*
X198556964Y-90447742D01*
X157423524Y-129505424D02*
X156884494Y-128457570D01*
X101885194Y-117574435D02*
X101346783Y-116657884D01*
X105436660Y-83031077D02*
X105748444Y-82326733D01*
X185553873Y-66759182D02*
X186242458Y-66071791D01*
X169665643Y-123281403D02*
X169167729Y-123489779D01*
X102407618Y-86430635D02*
X101394089Y-86157384D01*
X156832172Y-146443671D02*
X156721930Y-145739957D01*
X101341794Y-108591740D02*
X100389684Y-91958199D01*
X151623487Y-134609059D02*
X148627495Y-134500070D01*
X119920773Y-118569984D02*
X119701635Y-118975266D01*
X193701126Y-96112602D02*
X194118407Y-96346059D01*
X115359651Y-98195670D02*
X115390940Y-98376512D01*
X153646295Y-144534112D02*
X153917188Y-144106764D01*
X168482872Y-68005296D02*
X168494447Y-67995566D01*
X189708658Y-81507691D02*
X181888060Y-84095819D01*
X119894285Y-81365692D02*
X118956021Y-83136523D01*
X154838581Y-68752965D02*
X155146382Y-67891110D01*
X135924999Y-75621384D02*
X136100000Y-75924493D01*
X141408259Y-148658205D02*
X158041800Y-149610315D01*
X120842223Y-112472103D02*
X124546325Y-118380750D01*
X179830387Y-112319572D02*
X180652964Y-112470675D01*
X145460253Y-54618780D02*
X145111150Y-55114266D01*
X186048246Y-71049540D02*
X186828063Y-71112705D01*
X181523767Y-117665540D02*
X181570176Y-117617109D01*
X119554215Y-104127908D02*
X118752965Y-104838581D01*
X131316125Y-127191047D02*
X130605441Y-127469899D01*
X168835502Y-68758814D02*
X169108297Y-68518705D01*
X102674708Y-115123692D02*
X119471736Y-109564928D01*
X117537214Y-94393640D02*
X118399005Y-94596321D01*
X121872051Y-80986751D02*
X121784552Y-81213286D01*
X118304384Y-116688141D02*
X118726757Y-116662265D01*
X197922541Y-107220102D02*
X197222640Y-107803833D01*
X159154585Y-52977539D02*
X158569204Y-52182795D01*
X181057200Y-136505573D02*
X171086642Y-125310417D01*
X131525861Y-67999904D02*
X131533209Y-67996011D01*
X175233922Y-79488656D02*
X185560141Y-67949893D01*
X131304241Y-132183994D02*
X131092137Y-132373776D01*
X198546751Y-110565144D02*
X181220716Y-106980660D01*
X124113187Y-106936350D02*
X123607152Y-104653771D01*
X181841750Y-106293510D02*
X180902280Y-106071715D01*
X120399179Y-104100786D02*
X120368979Y-104642149D01*
X146386332Y-131260547D02*
X145753868Y-131993659D01*
X176676734Y-136427760D02*
X176325482Y-135996425D01*
X168975266Y-69701635D02*
X169308732Y-69411187D01*
X167774853Y-140396016D02*
X167903807Y-140891975D01*
X186457634Y-124227534D02*
X186050207Y-124214798D01*
X130908473Y-75565086D02*
X137948910Y-71834754D01*
X196358193Y-91898851D02*
X197077445Y-92413848D01*
X186977187Y-69891477D02*
X187431275Y-70513661D01*
X126551040Y-120912213D02*
X114452394Y-134431528D01*
X166662265Y-68726757D02*
X166755159Y-68809358D01*
X120853797Y-94606589D02*
X121215720Y-104555500D01*
X112362676Y-130628053D02*
X104145417Y-118107072D01*
X168373391Y-55275528D02*
X167708478Y-54887810D01*
X152070946Y-66295161D02*
X152468780Y-65766464D01*
X166487453Y-145695516D02*
X167280851Y-145343333D01*
X130623732Y-61097545D02*
X130364661Y-61207335D01*
X131126307Y-122377415D02*
X129906620Y-122755791D01*
X164681089Y-124057482D02*
X164378044Y-124218048D01*
X154100786Y-70399179D02*
X154642149Y-70368979D01*
X168375637Y-139367964D02*
X168483977Y-139789984D01*
X134239752Y-131424529D02*
X134242420Y-130901586D01*
X168759073Y-58428837D02*
X168208998Y-58683389D01*
X104700061Y-84416873D02*
X104304483Y-83512546D01*
X152999634Y-133091935D02*
X152700608Y-133048243D01*
X184233535Y-97531219D02*
X184799666Y-97332908D01*
X117723426Y-117715395D02*
X118033299Y-117616036D01*
X121742817Y-118424181D02*
X121846226Y-118645911D01*
X123472922Y-119534323D02*
X122981113Y-120110472D01*
X172728273Y-64194519D02*
X172781152Y-63917557D01*
X114421053Y-128477972D02*
X113951753Y-128950459D01*
X148572553Y-136145055D02*
X146229786Y-143281476D01*
X132773292Y-120529991D02*
X131049538Y-118950461D01*
X125785201Y-63949792D02*
X126040376Y-64258148D01*
X124113187Y-93063649D02*
X124816237Y-90833860D01*
X164075000Y-75621384D02*
X164700000Y-74538853D01*
X157907494Y-54358815D02*
X158101148Y-53641806D01*
X183423058Y-136760147D02*
X171655787Y-123547602D01*
X179786617Y-86956477D02*
X179564349Y-86671284D01*
X192933163Y-102878717D02*
X186188995Y-101483455D01*
X180445784Y-95872091D02*
X181247034Y-95161418D01*
X161648018Y-128430776D02*
X161433182Y-129480015D01*
X196984694Y-82159245D02*
X197472874Y-82991917D01*
X182108889Y-94853617D02*
X196821039Y-90023864D01*
X156980660Y-131220716D02*
X156739753Y-130203566D01*
X99661482Y-88309520D02*
X100751550Y-88474052D01*
X131339002Y-140156172D02*
X131507691Y-139708658D01*
X168875956Y-131239285D02*
X168621811Y-131035875D01*
X144843610Y-128816257D02*
X143976518Y-129753783D01*
X180214062Y-137892087D02*
X180369638Y-136994089D01*
X146353926Y-130417362D02*
X145872091Y-130445784D01*
X168907862Y-67626223D02*
X172524416Y-64389712D01*
X112299113Y-79972246D02*
X113732442Y-77125353D01*
X195661003Y-94951179D02*
X196228132Y-104859023D01*
X185572678Y-70331316D02*
X186096799Y-69805103D01*
X161525947Y-149248449D02*
X157667811Y-130599681D01*
X191993965Y-117323637D02*
X192298985Y-117931860D01*
X173959623Y-135741851D02*
X169379207Y-130598861D01*
X122061942Y-109902270D02*
X127349833Y-118337318D01*
X186380691Y-74776390D02*
X186607082Y-75080521D01*
X109843827Y-118660997D02*
X110291341Y-118492308D01*
X168492308Y-60291341D02*
X165904180Y-68111939D01*
X180901586Y-84242420D02*
X180784068Y-84101451D01*
X114414785Y-127287261D02*
X114000307Y-127706022D01*
X181329751Y-62873688D02*
X180628053Y-62362676D01*
X107535751Y-118906028D02*
X107248495Y-118408875D01*
X106068152Y-118058677D02*
X106362514Y-117305000D01*
X125710951Y-111326169D02*
X124816237Y-109166139D01*
X168683874Y-72808952D02*
X169394558Y-72530100D01*
X113917557Y-122781152D02*
X113805013Y-122636048D01*
X116908064Y-97000365D02*
X116951756Y-97299391D01*
X187560418Y-134062542D02*
X186760147Y-133423058D01*
X111057106Y-68230438D02*
X111534131Y-67391325D01*
X139553039Y-72794332D02*
X140057435Y-72466194D01*
X186291011Y-64827354D02*
X187573683Y-65006563D01*
X132641719Y-146292532D02*
X133598996Y-145958361D01*
X136656194Y-69074376D02*
X134027499Y-56519827D01*
X183240817Y-64446126D02*
X183928208Y-63757541D01*
X128344212Y-76452397D02*
X129061419Y-77212821D01*
X180916776Y-88623856D02*
X180069102Y-88879225D01*
X169242924Y-139884442D02*
X175098374Y-136936391D01*
X197222640Y-107803833D02*
X196441655Y-107682734D01*
X105088296Y-104163090D02*
X104617413Y-95936670D01*
X132694999Y-143637485D02*
X132951384Y-142972930D01*
X117133012Y-102281931D02*
X117109924Y-102585186D01*
X147414813Y-132890075D02*
X146938768Y-133486910D01*
X124816237Y-90833860D02*
X125710951Y-88673830D01*
X198413382Y-85357538D02*
X180334007Y-91340679D01*
X160329464Y-71328351D02*
X160758881Y-71655369D01*
X191316610Y-81791001D02*
X190796749Y-81988922D01*
X169404685Y-125220021D02*
X169015323Y-125380046D01*
X197959869Y-115524515D02*
X197526890Y-116496022D01*
X113022812Y-130108522D02*
X112568724Y-129486338D01*
X185389467Y-101084926D02*
X185316612Y-99082209D01*
X161249024Y-127685456D02*
X160795291Y-127982291D01*
X114389712Y-122524416D02*
X114194519Y-122728273D01*
X107898378Y-101701573D02*
X107627407Y-101780522D01*
X158569204Y-52182795D02*
X157706010Y-52091094D01*
X145140976Y-53771867D02*
X144566801Y-53771672D01*
X124734405Y-118759802D02*
X124415743Y-119674087D01*
X117995566Y-118494447D02*
X117816005Y-118695758D01*
X106963140Y-102833960D02*
X106621352Y-102670887D01*
X147332908Y-134799666D02*
X144161145Y-144461330D01*
X152585186Y-67109924D02*
X153061231Y-66513089D01*
X163569364Y-147592381D02*
X163842615Y-148605910D01*
X169105137Y-130300162D02*
X168752290Y-130066566D01*
X129972246Y-62299113D02*
X127125353Y-63732442D01*
X128538216Y-84972297D02*
X129929635Y-83158964D01*
X169308732Y-69411187D02*
X174905839Y-64402249D01*
X133896391Y-51381331D02*
X116006709Y-60388272D01*
X117999904Y-81525861D02*
X117996011Y-81533209D01*
X123810669Y-80725793D02*
X123674819Y-81060880D01*
X125611797Y-114059706D02*
X125621384Y-114075000D01*
X134036806Y-68256399D02*
X132225146Y-59603983D01*
X138765849Y-129043304D02*
X138384507Y-128751203D01*
X139453207Y-70870355D02*
X139275582Y-69892353D01*
X134958062Y-130377495D02*
X131575818Y-128257182D01*
X167566950Y-68355100D02*
X167611770Y-68402785D01*
X139791976Y-147686727D02*
X140447742Y-148556964D01*
X118878308Y-83235618D02*
X118417755Y-83248480D01*
X166755159Y-68809358D02*
X168453136Y-69873811D01*
X152670887Y-56621352D02*
X152391630Y-56586897D01*
X184609059Y-101623487D02*
X184500070Y-98627495D01*
X133136523Y-68956021D02*
X133235618Y-68878308D01*
X152667091Y-65200333D02*
X155838854Y-55538669D01*
X190796749Y-81988922D02*
X181693803Y-85001427D01*
X147264106Y-142691548D02*
X147166039Y-143036859D01*
X117449020Y-137275435D02*
X118230231Y-137843371D01*
X177907702Y-136616536D02*
X177508411Y-136123712D01*
X132334459Y-68476232D02*
X132382890Y-68429823D01*
X111660087Y-81023578D02*
X111312006Y-80935851D01*
X121587279Y-119254794D02*
X121196150Y-119709602D01*
X120213382Y-113043522D02*
X120435650Y-113328715D01*
X145080791Y-66916179D02*
X145264359Y-67700291D01*
X193480172Y-115972500D02*
X194197947Y-116163296D01*
X186828063Y-71112705D02*
X187225227Y-71655376D01*
X114527638Y-102047269D02*
X106128596Y-104804534D01*
X174214798Y-136050207D02*
X173959623Y-135741851D01*
X117717000Y-81475722D02*
X117438422Y-81417418D01*
X117949893Y-135560141D02*
X117316228Y-136193905D01*
X187843371Y-68230231D02*
X196984694Y-82159245D01*
X168906028Y-57535751D02*
X168408875Y-57248495D01*
X177666065Y-63321060D02*
X177202908Y-62980820D01*
X121566031Y-62060357D02*
X120983242Y-62394803D01*
X145059164Y-144365392D02*
X145363006Y-144858166D01*
X174742937Y-86506153D02*
X174560776Y-86215576D01*
X113171936Y-128887294D02*
X112774772Y-128344623D01*
X157667811Y-130599681D02*
X157423524Y-129505424D01*
X187586002Y-119644318D02*
X187770277Y-119857735D01*
X135907648Y-69468869D02*
X135783065Y-68801717D01*
X152391630Y-56586897D02*
X147528059Y-56308505D01*
X169644318Y-137586002D02*
X169857735Y-137770277D01*
X120883500Y-118607947D02*
X120644457Y-119115030D01*
X131619249Y-125453674D02*
X131240197Y-125265594D01*
X100389684Y-91958199D02*
X100383243Y-90992994D01*
X165949004Y-52881201D02*
X165604923Y-53762798D01*
X175217148Y-64097413D02*
X175223609Y-63619308D01*
X183928208Y-63757541D02*
X183772208Y-62575440D01*
X169394558Y-72530100D02*
X169910037Y-72088632D01*
X177205667Y-110446960D02*
X177533805Y-109942564D01*
X149900995Y-137220036D02*
X149812199Y-137490443D01*
X170938580Y-122787178D02*
X169796122Y-122312094D01*
X140845414Y-147022460D02*
X141430795Y-147817204D01*
X103558344Y-92317265D02*
X116916179Y-95080791D01*
X130757075Y-60115557D02*
X124901625Y-63063608D01*
X163043522Y-70213382D02*
X163328715Y-70435650D01*
X123607152Y-104653771D02*
X123301982Y-102335773D01*
X136956477Y-129786617D02*
X136671284Y-129564349D01*
X176200000Y-100000000D02*
X176100301Y-102283480D01*
X112724564Y-132550979D02*
X112156628Y-131769768D01*
X167673266Y-144251555D02*
X179545832Y-138274059D01*
X168752290Y-130066566D02*
X168634307Y-130105714D01*
X181060690Y-81532386D02*
X181041952Y-81467979D01*
X124395452Y-79748960D02*
X124779978Y-80595314D01*
X122088632Y-119910037D02*
X114421053Y-128477972D01*
X145444499Y-128784279D02*
X144843610Y-128816257D01*
X176189330Y-119274206D02*
X176325180Y-118939119D01*
X169663779Y-129717454D02*
X169334317Y-129361039D01*
X153544907Y-134325890D02*
X153399565Y-133697136D01*
X159564928Y-69471736D02*
X159264985Y-70473067D01*
X181247034Y-95161418D02*
X182108889Y-94853617D01*
X111534131Y-67391325D02*
X112628357Y-67168425D01*
X111207335Y-80364661D02*
X113398025Y-76013489D01*
X131475722Y-67717000D02*
X131417418Y-67438422D01*
X147829394Y-64432039D02*
X147936509Y-64905435D01*
X190891975Y-117903807D02*
X191166808Y-118413329D01*
X133235618Y-68878308D02*
X133248480Y-68417755D01*
X99544138Y-91162504D02*
X99536136Y-90099542D01*
X115499929Y-101372504D02*
X115480397Y-101556705D01*
X188620568Y-81026460D02*
X182082316Y-83190212D01*
X133503977Y-52473109D02*
X117118573Y-60722689D01*
X185861431Y-122983830D02*
X185614564Y-122776694D01*
X116227791Y-137424559D02*
X117088516Y-138049420D01*
X164075000Y-124378615D02*
X163900000Y-124075506D01*
X131026460Y-138620568D02*
X133190212Y-132082316D01*
X120073389Y-95145149D02*
X120399179Y-104100786D01*
X148376512Y-65390940D02*
X151372504Y-65499929D01*
X181543521Y-104194939D02*
X181487426Y-103777729D01*
X168458095Y-142067999D02*
X177322103Y-137605225D01*
X178691341Y-136250999D02*
X170517497Y-127073232D01*
X156326650Y-147075434D02*
X156832172Y-146443671D01*
X143179719Y-147159604D02*
X156450412Y-147919224D01*
X150000000Y-127600000D02*
X150000000Y-128400000D01*
X134909936Y-68529058D02*
X132825931Y-58575931D01*
X111725940Y-70454167D02*
X112107912Y-69785937D01*
X123377854Y-62968584D02*
X123323265Y-63572239D01*
X195739957Y-106721930D02*
X183704855Y-104232058D01*
X144139488Y-54335297D02*
X144238872Y-54961741D01*
X151283880Y-64273213D02*
X151427446Y-63854944D01*
X119411187Y-119308732D02*
X114402249Y-124905839D01*
X126013489Y-63398025D02*
X125772465Y-63542365D01*
X153191359Y-68766095D02*
X153613667Y-68739452D01*
X172544646Y-119243932D02*
X177205667Y-110446960D01*
X174002380Y-63768433D02*
X173777763Y-63598965D01*
X180126188Y-81546863D02*
X180079226Y-81430015D01*
X152281931Y-67133012D02*
X152585186Y-67109924D01*
X172524416Y-64389712D02*
X172728273Y-64194519D01*
X107768535Y-98082086D02*
X113189970Y-99203695D01*
X113598965Y-123777763D02*
X110926085Y-119704984D01*
X126222236Y-136401034D02*
X130295015Y-139073914D01*
X147329112Y-143378647D02*
X147608369Y-143413102D01*
X192372592Y-98219477D02*
X192638888Y-98312164D01*
X194563339Y-116968922D02*
X194251555Y-117673266D01*
X181769561Y-138942893D02*
X182608674Y-138465868D01*
X195051257Y-93126825D02*
X195693926Y-92952289D01*
X102527125Y-117008082D02*
X102881201Y-115949004D01*
X136794038Y-69819241D02*
X136656194Y-69074376D01*
X117218416Y-104526560D02*
X103768887Y-108941815D01*
X184325890Y-103544907D02*
X183697136Y-103399565D01*
X161597546Y-130380305D02*
X164770932Y-145536277D01*
X169454770Y-62467521D02*
X167715395Y-67723426D01*
X142092505Y-145641184D02*
X141898851Y-146358193D01*
X156739753Y-130203566D02*
X155987897Y-129220901D01*
X131473802Y-81473802D02*
X133158964Y-79929635D01*
X148716119Y-135726786D02*
X148572553Y-136145055D01*
X135542717Y-70395387D02*
X135793799Y-70223766D01*
X124260858Y-112002358D02*
X123312729Y-109713372D01*
X169172347Y-58665862D02*
X168759073Y-58428837D01*
X166163296Y-144197947D02*
X166968922Y-144563339D01*
X119470069Y-114852893D02*
X119622504Y-115041937D01*
X121912774Y-108266637D02*
X122150735Y-108538748D01*
X187605225Y-127322103D02*
X187318306Y-127819451D01*
X118768126Y-84134869D02*
X118256399Y-84036806D01*
X154854850Y-129926610D02*
X145899213Y-129600820D01*
X143976518Y-129753783D02*
X143613971Y-130763500D01*
X165045006Y-50560325D02*
X164642461Y-51586617D01*
X148915073Y-64610532D02*
X150917790Y-64683387D01*
X154063329Y-145382586D02*
X154539746Y-145381219D01*
X160718817Y-149559548D02*
X160565144Y-148546751D01*
X168558104Y-131050848D02*
X167665540Y-131523767D01*
X169459470Y-60789522D02*
X169112996Y-61004265D01*
X147299391Y-66951756D02*
X152281931Y-67133012D01*
X130595314Y-74779978D02*
X130984676Y-74619953D01*
X154859023Y-146228132D02*
X155433198Y-146228327D01*
X120870355Y-89453207D02*
X119892353Y-89275582D01*
X133994015Y-53172306D02*
X133111562Y-53564887D01*
X188608476Y-130657697D02*
X188178978Y-131411368D01*
X184062542Y-137560418D02*
X183423058Y-136760147D01*
X113811004Y-98516544D02*
X114206721Y-98604546D01*
X167931860Y-142298985D02*
X168458095Y-142067999D01*
X191166808Y-118413329D02*
X190976220Y-118850509D01*
X105634607Y-104940835D02*
X105141833Y-104636993D01*
X124619953Y-80984676D02*
X121354965Y-87146846D01*
X160446960Y-127205667D02*
X159942564Y-127533805D01*
X131441895Y-68949151D02*
X132334459Y-68476232D01*
X181481294Y-80891702D02*
X185604018Y-76284872D01*
X195958361Y-83598996D02*
X195149110Y-83913845D01*
X161072598Y-123745264D02*
X158960927Y-124619946D01*
X144005726Y-145029659D02*
X144379953Y-145597926D01*
X179545832Y-138274059D02*
X180214062Y-137892087D01*
X106312995Y-97247156D02*
X106672204Y-97054472D01*
X128046725Y-115371848D02*
X126790519Y-113400000D01*
X119230684Y-95207407D02*
X119292981Y-95683710D01*
X153399565Y-133697136D02*
X152999634Y-133091935D01*
X120165012Y-90148712D02*
X102407618Y-86430635D01*
X137861163Y-129414961D02*
X137527896Y-129157776D01*
X165972500Y-143480172D02*
X166163296Y-144197947D01*
X105202076Y-116853002D02*
X105938979Y-116567384D01*
X121708070Y-102475223D02*
X121600000Y-100000000D01*
X145207407Y-69230684D02*
X145683710Y-69292981D01*
X182282999Y-118524277D02*
X182561577Y-118582581D01*
X100166440Y-116307685D02*
X100560325Y-115045006D01*
X183697136Y-103399565D02*
X183091935Y-102999634D01*
X161433182Y-129480015D02*
X161597546Y-130380305D01*
X153653681Y-67259715D02*
X153906737Y-66545721D01*
X120644457Y-119115030D02*
X120303668Y-119509167D01*
X114439858Y-132050106D02*
X113806094Y-132683771D01*
X113526588Y-100691430D02*
X113182250Y-100807623D01*
X112968584Y-73377854D02*
X113572239Y-73323265D01*
X135357538Y-148413382D02*
X141340679Y-130334007D01*
X177685456Y-111249024D02*
X177982291Y-110795291D01*
X167280851Y-145343333D02*
X180657697Y-138608476D01*
X127687905Y-80203877D02*
X127455353Y-80756067D01*
X131049538Y-118950461D02*
X129470008Y-117226707D01*
X120125729Y-63621713D02*
X129197929Y-73808175D01*
X124766077Y-120511343D02*
X114439858Y-132050106D01*
X112060357Y-71566031D02*
X112394803Y-70983242D01*
X167617109Y-131570176D02*
X167637909Y-131932616D01*
X170190932Y-121202731D02*
X169848796Y-121319404D01*
X166307685Y-50166440D02*
X165045006Y-50560325D01*
X107451173Y-98026134D02*
X107768535Y-98082086D01*
X107932000Y-81541904D02*
X112394774Y-72677896D01*
X168973539Y-61379431D02*
X166809787Y-67917683D01*
X113572239Y-73323265D02*
X114003574Y-73674517D01*
X159942564Y-127533805D02*
X159660403Y-128779273D01*
X185463740Y-79525000D02*
X181999120Y-81524173D01*
X168351795Y-76415330D02*
X168835729Y-76659857D01*
X118005296Y-118482872D02*
X117995566Y-118494447D01*
X144853617Y-132108889D02*
X140023864Y-146821039D01*
X181693803Y-85001427D02*
X181153444Y-85167647D01*
X116916179Y-95080791D02*
X117700291Y-95264359D01*
X115604149Y-97268471D02*
X116133858Y-97598018D01*
X192751504Y-81591124D02*
X192477048Y-82243000D01*
X134941072Y-69775280D02*
X135021259Y-69118498D01*
X111744531Y-134053198D02*
X100755083Y-117308116D01*
X187892087Y-130214062D02*
X186994089Y-130369638D01*
X123873595Y-120310908D02*
X114433590Y-130859395D01*
X121215720Y-104555500D02*
X121183742Y-105156389D01*
X199610315Y-108041800D02*
X199616756Y-109007005D01*
X132388229Y-131597214D02*
X131532386Y-131060690D01*
X179486338Y-62568724D02*
X168373391Y-55275528D01*
X135940293Y-124388202D02*
X135925000Y-124378615D01*
X132549608Y-56568837D02*
X131934319Y-56840222D01*
X170027753Y-137700886D02*
X172874646Y-136267557D01*
X110926085Y-119704984D02*
X110789522Y-119459470D01*
X146229786Y-143281476D02*
X146112602Y-143701126D01*
X164642461Y-51586617D02*
X158659320Y-69665992D01*
X186401034Y-76222236D02*
X189073914Y-80295015D01*
X136646526Y-70672251D02*
X136794038Y-69819241D01*
X133692314Y-149833559D02*
X134954993Y-149439674D01*
X110291341Y-118492308D02*
X118111939Y-115904180D01*
X181233904Y-96808640D02*
X181260547Y-96386332D01*
X193594360Y-81360290D02*
X193931847Y-81941322D01*
X113508007Y-99272584D02*
X113811237Y-99390976D01*
X189367964Y-118375637D02*
X189789984Y-118483977D01*
X193634861Y-103839520D02*
X185567960Y-102170605D01*
X120201982Y-110192880D02*
X121328351Y-110329464D01*
X181153444Y-85167647D02*
X180529930Y-85147106D01*
X193159777Y-118065680D02*
X187939642Y-128433968D01*
X147952730Y-135472361D02*
X145195465Y-143871403D01*
X138309520Y-49661482D02*
X138474052Y-50751550D01*
X176527077Y-80465676D02*
X177018886Y-79889527D01*
X181993659Y-95753868D02*
X182781583Y-95473439D01*
X130355681Y-62413997D02*
X130142264Y-62229722D01*
X152283480Y-126100301D02*
X150000000Y-126200000D01*
X185414555Y-101206676D02*
X185389467Y-101084926D01*
X199833559Y-83692314D02*
X199439674Y-84954993D01*
X101235230Y-92753893D02*
X101230350Y-91886445D01*
X147121282Y-57066836D02*
X148516544Y-63811004D01*
X177849264Y-91461251D02*
X174742937Y-86506153D01*
X165865130Y-131231873D02*
X165963193Y-131743600D01*
X122092297Y-63383463D02*
X122491588Y-63876287D01*
X105938979Y-116567384D02*
X118888966Y-112281750D01*
X148627495Y-134500070D02*
X148443294Y-134519602D01*
X186473411Y-99308569D02*
X186817749Y-99192376D01*
X120246216Y-106023481D02*
X119236499Y-106386028D01*
X106672204Y-97054472D02*
X107066836Y-97121282D01*
X130334356Y-76718596D02*
X130832270Y-76510220D01*
X152857756Y-134946925D02*
X152731528Y-134395850D01*
X107027069Y-117048615D02*
X118694709Y-113187358D01*
X171655787Y-123547602D02*
X170938580Y-122787178D01*
X109023779Y-81149490D02*
X112729191Y-73789760D01*
X116194020Y-61247240D02*
X115937457Y-62439581D01*
X192839897Y-101859391D02*
X192548826Y-101973865D01*
X144606589Y-70853797D02*
X154555500Y-71215720D01*
X198556964Y-90447742D02*
X198658205Y-91408259D01*
X195038258Y-105761127D02*
X184325890Y-103544907D01*
X118529058Y-84909936D02*
X108575931Y-82825931D01*
X117001577Y-95932396D02*
X117682271Y-96402712D01*
X132291521Y-145112189D02*
X133146997Y-144797923D01*
X143115505Y-71542429D02*
X143470140Y-71612455D01*
X121112705Y-136828063D02*
X121655376Y-137225227D01*
X141356462Y-52856645D02*
X144393640Y-67537214D01*
X168466790Y-132003988D02*
X168469428Y-132018878D01*
X167903807Y-140891975D02*
X168413329Y-141166808D01*
X149657272Y-71837532D02*
X149981961Y-71849343D01*
X186145352Y-68560665D02*
X187126311Y-68670248D01*
X166764381Y-131121691D02*
X166751519Y-131582244D01*
X144161145Y-144461330D02*
X144005726Y-145029659D01*
X179157776Y-87527896D02*
X175453674Y-81619249D01*
X185334366Y-98957535D02*
X185726786Y-98716119D01*
X137527896Y-129157776D02*
X131619249Y-125453674D01*
X146082811Y-55893235D02*
X146160479Y-56365138D01*
X125781951Y-85621955D02*
X125629835Y-85909050D01*
X150685454Y-128174935D02*
X150342727Y-128162467D01*
X118739452Y-103613667D02*
X118006340Y-104246131D01*
X159851287Y-129834987D02*
X163569364Y-147592381D01*
X157706010Y-52091094D02*
X142753893Y-51235230D01*
X118949151Y-81441895D02*
X118476232Y-82334459D01*
X154642149Y-70368979D02*
X155431031Y-69499591D01*
X151042464Y-64665633D02*
X151283880Y-64273213D01*
X129087786Y-123448959D02*
X115568471Y-135547605D01*
X168526197Y-118526197D02*
X166841035Y-120070364D01*
X178950459Y-63951753D02*
X178887294Y-63171936D01*
X137955224Y-148000893D02*
X137685101Y-149015261D01*
X150691430Y-63526588D02*
X150807623Y-63182250D01*
X151084926Y-135389467D02*
X149082209Y-135316612D01*
X162138836Y-70585038D02*
X162472103Y-70842223D01*
X180722520Y-89529464D02*
X179798017Y-89807119D01*
X118726757Y-116662265D02*
X118809358Y-116755159D01*
X140992994Y-50383243D02*
X140252843Y-51219420D01*
X179124823Y-113655218D02*
X179327748Y-113353473D01*
X131392052Y-129116499D02*
X130884969Y-129355542D01*
X167715395Y-67723426D02*
X167616036Y-68033299D01*
X194251555Y-117673266D02*
X188274059Y-129545832D01*
X146713085Y-134126972D02*
X143126825Y-145051257D01*
X200455861Y-108837495D02*
X200463863Y-109900457D01*
X151687835Y-57361111D02*
X151505899Y-57336198D01*
X167305000Y-56362514D02*
X167048615Y-57027069D01*
X113470184Y-126444837D02*
X113186869Y-126061193D01*
X124415743Y-119674087D02*
X123873595Y-120310908D01*
X148298426Y-142101621D02*
X148219477Y-142372592D01*
X170511343Y-74766077D02*
X182050106Y-64439858D01*
X196231112Y-91058184D02*
X197022460Y-90845414D01*
X168065680Y-143159777D02*
X178433968Y-137939642D01*
X114273213Y-101283880D02*
X113854944Y-101427446D01*
X121612455Y-93470140D02*
X121825064Y-99314545D01*
X154800323Y-144336560D02*
X152857756Y-134946925D01*
X181190641Y-83244840D02*
X180126188Y-81546863D01*
X114585444Y-98793323D02*
X114610532Y-98915073D01*
X168850509Y-140976220D02*
X176210239Y-137270808D01*
X166496022Y-147526890D02*
X182881426Y-139277310D01*
X167840754Y-53015305D02*
X167008082Y-52527125D01*
X142317265Y-53558344D02*
X145080791Y-66916179D01*
X130545229Y-137532478D02*
X132284604Y-132276573D01*
X119347035Y-87529324D02*
X105491775Y-84628283D01*
X135147106Y-130529930D02*
X134958062Y-130377495D01*
X103662314Y-106603099D02*
X103589695Y-105934550D01*
X195343333Y-117280851D02*
X188608476Y-130657697D01*
X154194939Y-131543521D02*
X153777729Y-131487426D01*
X185610287Y-77475583D02*
X185805480Y-77271726D01*
X181743600Y-115963193D02*
X190396016Y-117774853D01*
X141886445Y-51230350D02*
X141224504Y-51998389D01*
X106586897Y-102391630D02*
X106308505Y-97528059D01*
X168569984Y-69920773D02*
X168975266Y-69701635D01*
X123538414Y-135951139D02*
X123555162Y-136529815D01*
X123323265Y-63572239D02*
X123674517Y-64003574D01*
X186632860Y-132240129D02*
X174429010Y-121371215D01*
X191571162Y-81240926D02*
X191316610Y-81791001D01*
X133163677Y-67983740D02*
X131624362Y-60632035D01*
X168882769Y-129097257D02*
X168710510Y-129160581D01*
X195641184Y-92092505D02*
X196358193Y-91898851D01*
X181932616Y-117637909D02*
X182288918Y-117709452D01*
X169112996Y-61004265D02*
X168973539Y-61379431D01*
X163100000Y-122689865D02*
X161072598Y-123745264D01*
X186936391Y-125098374D02*
X186744525Y-125424840D01*
X154127908Y-69554215D02*
X154838581Y-68752965D01*
X119891477Y-136977187D02*
X120513661Y-137431275D01*
X178816257Y-94843610D02*
X179753783Y-93976518D01*
X169809668Y-61969864D02*
X169564995Y-62164702D01*
X140097729Y-127938057D02*
X131662681Y-122650166D01*
X130986751Y-71872051D02*
X131213286Y-71784552D01*
X172312094Y-119796122D02*
X172544646Y-119243932D01*
X130935851Y-61312006D02*
X130623732Y-61097545D01*
X169254794Y-71587279D02*
X169709602Y-71196150D01*
X168494447Y-67995566D02*
X168695758Y-67816005D01*
X113811237Y-99390976D02*
X113830124Y-99453633D01*
X119930897Y-111120774D02*
X120956695Y-111234150D01*
X183772208Y-62575440D02*
X182911483Y-61950579D01*
X155433198Y-146228327D02*
X155860511Y-145664702D01*
X180599681Y-107667811D02*
X179505424Y-107423524D01*
X136506153Y-124742937D02*
X136215576Y-124560776D01*
X120956695Y-111234150D02*
X121248796Y-111615492D01*
X168532020Y-68958047D02*
X168835502Y-68758814D01*
X125380053Y-91039072D02*
X126254735Y-88927401D01*
X122677319Y-118409704D02*
X122808952Y-118683874D01*
X173489779Y-119167729D02*
X177685456Y-111249024D01*
X126969770Y-63829256D02*
X127016169Y-64138568D01*
X113805013Y-122636048D02*
X112056196Y-119971302D01*
X118456478Y-95805060D02*
X118512573Y-96222270D01*
X185547605Y-65568471D02*
X186291011Y-64827354D01*
X104617413Y-95936670D02*
X104618780Y-95460253D01*
X188465868Y-132608674D02*
X187371642Y-132831574D01*
X130725793Y-73810669D02*
X131060880Y-73674819D01*
X118256399Y-84036806D02*
X109603983Y-82225146D01*
X121600000Y-100000000D02*
X122400000Y-100000000D01*
X117682271Y-96402712D02*
X117732164Y-96760831D01*
X127212821Y-79061419D02*
X127687905Y-80203877D01*
X180528263Y-90435071D02*
X179526932Y-90735014D01*
X101443035Y-109552257D02*
X101341794Y-108591740D01*
X131117230Y-70902742D02*
X131289489Y-70839418D01*
X182240129Y-136632860D02*
X171371215Y-124429010D01*
X157803833Y-147222640D02*
X157682734Y-146441655D01*
X125710951Y-88673830D02*
X126790519Y-86600000D01*
X176191824Y-120802070D02*
X175604547Y-120251039D01*
X186678939Y-72333934D02*
X187019179Y-72797091D01*
X169094634Y-131480268D02*
X168875956Y-131239285D01*
X186813130Y-73938806D02*
X191334137Y-80827652D01*
X170070364Y-116841035D02*
X168526197Y-118526197D01*
X112873688Y-131329751D02*
X112362676Y-130628053D01*
X145111150Y-55114266D02*
X145199676Y-55663439D01*
X185463740Y-120475000D02*
X182000095Y-118474138D01*
X181597214Y-82388229D02*
X181060690Y-81532386D01*
X115200333Y-102667091D02*
X105538669Y-105838854D01*
X130046384Y-123698612D02*
X129288221Y-124341440D01*
X186050207Y-124214798D02*
X185741851Y-123959623D01*
X177911367Y-80089962D02*
X185578946Y-71522027D01*
X130422794Y-62688139D02*
X130355681Y-62413997D01*
X169563498Y-128421916D02*
X169013248Y-128127948D01*
X116006709Y-60388272D02*
X114996714Y-60960350D01*
X121542429Y-93115505D02*
X121612455Y-93470140D01*
X186963876Y-99985555D02*
X187220036Y-99900995D01*
X143278069Y-54260042D02*
X145767941Y-66295144D01*
X152700608Y-133048243D02*
X147718068Y-132866987D01*
X102977539Y-109154585D02*
X102182795Y-108569204D01*
X120902742Y-81117230D02*
X120839418Y-81289489D01*
X111391523Y-69342302D02*
X111821021Y-68588631D01*
X131164270Y-123340142D02*
X130046384Y-123698612D01*
X182004433Y-81505552D02*
X182183994Y-81304241D01*
X196435112Y-116888437D02*
X188942893Y-131769561D01*
X126736081Y-116289570D02*
X125404878Y-114200000D01*
X139241118Y-128344630D02*
X131648204Y-123584669D01*
X192548826Y-101973865D02*
X192231464Y-101917913D01*
X195112189Y-82291521D02*
X194797923Y-83146997D01*
X146112602Y-143701126D02*
X146346059Y-144118407D01*
X121849343Y-99981961D02*
X121850000Y-100000000D01*
X150546366Y-136169875D02*
X149536922Y-136133154D01*
X113876287Y-72491588D02*
X122045360Y-79767074D01*
X168408875Y-57248495D02*
X167756999Y-57522951D01*
X188752759Y-133805979D02*
X187560418Y-134062542D01*
X118399393Y-62817133D02*
X118942799Y-63494426D01*
X127310134Y-86899999D02*
X128538216Y-84972297D01*
X130207321Y-72517206D02*
X130856272Y-72841360D01*
X187939642Y-128433968D02*
X187605196Y-129016757D01*
X104948742Y-106873174D02*
X104306073Y-107047710D01*
X167756999Y-57522951D02*
X167529846Y-58115160D01*
X132991917Y-147472874D02*
X134050995Y-147118798D01*
X151483455Y-136188995D02*
X151395453Y-135793278D01*
X152170605Y-135567960D02*
X152063490Y-135094564D01*
X134416873Y-54700061D02*
X133512546Y-54304483D01*
X186242458Y-66071791D02*
X187424559Y-66227791D01*
X179717454Y-119663779D02*
X179361039Y-119334317D01*
X158591740Y-51341794D02*
X141958199Y-50389684D01*
X194797923Y-83146997D02*
X194061020Y-83432615D01*
X134088345Y-69326794D02*
X134134869Y-68768126D01*
X186805313Y-129138670D02*
X186250999Y-128691341D01*
X150000974Y-63050035D02*
X150009285Y-63050337D01*
X153277360Y-55837597D02*
X146732365Y-55462959D01*
X131507691Y-139708658D02*
X134095819Y-131888060D01*
X99963517Y-111518363D02*
X99843193Y-110363200D01*
X125570989Y-78628784D02*
X126273698Y-79290599D01*
X186744525Y-125424840D02*
X186238984Y-125445766D01*
X194336560Y-104800323D02*
X184946925Y-102857756D01*
X186491992Y-100727415D02*
X186188762Y-100609023D01*
X98689028Y-89206090D02*
X99661482Y-88309520D01*
X179016757Y-137605196D02*
X179138670Y-136805313D01*
X112817133Y-68399393D02*
X113494426Y-68942799D01*
X171181673Y-121840684D02*
X170190932Y-121202731D01*
X151876330Y-65019839D02*
X152047269Y-64527638D01*
X121522027Y-135578946D02*
X121049540Y-136048246D01*
X164185326Y-70029077D02*
X168409704Y-72677319D01*
X168894798Y-140034631D02*
X169242924Y-139884442D01*
X169971302Y-62056196D02*
X169809668Y-61969864D01*
X155838854Y-55538669D02*
X155994273Y-54970340D01*
X158643537Y-147143354D02*
X155606359Y-132462785D01*
X124901625Y-63063608D02*
X124575159Y-63255474D01*
X136157384Y-51394089D02*
X134956953Y-50907953D01*
X115937457Y-62439581D02*
X116576941Y-63239852D01*
X101230350Y-91886445D02*
X101998389Y-91224504D01*
X149453633Y-63830124D02*
X150463077Y-63866845D01*
X197073678Y-105654717D02*
X197075434Y-106326650D01*
X183866141Y-102401981D02*
X183828651Y-102162047D01*
X102154947Y-90395659D02*
X118158249Y-93706489D01*
X104887810Y-117708478D02*
X105202076Y-116853002D01*
X196821039Y-90023864D02*
X197686727Y-89791976D01*
X166751519Y-131582244D02*
X166836322Y-132016259D01*
X187019179Y-72797091D02*
X192464248Y-81093971D01*
X150000000Y-128400000D02*
X147524776Y-128291929D01*
X116545721Y-103906737D02*
X104358815Y-107907494D01*
X186817749Y-99192376D02*
X192691548Y-97264106D01*
X144238872Y-54961741D02*
X146455092Y-65674109D01*
X119805103Y-136096799D02*
X119891477Y-136977187D01*
X156386028Y-69236499D02*
X162044775Y-51999106D01*
X176622145Y-137031415D02*
X176676734Y-136427760D01*
X131633726Y-124519172D02*
X131202234Y-124302868D01*
X111950579Y-132911483D02*
X101885194Y-117574435D01*
X110388272Y-66006709D02*
X110960350Y-64996714D01*
X174227534Y-136457634D02*
X174214798Y-136050207D01*
X136671284Y-129564349D02*
X131604772Y-126388177D01*
X162051089Y-128165245D02*
X161648018Y-128430776D01*
X133426715Y-57547879D02*
X133256533Y-56904043D01*
X100560325Y-115045006D02*
X101586617Y-114642461D01*
X198780579Y-109747156D02*
X197845052Y-109604340D01*
X149203695Y-63189970D02*
X149272584Y-63508007D01*
X168208998Y-58683389D02*
X168011077Y-59203250D01*
X110722689Y-67118573D02*
X111247240Y-66194020D01*
X153653940Y-55881592D02*
X153277360Y-55837597D01*
X101720763Y-115497005D02*
X102674708Y-115123692D01*
X148604546Y-64206721D02*
X148793323Y-64585444D01*
X171371215Y-124429010D02*
X170709400Y-123726301D01*
X113005910Y-69630361D02*
X113621713Y-70125729D01*
X131624362Y-60632035D02*
X131516022Y-60210015D01*
X182050445Y-97263354D02*
X182075311Y-96900572D01*
X134628151Y-121953274D02*
X132773292Y-120529991D01*
X148026134Y-57451173D02*
X148082086Y-57768535D01*
X135001427Y-131693803D02*
X135167647Y-131153444D01*
X140339596Y-71220726D02*
X140148712Y-70165012D01*
X167529846Y-58115160D02*
X164092965Y-68500453D01*
X143549587Y-52080775D02*
X142779897Y-52077458D01*
X131289489Y-70839418D02*
X133938588Y-69435810D01*
X119915598Y-84740652D02*
X119775280Y-84941072D01*
X194508224Y-115371716D02*
X195299938Y-115583126D01*
X120454167Y-61725940D02*
X119785937Y-62107912D01*
X138402453Y-69619694D02*
X135229067Y-54463722D01*
X106568837Y-82549608D02*
X106840222Y-81934319D01*
X127016169Y-64138568D02*
X127223305Y-64385435D01*
X168395227Y-73611822D02*
X168721838Y-73771678D01*
X147524776Y-128291929D02*
X145068391Y-127968540D01*
X163205961Y-130180758D02*
X163343805Y-130925623D01*
X167574435Y-51885194D02*
X166657884Y-51346783D01*
X131524173Y-131999120D02*
X131517127Y-131994703D01*
X197526890Y-116496022D02*
X189277310Y-132881426D01*
X185585214Y-72712738D02*
X185999692Y-72293977D01*
X132951384Y-142972930D02*
X136812641Y-131305290D01*
X176126404Y-79689091D02*
X185566409Y-69140604D01*
X121655376Y-137225227D02*
X131360290Y-143594360D01*
X122794332Y-89553039D02*
X122466194Y-90057435D01*
X171461783Y-115027702D02*
X170070364Y-116841035D01*
X132676362Y-58006034D02*
X132068139Y-57701014D01*
X118888966Y-112281750D02*
X119659811Y-112048669D01*
X198114805Y-82425564D02*
X198653216Y-83342115D01*
X180529930Y-85147106D02*
X180377495Y-84958062D01*
X168862916Y-127270314D02*
X164457282Y-129604612D01*
X187275435Y-67449020D02*
X187843371Y-68230231D01*
X118779283Y-93019339D02*
X119796433Y-93260246D01*
X130186148Y-124641434D02*
X129488656Y-125233922D01*
X166853002Y-55202076D02*
X166567384Y-55938979D01*
X113854944Y-101427446D02*
X106718523Y-103770213D01*
X114427321Y-129668683D02*
X113903200Y-130194896D01*
X121578083Y-80436501D02*
X121872051Y-80986751D01*
X118809358Y-116755159D02*
X119873811Y-118453136D01*
X133432615Y-144061020D02*
X137718249Y-131111033D01*
X146900572Y-132075311D02*
X146346318Y-132740284D01*
X108006034Y-82676362D02*
X107701014Y-82068139D01*
X125621384Y-85925000D02*
X124538853Y-85300000D01*
X123674819Y-81060880D02*
X120875176Y-86344781D01*
X132362090Y-68067383D02*
X132290547Y-67711081D01*
X103771867Y-95140976D02*
X103771672Y-94566801D01*
X101649005Y-111261461D02*
X100703276Y-110535310D01*
X185172645Y-63708988D02*
X184993436Y-62426316D01*
X155987897Y-129220901D02*
X155393410Y-129146202D01*
X200338517Y-111690479D02*
X199248449Y-111525947D01*
X145145149Y-70073389D02*
X154100786Y-70399179D01*
X187637323Y-69371946D02*
X195854582Y-81892927D01*
X130745205Y-128412720D02*
X130290397Y-128803849D01*
X181111033Y-87718249D02*
X180340188Y-87951330D01*
X159900457Y-150463863D02*
X160718817Y-149559548D01*
X186810029Y-100796304D02*
X186491992Y-100727415D01*
X178344623Y-62774772D02*
X168639709Y-56405639D01*
X106840222Y-81934319D02*
X112060357Y-71566031D01*
X104656666Y-82719148D02*
X111391523Y-69342302D01*
X146938768Y-133486910D02*
X146713085Y-134126972D01*
X177270314Y-118862916D02*
X179604612Y-114457282D01*
X180084401Y-115259347D02*
X180224719Y-115058927D01*
X126452397Y-78344212D02*
X127212821Y-79061419D01*
X176325482Y-135996425D02*
X169948352Y-128836046D01*
X156293510Y-131841750D02*
X156071715Y-130902280D01*
X102881201Y-115949004D02*
X103762798Y-115604923D01*
X121248796Y-111615492D02*
X125480827Y-118366273D01*
X109108024Y-82096192D02*
X108833191Y-81586670D01*
X168107072Y-54145417D02*
X167358280Y-53707467D01*
X179696331Y-80490832D02*
X185591482Y-73903449D01*
X137997641Y-125739141D02*
X135800000Y-124595121D01*
X153613667Y-68739452D02*
X154246131Y-68006340D01*
X126027288Y-135854033D02*
X125997619Y-136231566D01*
X169091526Y-124434913D02*
X162051089Y-128165245D01*
X125621384Y-114075000D02*
X125924493Y-113899999D01*
X153646073Y-69582637D02*
X154127908Y-69554215D01*
X132326733Y-55748444D02*
X120454167Y-61725940D01*
X142779897Y-52077458D02*
X142196166Y-52777359D01*
X195695516Y-116487453D02*
X195343333Y-117280851D01*
X179668683Y-64427321D02*
X180194896Y-63903200D01*
X135793799Y-70223766D02*
X135907648Y-69468869D01*
X111097545Y-80623732D02*
X111207335Y-80364661D01*
X103172306Y-83994015D02*
X103564887Y-83111562D01*
X147142243Y-65053074D02*
X147268471Y-65604149D01*
X140286627Y-126687270D02*
X137997641Y-125739141D01*
X154792592Y-130769315D02*
X154316289Y-130707018D01*
X117816005Y-118695758D02*
X117626223Y-118907862D01*
X174388202Y-85940293D02*
X174378615Y-85925000D01*
X143928284Y-69097719D02*
X144609754Y-70004891D01*
X176388177Y-81604772D02*
X176228321Y-81278161D01*
X180531130Y-114092351D02*
X181198282Y-114216934D01*
X148082086Y-57768535D02*
X149203695Y-63189970D01*
X138384507Y-128751203D02*
X131633726Y-124519172D01*
X113951753Y-128950459D02*
X113171936Y-128887294D01*
X122841360Y-80856272D02*
X122729685Y-81137083D01*
X146808640Y-131233904D02*
X146386332Y-131260547D01*
X119630361Y-63005910D02*
X120125729Y-63621713D01*
X128680595Y-80151203D02*
X125942517Y-85318910D01*
X131892927Y-145854582D02*
X132641719Y-146292532D01*
X195536277Y-114770932D02*
X196401929Y-115002956D01*
X147929053Y-133704838D02*
X147531219Y-134233535D01*
X181241185Y-81164497D02*
X181481294Y-80891702D01*
X186529815Y-73555162D02*
X186813130Y-73938806D01*
X100383243Y-90992994D02*
X101219420Y-90252843D01*
X178779273Y-109660403D02*
X179834987Y-109851287D01*
X181231873Y-115865130D02*
X181743600Y-115963193D01*
X119582637Y-103646073D02*
X119554215Y-104127908D01*
X143613971Y-130763500D02*
X137955224Y-148000893D01*
X120839418Y-81289489D02*
X119435810Y-83938588D01*
X168835729Y-76659857D02*
X169953615Y-76301387D01*
X105837597Y-103277360D02*
X105462959Y-96732365D01*
X137499254Y-71120737D02*
X137680427Y-70169612D01*
X180564189Y-116061411D02*
X180673205Y-115911654D01*
X195693926Y-92952289D02*
X196337685Y-93396900D01*
X120303668Y-119509167D02*
X114408517Y-126096550D01*
X169274206Y-126189330D02*
X168939119Y-126325180D01*
X126790519Y-113400000D02*
X125710951Y-111326169D01*
X119342302Y-61391523D02*
X118588631Y-61821021D01*
X107160102Y-98140608D02*
X107451173Y-98026134D01*
X144566801Y-53771672D02*
X144139488Y-54335297D01*
X105141833Y-104636993D02*
X105088296Y-104163090D01*
X174370164Y-114090949D02*
X174378615Y-114075000D01*
X182299708Y-104735640D02*
X181543521Y-104194939D01*
X158538748Y-72150735D02*
X163493846Y-75257062D01*
X153777729Y-131487426D02*
X146808640Y-131233904D01*
X114206721Y-98604546D02*
X114585444Y-98793323D01*
X179138670Y-136805313D02*
X178691341Y-136250999D01*
X151206676Y-135414555D02*
X151084926Y-135389467D01*
X153839520Y-143634861D02*
X152170605Y-135567960D01*
X164457282Y-129604612D02*
X164206200Y-129776233D01*
X167450391Y-143431162D02*
X168065680Y-143159777D01*
X105465887Y-96353704D02*
X105893235Y-96082811D01*
X188274059Y-129545832D02*
X187892087Y-130214062D01*
X192845948Y-101676245D02*
X192839897Y-101859391D01*
X114003574Y-73674517D02*
X121163953Y-80051647D01*
X194911703Y-95836909D02*
X195382586Y-104063329D01*
X153770213Y-56718523D02*
X153887397Y-56298873D01*
X173777763Y-63598965D02*
X169704984Y-60926085D01*
X165604923Y-53762798D02*
X160470535Y-69277479D01*
X117168425Y-62628357D02*
X117759870Y-63367139D01*
X154316289Y-130707018D02*
X146353926Y-130417362D01*
X158113554Y-148769649D02*
X158775495Y-148001610D01*
X196228327Y-105433198D02*
X195664702Y-105860511D01*
X179995108Y-105390245D02*
X179926610Y-104854850D01*
X187749195Y-135293510D02*
X186887434Y-134605988D01*
X182050106Y-64439858D02*
X182683771Y-63806094D01*
X120435650Y-113328715D02*
X123611822Y-118395227D01*
X148323754Y-57154051D02*
X148140608Y-57160102D01*
X175380046Y-119015323D02*
X178645034Y-112853153D01*
X183828651Y-102162047D02*
X183683529Y-98172781D01*
X160758881Y-71655369D02*
X168351795Y-76415330D01*
X163904458Y-69117640D02*
X163948207Y-69841726D01*
X150009285Y-63050337D02*
X150014444Y-63036123D01*
X186231566Y-75997619D02*
X186401034Y-76222236D01*
X157047710Y-54306073D02*
X156603099Y-53662314D01*
X153061231Y-66513089D02*
X153286914Y-65873027D01*
X131530571Y-67981121D02*
X131475722Y-67717000D01*
X125404878Y-114200000D02*
X124260858Y-112002358D01*
X149308569Y-136473411D02*
X149192376Y-136817749D01*
X118230231Y-137843371D02*
X132159245Y-146984694D01*
X181198282Y-114216934D02*
X192452120Y-116573284D01*
X119699837Y-80894862D02*
X119933433Y-81247709D01*
X122314543Y-88750975D02*
X122017708Y-89204708D01*
X182881426Y-139277310D02*
X183805979Y-138752759D01*
X187943803Y-80028697D02*
X188030135Y-80190331D01*
X101586617Y-114642461D02*
X119665992Y-108659320D01*
X125257062Y-113493846D02*
X125439223Y-113784423D01*
X166809787Y-67917683D02*
X166688141Y-68304384D01*
X163328715Y-70435650D02*
X168395227Y-73611822D01*
X176096550Y-64408517D02*
X176461585Y-64048860D01*
X114402249Y-124905839D02*
X114097413Y-125217148D01*
X113050035Y-100000974D02*
X113050337Y-100009285D01*
X118752965Y-104838581D02*
X117891110Y-105146382D01*
X178645034Y-112853153D02*
X178879262Y-112500745D01*
X107066836Y-97121282D02*
X113811004Y-98516544D01*
X123903449Y-135591482D02*
X123538414Y-135951139D01*
X106718523Y-103770213D02*
X106298873Y-103887397D01*
X182082316Y-83190212D02*
X181695615Y-83311858D01*
X119371946Y-137637323D02*
X131892927Y-145854582D01*
X166103608Y-148618668D02*
X183993290Y-139611727D01*
X134050995Y-147118798D02*
X134395076Y-146237201D01*
X160724417Y-130107646D02*
X164170148Y-146564329D01*
X118067383Y-82362090D02*
X117711081Y-82290547D01*
X181439334Y-63854647D02*
X181329751Y-62873688D01*
X177954639Y-120232925D02*
X177482793Y-119792678D01*
X108115160Y-117529846D02*
X118500453Y-114092965D01*
X186887434Y-134605988D02*
X172666195Y-121940360D01*
X168634307Y-130105714D02*
X166863476Y-131043978D01*
X122180548Y-62681693D02*
X122092297Y-63383463D01*
X143673349Y-52924565D02*
X143167827Y-53556328D01*
X174641434Y-80186148D02*
X175233922Y-79488656D01*
X105275528Y-118373391D02*
X104887810Y-117708478D01*
X116759182Y-135553873D02*
X116071791Y-136242458D01*
X184395850Y-102731528D02*
X183866141Y-102401981D01*
X179327748Y-113353473D02*
X180180758Y-113205961D01*
X118402785Y-117611770D02*
X118939309Y-118467613D01*
X124776390Y-136380691D02*
X125080521Y-136607082D01*
X130856272Y-72841360D02*
X131137083Y-72729685D01*
X167308116Y-50755083D02*
X166307685Y-50166440D01*
X132068139Y-57701014D02*
X131541904Y-57932000D01*
X184500070Y-98627495D02*
X184519602Y-98443294D01*
X197143354Y-108643537D02*
X182462785Y-105606359D01*
X185999692Y-72293977D02*
X186678939Y-72333934D01*
X118942799Y-63494426D02*
X128913357Y-74689582D01*
X140057435Y-72466194D02*
X140339596Y-71220726D01*
X116951756Y-97299391D02*
X117133012Y-102281931D01*
X154888849Y-144885733D02*
X154800323Y-144336560D01*
X131586670Y-58833191D02*
X131149490Y-59023779D01*
X119933433Y-81247709D02*
X119894285Y-81365692D01*
X180107646Y-110724417D02*
X196564329Y-114170148D01*
X186949964Y-99999025D02*
X186949662Y-99990714D01*
X109609179Y-119109271D02*
X109843827Y-118660997D01*
X153267634Y-144537040D02*
X153646295Y-144534112D01*
X117118573Y-60722689D02*
X116194020Y-61247240D01*
X113494426Y-68942799D02*
X124689582Y-78913357D01*
X131561340Y-129191685D02*
X131392052Y-129116499D01*
X132243000Y-142477048D02*
X132470153Y-141884839D01*
X155766205Y-68563804D02*
X161010455Y-52589033D01*
X130832270Y-76510220D02*
X138750975Y-72314543D01*
X193637485Y-82694999D02*
X192972930Y-82951384D01*
X119215931Y-115898548D02*
X120808314Y-118438659D01*
X152731528Y-134395850D02*
X152401981Y-133866141D01*
X178150656Y-100018038D02*
X178150000Y-100000000D01*
X104041638Y-116401003D02*
X104850889Y-116086154D01*
X199559548Y-110718817D02*
X198546751Y-110565144D01*
X149990714Y-136949662D02*
X149985555Y-136963876D01*
X129767074Y-72045360D02*
X130207321Y-72517206D01*
X125697131Y-118797765D02*
X125358565Y-119813851D01*
X177819451Y-137318306D02*
X177907702Y-136616536D01*
X101394089Y-86157384D02*
X100907953Y-84956953D01*
X102924565Y-93673349D02*
X103556328Y-93167827D01*
X177073232Y-120517497D02*
X176543670Y-120021858D01*
X199015261Y-87685101D02*
X200036482Y-88481636D01*
X152468780Y-65766464D02*
X152667091Y-65200333D01*
X108683389Y-118208998D02*
X109203250Y-118011077D01*
X154067603Y-132998422D02*
X153597287Y-132317728D01*
X117983740Y-83163677D02*
X110632035Y-81624362D01*
X198618668Y-116103608D02*
X189611727Y-133993290D01*
X121183742Y-105156389D02*
X120246216Y-106023481D01*
X117981121Y-81530571D02*
X117717000Y-81475722D01*
X144568968Y-130500408D02*
X144233794Y-131436195D01*
X182911483Y-61950579D02*
X167574435Y-51885194D01*
X133913845Y-145149110D02*
X138623856Y-130916776D01*
X156450412Y-147919224D02*
X157220102Y-147922541D01*
X113112565Y-65394011D02*
X127333804Y-78059639D01*
X151917913Y-142231464D02*
X150796304Y-136810029D01*
X148219477Y-142372592D02*
X148312164Y-142638888D01*
X159264985Y-70473067D02*
X159424779Y-71700007D01*
X119098413Y-115757579D02*
X119215931Y-115898548D01*
X179564349Y-86671284D02*
X176388177Y-81604772D01*
X164090949Y-124370164D02*
X164075000Y-124378615D01*
X135800000Y-124595121D02*
X133710429Y-123263918D01*
X161615492Y-71248796D02*
X168366273Y-75480827D01*
X175424840Y-136744525D02*
X175445766Y-136238984D01*
X168483977Y-139789984D02*
X168894798Y-140034631D01*
X199092046Y-115043046D02*
X198618668Y-116103608D01*
X136812641Y-131305290D02*
X137023436Y-130611273D01*
X100907953Y-84956953D02*
X101381331Y-83896391D01*
X192067999Y-118458095D02*
X187605225Y-127322103D01*
X179220901Y-105987897D02*
X179146202Y-105393410D01*
X121655369Y-110758881D02*
X126415330Y-118351795D01*
X121784552Y-81213286D02*
X119915598Y-84740652D01*
X178879262Y-112500745D02*
X179830387Y-112319572D01*
X187318306Y-127819451D02*
X186616536Y-127907702D01*
X168639709Y-56405639D02*
X168058677Y-56068152D01*
X180769315Y-104792592D02*
X180707018Y-104316289D01*
X184980160Y-98123669D02*
X185472361Y-97952730D01*
X102080775Y-93549587D02*
X102077458Y-92779897D01*
X148443294Y-134519602D02*
X148123669Y-134980160D01*
X148172781Y-133683529D02*
X147929053Y-133704838D01*
X165757579Y-69098413D02*
X165898548Y-69215931D01*
X164206200Y-129776233D02*
X164092351Y-130531130D01*
X143126825Y-145051257D02*
X142952289Y-145693926D01*
X123800000Y-100000000D02*
X123899698Y-97716519D01*
X192101621Y-98298426D02*
X192372592Y-98219477D01*
X158960927Y-124619946D02*
X156781058Y-125307256D01*
X158837495Y-150455861D02*
X159900457Y-150463863D01*
X114536259Y-120475000D02*
X118000879Y-118475826D01*
X134956953Y-50907953D02*
X133896391Y-51381331D01*
X176543670Y-120021858D02*
X176189330Y-119274206D01*
X181644899Y-82433049D02*
X181597214Y-82388229D01*
X192464248Y-81093971D02*
X192751504Y-81591124D01*
X173448959Y-79087786D02*
X185547605Y-65568471D01*
X180417362Y-96353926D02*
X180445784Y-95872091D01*
X134972297Y-78538216D02*
X136899999Y-77310134D01*
X159424779Y-71700007D02*
X159902270Y-72061942D01*
X153597287Y-132317728D02*
X153239168Y-132267835D01*
X155620046Y-54402073D02*
X155048820Y-54338996D01*
X117711081Y-82290547D02*
X111660087Y-81023578D01*
X150807623Y-63182250D02*
X152735893Y-57308451D01*
X157586151Y-52922554D02*
X156820280Y-52840395D01*
X131604772Y-126388177D02*
X131278161Y-126228321D01*
X112729191Y-73789760D02*
X112968584Y-73377854D01*
X193431162Y-117450391D02*
X193159777Y-118065680D01*
X149272584Y-63508007D02*
X149390976Y-63811237D01*
X109203250Y-118011077D02*
X118306196Y-114998572D01*
X131247709Y-69933433D02*
X131365692Y-69894285D01*
X112439581Y-65937457D02*
X113239852Y-66576941D01*
X119326794Y-84088345D02*
X118768126Y-84134869D01*
X149999025Y-136949964D02*
X149990714Y-136949662D01*
X113830124Y-99453633D02*
X113866845Y-100463077D01*
X179146202Y-105393410D02*
X178784279Y-95444499D01*
X199244916Y-82691883D02*
X199833559Y-83692314D01*
X181220716Y-106980660D02*
X180203566Y-106739753D01*
X149981961Y-71849343D02*
X150000000Y-71850000D01*
X166086154Y-54850889D02*
X161376143Y-69083223D01*
X114000307Y-127706022D02*
X113321060Y-127666065D01*
X171840684Y-121181673D02*
X171202731Y-120190932D01*
X144233794Y-131436195D02*
X138989544Y-147410966D01*
X196564329Y-114170148D02*
X197503919Y-114422785D01*
X168011077Y-59203250D02*
X164998572Y-68306196D01*
X119619694Y-88402453D02*
X104463722Y-85229067D01*
X168797765Y-75697131D02*
X169813851Y-75358565D01*
X188902454Y-119376267D02*
X188792664Y-119635338D01*
X180180758Y-113205961D02*
X180925623Y-113343805D01*
X118006340Y-104246131D02*
X117218416Y-104526560D01*
X184126972Y-96713085D02*
X195051257Y-93126825D01*
X113619308Y-125223609D02*
X113392917Y-124919478D01*
X126718596Y-80334356D02*
X126510220Y-80832270D01*
X102856645Y-91356462D02*
X117537214Y-94393640D01*
X189789984Y-118483977D02*
X190034631Y-118894798D01*
X172874646Y-136267557D02*
X173030229Y-136170743D01*
X192231464Y-101917913D02*
X186810029Y-100796304D01*
X186505573Y-131057200D02*
X175310417Y-121086642D01*
X144065449Y-146410304D02*
X155654717Y-147073678D01*
X115674109Y-96455092D02*
X116302863Y-96600434D01*
X125480827Y-118366273D02*
X125697131Y-118797765D01*
X162470675Y-130652964D02*
X165371716Y-144508224D01*
X179874270Y-136378286D02*
X170802070Y-126191824D01*
X177706022Y-64000307D02*
X177666065Y-63321060D01*
X150796304Y-136810029D02*
X150727415Y-136491992D01*
X131791001Y-141316610D02*
X131988922Y-140796749D01*
X168424181Y-71742817D02*
X168645911Y-71846226D01*
X197919224Y-106450412D02*
X197922541Y-107220102D01*
X117700291Y-95264359D02*
X118456478Y-95805060D01*
X195597926Y-94379953D02*
X195661003Y-94951179D01*
X148123669Y-134980160D02*
X147952730Y-135472361D01*
X136600000Y-123209480D02*
X134628151Y-121953274D01*
X146093262Y-133454278D02*
X142092505Y-145641184D01*
X119401138Y-80620792D02*
X119699837Y-80894862D01*
X130290397Y-128803849D02*
X122712738Y-135585214D01*
X125658559Y-120711778D02*
X114446126Y-133240817D01*
X165583126Y-145299938D02*
X166487453Y-145695516D01*
X101346783Y-116657884D02*
X101720763Y-115497005D01*
X110210015Y-81516022D02*
X109965368Y-81105201D01*
X160192880Y-70201982D02*
X160329464Y-71328351D01*
X157220102Y-147922541D02*
X157803833Y-147222640D01*
X119775280Y-84941072D02*
X119118498Y-85021259D01*
X168976421Y-138339912D02*
X169064148Y-138687993D01*
X194461330Y-94161145D02*
X195029659Y-94005726D01*
X165524515Y-147959869D02*
X166496022Y-147526890D01*
X115053074Y-97142243D02*
X115604149Y-97268471D01*
X186169875Y-100546366D02*
X186133154Y-99536922D01*
X129748960Y-74395452D02*
X130595314Y-74779978D01*
X107522951Y-117756999D02*
X108115160Y-117529846D01*
X186188762Y-100609023D02*
X186169875Y-100546366D01*
X138989544Y-147410966D02*
X138738538Y-148350994D01*
X194537040Y-103267634D02*
X194534112Y-103646295D01*
X195029659Y-94005726D02*
X195597926Y-94379953D01*
X182998422Y-104067603D02*
X182317728Y-103597287D01*
X102926321Y-94345282D02*
X102924565Y-93673349D01*
X122797091Y-137019179D02*
X131093971Y-142464248D01*
X106904043Y-83256533D02*
X106568837Y-82549608D01*
X151827218Y-66316470D02*
X152070946Y-66295161D01*
X111312006Y-80935851D02*
X111097545Y-80623732D01*
X185951139Y-73538414D02*
X186529815Y-73555162D01*
X186238984Y-125445766D02*
X185869138Y-125142553D01*
X133031077Y-55436660D02*
X132326733Y-55748444D01*
X124198036Y-95450417D02*
X124692743Y-93218941D01*
X102182795Y-108569204D02*
X102091094Y-107706010D01*
X169564995Y-62164702D02*
X169454770Y-62467521D01*
X173726301Y-120709400D02*
X173281403Y-119665643D01*
X197075434Y-106326650D02*
X196443671Y-106832172D01*
X122677896Y-62394774D02*
X122180548Y-62681693D01*
X125358565Y-119813851D02*
X124766077Y-120511343D01*
X182267835Y-103239168D02*
X182050445Y-97263354D01*
X121328351Y-110329464D02*
X121655369Y-110758881D01*
X185614564Y-122776694D02*
X181480268Y-119094634D01*
X182561577Y-118582581D02*
X187311860Y-119577205D01*
X146346318Y-132740284D02*
X146093262Y-133454278D01*
X180882359Y-86095541D02*
X180158273Y-86051792D01*
X118939309Y-118467613D02*
X118958047Y-118532020D01*
X102922554Y-107586151D02*
X102840395Y-106820280D01*
X151556705Y-65480397D02*
X151876330Y-65019839D01*
X171202731Y-120190932D02*
X171319404Y-119848796D01*
X122333934Y-136678939D02*
X122797091Y-137019179D01*
X186994089Y-130369638D02*
X186378286Y-129874270D01*
X169108297Y-68518705D02*
X173715127Y-64395981D01*
X127223305Y-64385435D02*
X130905365Y-68519731D01*
X131988922Y-140796749D02*
X135001427Y-131693803D01*
X121846226Y-118645911D02*
X121587279Y-119254794D01*
X102496080Y-85577214D02*
X102040130Y-84475484D01*
X198658205Y-91408259D02*
X199610315Y-108041800D01*
X151701573Y-57898378D02*
X151780522Y-57627407D01*
X116071791Y-136242458D02*
X116227791Y-137424559D01*
X133244840Y-131190641D02*
X131546863Y-130126188D01*
X151780522Y-57627407D02*
X151687835Y-57361111D01*
X182373776Y-81092137D02*
X185610287Y-77475583D01*
X130151203Y-78680595D02*
X135318910Y-75942517D01*
X174905839Y-64402249D02*
X175217148Y-64097413D01*
X154526560Y-67218416D02*
X158941815Y-53768887D01*
X111004265Y-119112996D02*
X111379431Y-118973539D01*
X178784279Y-95444499D02*
X178816257Y-94843610D01*
X102040130Y-84475484D02*
X102473109Y-83503977D01*
X187490443Y-99812199D02*
X192101621Y-98298426D01*
X146600434Y-66302863D02*
X147000365Y-66908064D01*
X156023481Y-70246216D02*
X156386028Y-69236499D01*
X118355100Y-117566950D02*
X118402785Y-117611770D01*
X196827693Y-116005984D02*
X196435112Y-116888437D01*
X104961741Y-94238872D02*
X115674109Y-96455092D01*
X129061419Y-77212821D02*
X130203877Y-77687905D01*
X105538669Y-105838854D02*
X104970340Y-105994273D01*
X131023578Y-61660087D02*
X130935851Y-61312006D01*
X175098374Y-136936391D02*
X175424840Y-136744525D01*
X146346059Y-144118407D02*
X146722639Y-144162402D01*
X106298873Y-103887397D02*
X105881592Y-103653940D01*
X151859391Y-142839897D02*
X151973865Y-142548826D01*
X187031415Y-126622145D02*
X186427760Y-126676734D01*
X147000365Y-66908064D02*
X147299391Y-66951756D01*
X198769649Y-108113554D02*
X198001610Y-108775495D01*
X197817204Y-91430795D02*
X197908905Y-92293989D01*
X104338996Y-105048820D02*
X103771867Y-95140976D01*
X178344630Y-89241118D02*
X173584669Y-81648204D01*
X132825931Y-58575931D02*
X132676362Y-58006034D01*
X165041937Y-69622504D02*
X168424181Y-71742817D01*
X197472874Y-82991917D02*
X197118798Y-84050995D01*
X122031459Y-104931608D02*
X121708070Y-102475223D01*
X129197929Y-73808175D02*
X129748960Y-74395452D01*
X167616036Y-68033299D02*
X167566950Y-68355100D01*
X193281476Y-96229786D02*
X193701126Y-96112602D01*
X177508411Y-136123712D02*
X170232925Y-127954639D01*
X169509167Y-70303668D02*
X176096550Y-64408517D01*
X133512546Y-54304483D02*
X132719148Y-54656666D01*
X146222270Y-68512573D02*
X153191359Y-68766095D01*
X131662681Y-122650166D02*
X131126307Y-122377415D01*
X172636048Y-63805013D02*
X169971302Y-62056196D01*
X131137083Y-72729685D02*
X135542717Y-70395387D01*
X122466194Y-90057435D02*
X121220726Y-90339596D01*
X180377495Y-84958062D02*
X178257182Y-81575818D01*
X178150000Y-100000000D02*
X176200000Y-100000000D01*
X114097413Y-125217148D02*
X113619308Y-125223609D01*
X139529464Y-130722520D02*
X139807119Y-129798017D01*
X197410966Y-88989544D02*
X198350994Y-88738538D01*
X179414961Y-87861163D02*
X179157776Y-87527896D01*
X101999106Y-112044775D02*
X100984738Y-112314898D01*
X138879225Y-130069102D02*
X138765849Y-129043304D01*
X167611770Y-68402785D02*
X168467613Y-68939309D01*
X182866987Y-97718068D02*
X182890075Y-97414813D01*
X154735640Y-132299708D02*
X154194939Y-131543521D01*
X131505552Y-132004433D02*
X131304241Y-132183994D01*
X147247156Y-56312995D02*
X147054472Y-56672204D01*
X145767941Y-66295144D02*
X145932396Y-67001577D01*
X113850870Y-100528224D02*
X113526588Y-100691430D01*
X118846555Y-114832352D02*
X119470069Y-114852893D01*
X107154051Y-98323754D02*
X107160102Y-98140608D01*
X165002956Y-146401929D02*
X166005984Y-146827693D01*
X162044775Y-51999106D02*
X162314898Y-50984738D01*
X122926767Y-79482502D02*
X123456329Y-79978141D01*
X154940835Y-55634607D02*
X154636993Y-55141833D01*
X119701635Y-118975266D02*
X119411187Y-119308732D01*
X114706489Y-62250804D02*
X115394011Y-63112565D01*
X183805979Y-138752759D02*
X184062542Y-137560418D01*
X135621955Y-75781951D02*
X135909050Y-75629835D01*
X174919478Y-63392917D02*
X169438665Y-59795974D01*
X195381219Y-104539746D02*
X194885733Y-104888849D01*
X131590295Y-127322680D02*
X131316125Y-127191047D01*
X122150735Y-108538748D02*
X125257062Y-113493846D01*
X159552257Y-51443035D02*
X158591740Y-51341794D01*
X155654717Y-147073678D02*
X156326650Y-147075434D01*
X178165245Y-112051089D02*
X178430776Y-111648018D01*
X185902586Y-74782851D02*
X186380691Y-74776390D01*
X100984738Y-112314898D02*
X99963517Y-111518363D01*
X124816237Y-109166139D02*
X124113187Y-106936350D01*
X197592381Y-113569364D02*
X198605910Y-113842615D01*
X188030135Y-80190331D02*
X187835297Y-80435004D01*
X117626223Y-118907862D02*
X114389712Y-122524416D01*
X182075311Y-96900572D02*
X182740284Y-96346318D01*
X186145055Y-98572553D02*
X193281476Y-96229786D01*
X126284872Y-135604018D02*
X126027288Y-135854033D01*
X182781583Y-95473439D02*
X196231112Y-91058184D01*
X179361039Y-119334317D02*
X179097257Y-118882769D01*
X168660997Y-59843827D02*
X168492308Y-60291341D01*
X135829851Y-53435670D02*
X135577214Y-52496080D01*
X119819241Y-86794038D02*
X119074376Y-86656194D01*
X170475000Y-135463740D02*
X168474138Y-132000095D01*
X168366273Y-75480827D02*
X168797765Y-75697131D01*
X147936509Y-64905435D02*
X148195670Y-65359651D01*
X178257182Y-81575818D02*
X178153773Y-81354088D01*
X154232058Y-133704855D02*
X154067603Y-132998422D01*
X139464689Y-149296723D02*
X140522529Y-149407505D01*
X141958199Y-50389684D02*
X140992994Y-50383243D01*
X160546792Y-129129644D02*
X160724417Y-130107646D01*
X120735790Y-108323751D02*
X121912774Y-108266637D01*
X182016259Y-116836322D02*
X189367964Y-118375637D01*
X175310417Y-121086642D02*
X174665424Y-120480219D01*
X168607947Y-70883500D02*
X169115030Y-70644457D01*
X145264359Y-67700291D02*
X145805060Y-68456478D01*
X160565144Y-148546751D02*
X156980660Y-131220716D01*
X126254735Y-88927401D02*
X127310134Y-86899999D01*
X166573284Y-142452120D02*
X166743466Y-143095956D01*
X158101148Y-53641806D02*
X157586151Y-52922554D01*
X174250712Y-119535164D02*
X174434913Y-119091526D01*
X145195465Y-143871403D02*
X145059164Y-144365392D01*
X164059706Y-75611797D02*
X164075000Y-75621384D01*
X170093379Y-77244208D02*
X170912213Y-76551040D01*
X195149110Y-83913845D02*
X180916776Y-88623856D01*
X117917683Y-116809787D02*
X118304384Y-116688141D01*
X155860511Y-145664702D02*
X155761127Y-145038258D01*
X160535310Y-50703276D02*
X159477470Y-50592494D01*
X118429823Y-82382890D02*
X118067383Y-82362090D01*
X164998572Y-68306196D02*
X164832352Y-68846555D01*
X127475583Y-135610287D02*
X127271726Y-135805480D01*
X181424529Y-84239752D02*
X180901586Y-84242420D01*
X103771672Y-94566801D02*
X104335297Y-94139488D01*
X113866845Y-100463077D02*
X113850870Y-100528224D01*
X130540529Y-139210477D02*
X130887003Y-138995734D01*
X164770932Y-145536277D02*
X165002956Y-146401929D01*
X137680427Y-70169612D02*
X137529324Y-69347035D01*
X146722639Y-144162402D02*
X153267634Y-144537040D01*
X112774772Y-128344623D02*
X106405639Y-118639709D01*
X122045360Y-79767074D02*
X122517206Y-80207321D01*
X165058927Y-130224719D02*
X164978740Y-130881501D01*
X178127948Y-119013248D02*
X178215447Y-118786713D01*
X167709452Y-132288918D02*
X168976421Y-138339912D01*
X104306073Y-107047710D02*
X103662314Y-106603099D01*
X131417418Y-67438422D02*
X130422794Y-62688139D01*
X102777359Y-92196166D02*
X103558344Y-92317265D01*
X195664702Y-105860511D02*
X195038258Y-105761127D01*
X130894862Y-69699837D02*
X131247709Y-69933433D01*
X121354965Y-87146846D02*
X121120737Y-87499254D01*
X174302868Y-81202234D02*
X174641434Y-80186148D01*
X139275582Y-69892353D02*
X135829851Y-53435670D01*
X119435810Y-83938588D02*
X119326794Y-84088345D01*
X135814673Y-129970922D02*
X131590295Y-127322680D01*
X188339912Y-118976421D02*
X188687993Y-119064148D01*
X166567384Y-55938979D02*
X162281750Y-68888966D01*
X184431528Y-64452394D02*
X185172645Y-63708988D01*
X104850889Y-116086154D02*
X119083223Y-111376143D01*
X134997043Y-53598070D02*
X133994015Y-53172306D01*
X131105201Y-59965368D02*
X130757075Y-60115557D01*
X173547602Y-121655787D02*
X172787178Y-120938580D01*
X143396900Y-146337685D02*
X144065449Y-146410304D01*
X185566409Y-69140604D02*
X186145352Y-68560665D01*
X180069102Y-88879225D02*
X179043304Y-88765849D01*
X131365692Y-69894285D02*
X133136523Y-68956021D01*
X131164497Y-131241185D02*
X130891702Y-131481294D01*
X121049540Y-136048246D02*
X121112705Y-136828063D01*
X179526932Y-90735014D02*
X178299992Y-90575220D01*
X141676248Y-129264209D02*
X141733362Y-128087225D01*
X178457570Y-106884494D02*
X178387544Y-106529859D01*
X182740284Y-96346318D02*
X183454278Y-96093262D01*
X186193905Y-67316228D02*
X187275435Y-67449020D01*
X140366810Y-48698592D02*
X139206090Y-48689028D01*
X191334137Y-80827652D02*
X191571162Y-81240926D01*
X133337734Y-131273242D02*
X133244840Y-131190641D01*
X118399005Y-94596321D02*
X119230684Y-95207407D01*
X183704838Y-97929053D02*
X184233535Y-97531219D01*
X181966700Y-82383963D02*
X181644899Y-82433049D01*
X135167647Y-131153444D02*
X135147106Y-130529930D01*
X125094160Y-135597750D02*
X124782851Y-135902586D01*
X123771678Y-118721838D02*
X123472922Y-119534323D01*
X169813851Y-75358565D02*
X170511343Y-74766077D01*
X170310908Y-73873595D02*
X180859395Y-64433590D01*
X125629835Y-85909050D02*
X125621384Y-85925000D01*
X196443671Y-106832172D02*
X195739957Y-106721930D01*
X175265594Y-81240197D02*
X175584256Y-80325912D01*
X113749000Y-71308658D02*
X122926767Y-79482502D01*
X119083223Y-111376143D02*
X119930897Y-111120774D01*
X159902270Y-72061942D02*
X168337318Y-77349833D01*
X127455353Y-80756067D02*
X122794332Y-89553039D01*
X169535164Y-124250712D02*
X169091526Y-124434913D01*
X159007005Y-149616756D02*
X159747156Y-148780579D01*
X159633189Y-151301407D02*
X160793909Y-151310971D01*
X191424068Y-117174068D02*
X191993965Y-117323637D01*
X116302863Y-96600434D02*
X116908064Y-97000365D01*
X118758814Y-118835502D02*
X118518705Y-119108297D01*
X124689582Y-78913357D02*
X125334575Y-79519780D01*
X185854033Y-76027288D02*
X186231566Y-75997619D01*
X175604547Y-120251039D02*
X175220021Y-119404685D01*
X139807119Y-129798017D02*
X139670535Y-128671648D01*
X120223766Y-85793799D02*
X119468869Y-85907648D01*
X113321060Y-127666065D02*
X112980820Y-127202908D01*
X143706489Y-68158249D02*
X143928284Y-69097719D01*
X101998389Y-91224504D02*
X102856645Y-91356462D01*
X113063608Y-74901625D02*
X113255474Y-74575159D01*
X180203566Y-106739753D02*
X179220901Y-105987897D01*
X197325291Y-84876307D02*
X180528263Y-90435071D01*
X144596321Y-68399005D02*
X145207407Y-69230684D01*
X137948910Y-71834754D02*
X138351981Y-71569223D01*
X131202234Y-124302868D02*
X130186148Y-124641434D01*
X143470140Y-71612455D02*
X149314545Y-71825064D01*
X168524277Y-132282999D02*
X168582581Y-132561577D01*
X113036123Y-100014444D02*
X112779963Y-100099004D01*
X166688141Y-68304384D02*
X166662265Y-68726757D01*
X123199999Y-100000000D02*
X123301982Y-97664226D01*
X161518363Y-49963517D02*
X160363200Y-49843193D01*
X196441655Y-107682734D02*
X183083820Y-104919208D01*
X167637909Y-131932616D02*
X167709452Y-132288918D01*
X118563804Y-105766205D02*
X102589033Y-111010455D01*
X131240197Y-125265594D02*
X130325912Y-125584256D01*
X140023864Y-146821039D02*
X139791976Y-147686727D01*
X115946801Y-138255468D02*
X132691883Y-149244916D01*
X114452394Y-134431528D02*
X113708988Y-135172645D01*
X149471775Y-136149129D02*
X149308569Y-136473411D01*
X170711778Y-75658559D02*
X183240817Y-64446126D01*
X144345282Y-52926321D02*
X143673349Y-52924565D01*
X134242420Y-130901586D02*
X134101451Y-130784068D01*
X152047269Y-64527638D02*
X154804534Y-56128596D01*
X180902280Y-106071715D02*
X179995108Y-105390245D01*
X185604018Y-76284872D02*
X185854033Y-76027288D01*
X147718068Y-132866987D02*
X147414813Y-132890075D01*
X180784068Y-84101451D02*
X179191685Y-81561340D01*
X179970922Y-85814673D02*
X177322680Y-81590295D01*
X187182866Y-131600606D02*
X186505573Y-131057200D01*
X104260042Y-93278069D02*
X116295144Y-95767941D01*
X152063490Y-135094564D02*
X151804329Y-134640348D01*
X190950000Y-100000000D02*
X186949964Y-99999025D01*
X100440451Y-89281182D02*
X101453248Y-89434855D01*
X168645911Y-71846226D02*
X169254794Y-71587279D01*
X172377415Y-81126307D02*
X172755791Y-79906620D01*
X99536136Y-90099542D02*
X100440451Y-89281182D01*
X121850000Y-100000000D02*
X123800000Y-100000000D01*
X122293977Y-135999692D02*
X122333934Y-136678939D01*
X112394774Y-72677896D02*
X112681693Y-72180548D01*
X120672251Y-86646526D02*
X119819241Y-86794038D01*
X126510220Y-80832270D02*
X122314543Y-88750975D01*
X198653216Y-83342115D02*
X198279236Y-84502994D01*
X172650166Y-81662681D02*
X172377415Y-81126307D01*
X141039072Y-75380053D02*
X143218941Y-74692743D01*
X119796433Y-93260246D02*
X120779098Y-94012102D01*
X185316612Y-99082209D02*
X185334366Y-98957535D01*
X186760147Y-133423058D02*
X173547602Y-121655787D01*
X107336198Y-101505899D02*
X107154051Y-98323754D01*
X122567706Y-107350460D02*
X122031459Y-104931608D01*
X135577214Y-52496080D02*
X134475484Y-52040130D01*
X179600820Y-95899213D02*
X179631020Y-95357850D01*
X177322680Y-81590295D02*
X177191047Y-81316125D01*
X106365138Y-96160479D02*
X114432039Y-97829394D01*
X113189970Y-99203695D02*
X113508007Y-99272584D01*
X120983242Y-62394803D02*
X120861329Y-63194686D01*
X130203877Y-77687905D02*
X130756067Y-77455353D01*
X133342115Y-148653216D02*
X134502994Y-148279236D01*
X170251039Y-125604547D02*
X169404685Y-125220021D01*
X141733362Y-128087225D02*
X141461251Y-127849264D01*
X160795291Y-127982291D02*
X160546792Y-129129644D01*
X191884839Y-82470153D02*
X181499546Y-85907034D01*
X112628357Y-67168425D02*
X113367139Y-67759870D01*
X132470153Y-141884839D02*
X135907034Y-131499546D01*
X148312164Y-142638888D02*
X148494100Y-142663801D01*
X120494575Y-92576475D02*
X121542429Y-93115505D01*
X165898548Y-69215931D02*
X168438659Y-70808314D01*
X125439223Y-113784423D02*
X125611797Y-114059706D01*
X101381331Y-83896391D02*
X110388272Y-66006709D01*
X140735014Y-129526932D02*
X140575220Y-128299992D01*
X149192376Y-136817749D02*
X147264106Y-142691548D01*
X173340142Y-81164270D02*
X173698612Y-80046384D01*
X114385435Y-77223305D02*
X118519731Y-80905365D01*
X148195670Y-65359651D02*
X148376512Y-65390940D01*
X186170743Y-123030229D02*
X185861431Y-122983830D01*
X186378286Y-129874270D02*
X176191824Y-120802070D01*
X104970340Y-105994273D02*
X104402073Y-105620046D01*
X181050848Y-118558104D02*
X181523767Y-117665540D01*
X159747156Y-148780579D02*
X159604340Y-147845052D01*
X118760714Y-81124043D02*
X118964124Y-81378188D01*
X185578946Y-71522027D02*
X186048246Y-71049540D01*
X131591124Y-142751504D02*
X132243000Y-142477048D01*
X119388726Y-112976563D02*
X120213382Y-113043522D01*
X172666195Y-121940360D02*
X171840684Y-121181673D01*
X178421916Y-119563498D02*
X178127948Y-119013248D01*
X114827354Y-136291011D02*
X115006563Y-137573683D01*
X113392917Y-124919478D02*
X109795974Y-119438665D01*
X146760831Y-67732164D02*
X152736645Y-67949554D01*
X170709400Y-123726301D02*
X169665643Y-123281403D01*
X169115030Y-70644457D02*
X169509167Y-70303668D01*
X152735893Y-57308451D02*
X152833960Y-56963140D01*
X152162047Y-133828651D02*
X148172781Y-133683529D01*
X118111939Y-115904180D02*
X118575470Y-115760247D01*
X185293510Y-137749195D02*
X184605988Y-136887434D01*
X132382890Y-68429823D02*
X132362090Y-68067383D01*
X181260547Y-96386332D02*
X181993659Y-95753868D01*
X122981113Y-120110472D02*
X114427321Y-129668683D01*
X122017708Y-89204708D02*
X120870355Y-89453207D01*
X152471940Y-143691494D02*
X152752843Y-143687004D01*
X131149490Y-59023779D02*
X123789760Y-62729191D01*
X162472103Y-70842223D02*
X168380750Y-74546325D01*
X164832352Y-68846555D02*
X164852893Y-69470069D01*
X193931847Y-81941322D02*
X193637485Y-82694999D01*
X161120774Y-69930897D02*
X161234150Y-70956695D01*
X147528059Y-56308505D02*
X147247156Y-56312995D01*
X145473439Y-132781583D02*
X141058184Y-146231112D01*
X163655218Y-129124823D02*
X163353473Y-129327748D01*
X138566817Y-70519984D02*
X138402453Y-69619694D01*
X124779978Y-80595314D02*
X124619953Y-80984676D01*
X124554233Y-63761015D02*
X124857446Y-64130861D01*
X177202908Y-62980820D02*
X168906028Y-57535751D01*
X134954993Y-149439674D02*
X135357538Y-148413382D01*
X192452120Y-116573284D02*
X193095956Y-116743466D01*
X183683529Y-98172781D02*
X183704838Y-97929053D01*
X152401981Y-133866141D02*
X152162047Y-133828651D01*
X184799666Y-97332908D02*
X194461330Y-94161145D01*
X194365392Y-95059164D02*
X194858166Y-95363006D01*
X158266637Y-71912774D02*
X158538748Y-72150735D01*
X159976135Y-53178960D02*
X160208023Y-52313272D01*
X178412720Y-80745205D02*
X178803849Y-80290397D01*
X134134869Y-68768126D02*
X134036806Y-68256399D01*
X105663439Y-95199676D02*
X115053074Y-97142243D01*
X114536259Y-79524999D02*
X117999904Y-81525861D01*
X103768887Y-108941815D02*
X102977539Y-109154585D01*
X120331316Y-135572678D02*
X119805103Y-136096799D01*
X154804534Y-56128596D02*
X154940835Y-55634607D01*
X180588812Y-80691267D02*
X185597750Y-75094160D01*
X141340679Y-130334007D02*
X141676248Y-129264209D01*
X149082209Y-135316612D02*
X148957535Y-135334366D01*
X194724471Y-81626608D02*
X195112189Y-82291521D01*
X142196166Y-52777359D02*
X142317265Y-53558344D01*
X189611727Y-133993290D02*
X189039649Y-135003285D01*
X180340188Y-87951330D02*
X179414961Y-87861163D01*
X111969864Y-119809668D02*
X112164702Y-119564995D01*
X118964124Y-81378188D02*
X118949151Y-81441895D01*
X132425564Y-148114805D02*
X133342115Y-148653216D01*
X162500745Y-128879262D02*
X162319572Y-129830387D01*
X168058677Y-56068152D02*
X167305000Y-56362514D01*
X144012102Y-70779098D02*
X144606589Y-70853797D01*
X198000893Y-87955224D02*
X199015261Y-87685101D01*
X169910037Y-72088632D02*
X178477972Y-64421053D01*
X166968922Y-144563339D02*
X167673266Y-144251555D01*
X145161418Y-131247034D02*
X144853617Y-132108889D01*
X106621352Y-102670887D02*
X106586897Y-102391630D01*
X179834987Y-109851287D02*
X197592381Y-113569364D01*
X192663801Y-98494100D02*
X192845948Y-101676245D01*
X179604612Y-114457282D02*
X179776233Y-114206200D01*
X100703276Y-110535310D02*
X100592494Y-109477470D01*
X133158964Y-79929635D02*
X134972297Y-78538216D01*
X108428837Y-118759073D02*
X108683389Y-118208998D01*
X162314898Y-50984738D02*
X161518363Y-49963517D01*
X199296723Y-89464689D02*
X199407505Y-90522529D01*
X123789760Y-62729191D02*
X123377854Y-62968584D01*
X180652964Y-112470675D02*
X194508224Y-115371716D01*
X106519827Y-84027499D02*
X105802052Y-83836703D01*
X168759802Y-74734405D02*
X169674087Y-74415743D01*
X190156172Y-81339002D02*
X189708658Y-81507691D01*
X102313272Y-110208023D02*
X101443035Y-109552257D01*
X123899698Y-97716519D02*
X124198036Y-95450417D01*
X112575440Y-133772208D02*
X111950579Y-132911483D01*
X123611822Y-118395227D02*
X123771678Y-118721838D01*
X182831574Y-137371642D02*
X182240129Y-136632860D01*
X197159604Y-93179719D02*
X197919224Y-106450412D01*
X161261461Y-51649005D02*
X160535310Y-50703276D01*
X123312729Y-109713372D02*
X122567706Y-107350460D01*
X150014444Y-63036123D02*
X150099004Y-62779963D01*
X122808952Y-118683874D02*
X122530100Y-119394558D01*
X130051647Y-71163953D02*
X130436501Y-71578083D01*
X201310971Y-110793909D02*
X200338517Y-111690479D01*
X186601974Y-123986510D02*
X186457634Y-124227534D01*
X138474052Y-50751550D02*
X142332188Y-69400318D01*
X194885733Y-104888849D02*
X194336560Y-104800323D01*
X169635338Y-138792664D02*
X173986510Y-136601974D01*
X121308658Y-63749000D02*
X129482502Y-72926767D01*
X174560776Y-86215576D02*
X174388202Y-85940293D01*
X165027702Y-121461783D02*
X163100000Y-122689865D01*
X138927401Y-76254735D02*
X141039072Y-75380053D01*
X103015305Y-117840754D02*
X102527125Y-117008082D01*
X135318910Y-75942517D02*
X135621955Y-75781951D01*
X179631020Y-95357850D02*
X180500408Y-94568968D01*
X180298364Y-81024733D02*
X180588812Y-80691267D01*
X131467979Y-131041952D02*
X131164497Y-131241185D01*
X195382586Y-104063329D02*
X195381219Y-104539746D01*
X168380750Y-74546325D02*
X168759802Y-74734405D01*
X151505899Y-57336198D02*
X148323754Y-57154051D01*
X178162467Y-100342727D02*
X178150656Y-100018038D01*
X112250804Y-64706489D02*
X113112565Y-65394011D01*
X152945527Y-143327795D02*
X152878717Y-142933163D01*
X114905435Y-97936509D02*
X115359651Y-98195670D01*
X112779963Y-100099004D02*
X112509556Y-100187800D01*
X173715127Y-64395981D02*
X173972711Y-64145966D01*
X174341440Y-79288221D02*
X185553873Y-66759182D01*
X130190331Y-138030135D02*
X130435004Y-137835297D01*
X153239168Y-132267835D02*
X147263354Y-132050445D01*
X169948352Y-128836046D02*
X169563498Y-128421916D01*
X119277479Y-110470535D02*
X120201982Y-110192880D01*
X140575220Y-128299992D02*
X140097729Y-127938057D01*
X165904180Y-68111939D02*
X165760247Y-68575470D01*
X161010455Y-52589033D02*
X161261461Y-51649005D01*
X166401003Y-54041638D02*
X166086154Y-54850889D01*
X156071715Y-130902280D02*
X155390245Y-129995108D01*
X115006563Y-137573683D02*
X115946801Y-138255468D01*
X135783065Y-68801717D02*
X133426715Y-57547879D01*
X175445766Y-136238984D02*
X175142553Y-135869138D01*
X172755791Y-79906620D02*
X173448959Y-79087786D01*
X129889527Y-127018886D02*
X120331316Y-135572678D01*
X119665992Y-108659320D02*
X120735790Y-108323751D01*
X168475826Y-68000879D02*
X168482872Y-68005296D01*
X167048615Y-57027069D02*
X163187358Y-68694709D01*
X182018878Y-118469428D02*
X182282999Y-118524277D01*
X163353473Y-129327748D02*
X163205961Y-130180758D01*
X122729685Y-81137083D02*
X120395387Y-85542717D01*
X164852893Y-69470069D02*
X165041937Y-69622504D01*
X131354088Y-128153773D02*
X130745205Y-128412720D01*
X120395387Y-85542717D02*
X120223766Y-85793799D01*
X113768433Y-124002380D02*
X113598965Y-123777763D01*
X175801963Y-104549582D02*
X175307256Y-106781058D01*
X129519780Y-75334575D02*
X130464835Y-75749287D01*
X140099542Y-49536136D02*
X139281182Y-50440451D01*
X140522529Y-149407505D02*
X158837495Y-150455861D01*
X129689091Y-126126404D02*
X119140604Y-135566409D01*
X158659320Y-69665992D02*
X158323751Y-70735790D01*
X127363951Y-136194986D02*
X130028697Y-137943803D01*
X123301982Y-102335773D02*
X123199999Y-100000000D01*
X145899213Y-129600820D02*
X145357850Y-129631020D01*
X200156806Y-89636799D02*
X201301407Y-109633189D01*
X170110472Y-72981113D02*
X179668683Y-64427321D01*
X190390820Y-80890728D02*
X190156172Y-81339002D01*
X156781058Y-125307256D02*
X154549582Y-125801963D01*
X114138568Y-77016169D02*
X114385435Y-77223305D01*
X146160479Y-56365138D02*
X147829394Y-64432039D01*
X120638960Y-80665682D02*
X120902742Y-81117230D01*
X160470535Y-69277479D02*
X160192880Y-70201982D01*
X163842615Y-148605910D02*
X165043046Y-149092046D01*
X136051792Y-130158273D02*
X135814673Y-129970922D01*
X180194896Y-63903200D02*
X180108522Y-63022812D01*
X115480397Y-101556705D02*
X115019839Y-101876330D01*
X127125353Y-63732442D02*
X126969770Y-63829256D01*
X158041800Y-149610315D02*
X159007005Y-149616756D01*
X141224504Y-51998389D02*
X141356462Y-52856645D01*
X148140608Y-57160102D02*
X148026134Y-57451173D01*
X117109924Y-102585186D02*
X116513089Y-103061231D01*
X143019339Y-68779283D02*
X143260246Y-69796433D01*
X172689865Y-113100000D02*
X171461783Y-115027702D01*
X131517127Y-131994703D02*
X131505552Y-132004433D01*
X174619946Y-108960927D02*
X173745264Y-111072598D01*
X134628283Y-55491775D02*
X134416873Y-54700061D01*
X130336220Y-70282545D02*
X130665682Y-70638960D01*
X192638888Y-98312164D02*
X192663801Y-98494100D01*
X173030229Y-136170743D02*
X172983830Y-135861431D01*
X118670248Y-137126311D02*
X119371946Y-137637323D01*
X143260246Y-69796433D02*
X144012102Y-70779098D01*
X133598996Y-145958361D02*
X133913845Y-145149110D01*
X164092351Y-130531130D02*
X164216934Y-131198282D01*
X120169612Y-87680427D02*
X119347035Y-87529324D01*
X200036482Y-88481636D02*
X200156806Y-89636799D01*
X119873811Y-118453136D02*
X119920773Y-118569984D01*
X118476232Y-82334459D02*
X118429823Y-82382890D01*
X179116499Y-81392052D02*
X179355542Y-80884969D01*
X192691548Y-97264106D02*
X193036859Y-97166039D01*
X163343805Y-130925623D02*
X165972500Y-143480172D01*
X134475484Y-52040130D02*
X133503977Y-52473109D01*
X174434913Y-119091526D02*
X178165245Y-112051089D01*
X105114266Y-95111150D02*
X105663439Y-95199676D01*
X137023436Y-130611273D02*
X136956477Y-129786617D01*
X132290547Y-67711081D02*
X131023578Y-61660087D01*
X179191685Y-81561340D02*
X179116499Y-81392052D01*
X139204708Y-72017708D02*
X139453207Y-70870355D01*
X155934550Y-53589695D02*
X144345282Y-52926321D01*
X111821021Y-68588631D02*
X112817133Y-68399393D01*
X142576475Y-70494575D02*
X143115505Y-71542429D01*
X110960350Y-64996714D02*
X112250804Y-64706489D01*
X135907034Y-131499546D02*
X136095541Y-130882359D01*
X140447742Y-148556964D02*
X141408259Y-148658205D01*
X147531219Y-134233535D02*
X147332908Y-134799666D01*
X112568724Y-129486338D02*
X105275528Y-118373391D01*
X131024733Y-130298364D02*
X130691267Y-130588812D01*
X175307256Y-106781058D02*
X174619946Y-108960927D01*
X164978740Y-130881501D02*
X165090063Y-131470941D01*
%TD*%
M02*
