%TF.GenerationSoftware,KiCad,Pcbnew,7.99.0-3356-g00904e8e23*%
%TF.CreationDate,2023-10-26T14:27:13+05:30*%
%TF.ProjectId,kimotor-project,6b696d6f-746f-4722-9d70-726f6a656374,rev?*%
%TF.SameCoordinates,Original*%
%TF.FileFunction,Legend,Top*%
%TF.FilePolarity,Positive*%
%FSLAX46Y46*%
G04 Gerber Fmt 4.6, Leading zero omitted, Abs format (unit mm)*
G04 Created by KiCad (PCBNEW 7.99.0-3356-g00904e8e23) date 2023-10-26 14:27:13*
%MOMM*%
%LPD*%
G01*
G04 APERTURE LIST*
%ADD10C,0.127000*%
%ADD11C,0.100000*%
%ADD12C,0.158750*%
G04 APERTURE END LIST*
D10*
X36373066Y21000000D02*
X51036868Y29466150D01*
D11*
X62034000Y0D02*
G75*
G02*
X62034000Y0I-62034000J0D01*
G01*
D10*
X21000000Y-36373066D02*
X29466150Y-51036868D01*
X-21000000Y36373066D02*
X-29466150Y51036868D01*
X-42000000Y0D02*
X-58932300Y0D01*
X42000000Y0D02*
X58932300Y0D01*
X0Y42000000D02*
X0Y58932300D01*
X20999999Y36373066D02*
X29466149Y51036868D01*
X-36373066Y20999999D02*
X-51036868Y29466149D01*
X-36373066Y-21000000D02*
X-51036868Y-29466150D01*
D11*
X40000000Y0D02*
G75*
G02*
X40000000Y0I-40000000J0D01*
G01*
D10*
X-20999999Y-36373066D02*
X-29466149Y-51036868D01*
X-42000000Y0D02*
X-58932300Y0D01*
X36373066Y-20999999D02*
X51036868Y-29466149D01*
X-21000000Y36373066D02*
X-29466150Y51036868D01*
X0Y-42000000D02*
X0Y-58932300D01*
D11*
X40000000Y0D02*
G75*
G02*
X40000000Y0I-40000000J0D01*
G01*
D10*
X21000000Y-36373066D02*
X29466150Y-51036868D01*
X-20999999Y-36373066D02*
X-29466149Y-51036868D01*
X0Y42000000D02*
X0Y58932300D01*
X-36373066Y-21000000D02*
X-51036868Y-29466150D01*
X-36373066Y20999999D02*
X-51036868Y29466149D01*
X20999999Y36373066D02*
X29466149Y51036868D01*
D11*
X62034000Y0D02*
G75*
G02*
X62034000Y0I-62034000J0D01*
G01*
D10*
X36373066Y21000000D02*
X51036868Y29466150D01*
X42000000Y0D02*
X58932300Y0D01*
X0Y-42000000D02*
X0Y-58932300D01*
X36373066Y-20999999D02*
X51036868Y-29466149D01*
D12*
X59908341Y-19213907D02*
X60021559Y-19059779D01*
X60021559Y-19059779D02*
X60097671Y-19020771D01*
X60097671Y-19020771D02*
X60231344Y-19000315D01*
X60231344Y-19000315D02*
X60404025Y-19055973D01*
X60404025Y-19055973D02*
X60500593Y-19150638D01*
X60500593Y-19150638D02*
X60539601Y-19226750D01*
X60539601Y-19226750D02*
X60560056Y-19360423D01*
X60560056Y-19360423D02*
X60411637Y-19820905D01*
X60411637Y-19820905D02*
X59202872Y-19431305D01*
X59202872Y-19431305D02*
X59332739Y-19028383D01*
X59332739Y-19028383D02*
X59427404Y-18931815D01*
X59427404Y-18931815D02*
X59503517Y-18892807D01*
X59503517Y-18892807D02*
X59637189Y-18872352D01*
X59637189Y-18872352D02*
X59752310Y-18909457D01*
X59752310Y-18909457D02*
X59848878Y-19004122D01*
X59848878Y-19004122D02*
X59887886Y-19080234D01*
X59887886Y-19080234D02*
X59908341Y-19213907D01*
X59908341Y-19213907D02*
X59778475Y-19616828D01*
X59908341Y-19213907D02*
X60021559Y-19059779D01*
X60021559Y-19059779D02*
X60097671Y-19020771D01*
X60097671Y-19020771D02*
X60231344Y-19000315D01*
X60231344Y-19000315D02*
X60404025Y-19055973D01*
X60404025Y-19055973D02*
X60500593Y-19150638D01*
X60500593Y-19150638D02*
X60539601Y-19226750D01*
X60539601Y-19226750D02*
X60560056Y-19360423D01*
X60560056Y-19360423D02*
X60411637Y-19820905D01*
X60411637Y-19820905D02*
X59202872Y-19431305D01*
X59202872Y-19431305D02*
X59332739Y-19028383D01*
X59332739Y-19028383D02*
X59427404Y-18931815D01*
X59427404Y-18931815D02*
X59503517Y-18892807D01*
X59503517Y-18892807D02*
X59637189Y-18872352D01*
X59637189Y-18872352D02*
X59752310Y-18909457D01*
X59752310Y-18909457D02*
X59848878Y-19004122D01*
X59848878Y-19004122D02*
X59887886Y-19080234D01*
X59887886Y-19080234D02*
X59908341Y-19213907D01*
X59908341Y-19213907D02*
X59778475Y-19616828D01*
X61867360Y12993694D02*
X61740227Y13584942D01*
X62247535Y12951724D02*
X60916921Y13098619D01*
X60916921Y13098619D02*
X62069549Y13779471D01*
X42864578Y-46794663D02*
X42860303Y-46880083D01*
X42860303Y-46880083D02*
X42766335Y-47046647D01*
X42766335Y-47046647D02*
X42676641Y-47127792D01*
X42676641Y-47127792D02*
X42501528Y-47204662D01*
X42501528Y-47204662D02*
X42330689Y-47196113D01*
X42330689Y-47196113D02*
X42204697Y-47146992D01*
X42204697Y-47146992D02*
X41997560Y-47008176D01*
X41997560Y-47008176D02*
X41875843Y-46873635D01*
X41875843Y-46873635D02*
X41758401Y-46653675D01*
X41758401Y-46653675D02*
X41722103Y-46523409D01*
X41722103Y-46523409D02*
X41730652Y-46352570D01*
X41730652Y-46352570D02*
X41824620Y-46186006D01*
X41824620Y-46186006D02*
X41914314Y-46104861D01*
X41914314Y-46104861D02*
X42089427Y-46027991D01*
X42089427Y-46027991D02*
X42174847Y-46032265D01*
X61867360Y12993694D02*
X61740227Y13584942D01*
X62247535Y12951724D02*
X60916921Y13098619D01*
X60916921Y13098619D02*
X62069549Y13779471D01*
X42864578Y-46794663D02*
X42860303Y-46880083D01*
X42860303Y-46880083D02*
X42766335Y-47046647D01*
X42766335Y-47046647D02*
X42676641Y-47127792D01*
X42676641Y-47127792D02*
X42501528Y-47204662D01*
X42501528Y-47204662D02*
X42330689Y-47196113D01*
X42330689Y-47196113D02*
X42204697Y-47146992D01*
X42204697Y-47146992D02*
X41997560Y-47008176D01*
X41997560Y-47008176D02*
X41875843Y-46873635D01*
X41875843Y-46873635D02*
X41758401Y-46653675D01*
X41758401Y-46653675D02*
X41722103Y-46523409D01*
X41722103Y-46523409D02*
X41730652Y-46352570D01*
X41730652Y-46352570D02*
X41824620Y-46186006D01*
X41824620Y-46186006D02*
X41914314Y-46104861D01*
X41914314Y-46104861D02*
X42089427Y-46027991D01*
X42089427Y-46027991D02*
X42174847Y-46032265D01*
M02*
