%TF.GenerationSoftware,KiCad,Pcbnew,7.99.0-3356-g00904e8e23*%
%TF.CreationDate,2023-10-26T14:27:13+05:30*%
%TF.ProjectId,kimotor-project,6b696d6f-746f-4722-9d70-726f6a656374,rev?*%
%TF.SameCoordinates,Original*%
%TF.FileFunction,Copper,L4,Inr*%
%TF.FilePolarity,Positive*%
%FSLAX46Y46*%
G04 Gerber Fmt 4.6, Leading zero omitted, Abs format (unit mm)*
G04 Created by KiCad (PCBNEW 7.99.0-3356-g00904e8e23) date 2023-10-26 14:27:13*
%MOMM*%
%LPD*%
G01*
G04 APERTURE LIST*
G04 Aperture macros list*
%AMRoundRect*
0 Rectangle with rounded corners*
0 $1 Rounding radius*
0 $2 $3 $4 $5 $6 $7 $8 $9 X,Y pos of 4 corners*
0 Add a 4 corners polygon primitive as box body*
4,1,4,$2,$3,$4,$5,$6,$7,$8,$9,$2,$3,0*
0 Add four circle primitives for the rounded corners*
1,1,$1+$1,$2,$3*
1,1,$1+$1,$4,$5*
1,1,$1+$1,$6,$7*
1,1,$1+$1,$8,$9*
0 Add four rect primitives between the rounded corners*
20,1,$1+$1,$2,$3,$4,$5,0*
20,1,$1+$1,$4,$5,$6,$7,0*
20,1,$1+$1,$6,$7,$8,$9,0*
20,1,$1+$1,$8,$9,$2,$3,0*%
G04 Aperture macros list end*
%TA.AperFunction,ComponentPad*%
%ADD10RoundRect,0.250000X-0.734847X-0.424264X0.424264X-0.734847X0.734847X0.424264X-0.424264X0.734847X0*%
%TD*%
%TA.AperFunction,ComponentPad*%
%ADD11RoundRect,0.250000X-0.848528X0.000000X0.000000X-0.848528X0.848528X0.000000X0.000000X0.848528X0*%
%TD*%
%TA.AperFunction,ComponentPad*%
%ADD12RoundRect,0.250000X-0.424264X-0.734847X0.734847X-0.424264X0.424264X0.734847X-0.734847X0.424264X0*%
%TD*%
%TA.AperFunction,ViaPad*%
%ADD13C,0.250000*%
%TD*%
%TA.AperFunction,Conductor*%
%ADD14C,1.034000*%
%TD*%
G04 APERTURE END LIST*
D10*
%TO.N,coil*%
%TO.C,T2*%
X60853327Y-16305599D03*
%TD*%
D11*
%TO.N,coil*%
%TO.C,T3*%
X44547727Y-44547727D03*
%TD*%
%TO.N,coil*%
%TO.C,T3*%
X44547727Y-44547727D03*
%TD*%
D12*
%TO.N,coil*%
%TO.C,T1*%
X60853327Y16305599D03*
%TD*%
D10*
%TO.N,coil*%
%TO.C,T2*%
X60853327Y-16305599D03*
%TD*%
D12*
%TO.N,coil*%
%TO.C,T1*%
X60853327Y16305599D03*
%TD*%
D13*
%TO.N,coil*%
X-2345617Y-35787212D03*
X-16776894Y-34020176D03*
X-34020176Y16776894D03*
X-14947588Y-30310711D03*
X35787212Y-2345617D03*
X-18776051Y-28100347D03*
X-14947588Y-30310711D03*
X-21073890Y31539305D03*
X-30310711Y14947588D03*
X-26380867Y-17627132D03*
X-30310711Y14947588D03*
X-21073890Y31539305D03*
X-14032935Y28455978D03*
X-2345617Y-35787212D03*
X14032935Y-28455978D03*
X-35787212Y2345617D03*
X-17627132Y26380867D03*
X-17627132Y26380867D03*
X-28100347Y18776051D03*
X-18776051Y-28100347D03*
X-31539305Y-21073890D03*
X-35787212Y2345617D03*
X-14032935Y28455978D03*
X28100347Y-18776051D03*
X-16776894Y-34020176D03*
X-28100347Y18776051D03*
X-28455978Y-14032935D03*
X14032935Y-28455978D03*
X-34020176Y16776894D03*
X28100347Y-18776051D03*
X-28455978Y-14032935D03*
X-26380867Y-17627132D03*
X35787212Y-2345617D03*
X-31539305Y-21073890D03*
X-47454728Y27397999D03*
X-47454728Y-27398000D03*
X27397999Y47454728D03*
X-27397999Y-47454728D03*
X-54796000Y0D03*
X-27397999Y-47454728D03*
X-54796000Y0D03*
X47454728Y-27397999D03*
X0Y-54796000D03*
X0Y-54796000D03*
X-47454728Y27397999D03*
X47454728Y-27397999D03*
X54796000Y0D03*
X0Y54796000D03*
X-47454728Y-27398000D03*
X47454728Y-27397999D03*
X-27398000Y47454728D03*
X27397999Y47454728D03*
X0Y54796000D03*
X27398000Y-47454728D03*
X54796000Y0D03*
X0Y-54796000D03*
X54796000Y0D03*
X-54796000Y0D03*
X47454728Y27398000D03*
X0Y54796000D03*
X-27398000Y47454728D03*
X-27398000Y47454728D03*
X27398000Y-47454728D03*
X-27397999Y-47454728D03*
X47454728Y27398000D03*
X27397999Y47454728D03*
X-47454728Y27397999D03*
X47454728Y27398000D03*
X-47454728Y-27398000D03*
X27398000Y-47454728D03*
X-34641016Y-20000000D03*
X40000000Y0D03*
X-40000000Y0D03*
X-19999999Y-34641016D03*
X0Y-40000000D03*
X-34641016Y-20000000D03*
X19999999Y34641016D03*
X0Y-40000000D03*
X-34641016Y19999999D03*
X34641016Y-19999999D03*
X0Y40000000D03*
X-34641016Y19999999D03*
X-20000000Y34641016D03*
X-34641016Y19999999D03*
X20000000Y-34641016D03*
X-19999999Y-34641016D03*
X34641016Y-19999999D03*
X19999999Y34641016D03*
X34641016Y-19999999D03*
X40000000Y0D03*
X34641016Y20000000D03*
X0Y40000000D03*
X34641016Y20000000D03*
X40000000Y0D03*
X19999999Y34641016D03*
X-20000000Y34641016D03*
X20000000Y-34641016D03*
X-40000000Y0D03*
X-34641016Y-20000000D03*
X-40000000Y0D03*
X0Y-40000000D03*
X34641016Y20000000D03*
X0Y40000000D03*
X-20000000Y34641016D03*
X20000000Y-34641016D03*
X-19999999Y-34641016D03*
%TD*%
D14*
%TO.N,coil*%
X45656819Y-37261715D02*
X35463812Y-26273645D01*
X40845826Y45305832D02*
X26598890Y32591649D01*
X58170823Y-9441181D02*
X43849385Y-5021738D01*
X56494731Y-6469914D02*
X46093248Y-3197193D01*
X35463812Y26273645D02*
X45690915Y33850475D01*
X-26273645Y35463812D02*
X-33850475Y45690915D01*
X-32591649Y-26598890D02*
X-45656819Y-37261715D01*
X-40485551Y17575739D02*
X-52160829Y22644255D01*
X37261715Y45656819D02*
X26273645Y35463812D01*
X38050124Y-12336451D02*
X58026439Y-18813088D01*
X59658915Y-12720607D02*
X41524642Y-6739490D01*
X-56494731Y6469914D02*
X-46093248Y3197193D01*
X-35463812Y-26273645D02*
X-45690915Y-33850475D01*
X-26598890Y32591649D02*
X-37261715Y45656819D01*
X-39331140Y14925751D02*
X-55098001Y20909108D01*
X-20909108Y55098001D02*
X-17575739Y40485551D01*
X-29708742Y-26784148D02*
X-45305832Y-40845826D01*
X58026439Y18813088D02*
X39331140Y14925751D01*
X-39120600Y-8341382D02*
X-59658915Y-12720607D01*
X41516521Y-20277773D02*
X49236847Y-24048585D01*
X58026439Y18813088D02*
X39331140Y14925751D01*
X20909108Y-55098001D02*
X17575739Y-40485551D01*
X58170823Y-9441181D02*
X43849385Y-5021738D01*
X-43849385Y-5021738D02*
X-56494731Y-6469914D01*
X46093248Y3197193D02*
X54664653Y3791737D01*
X32591649Y26598890D02*
X45656819Y37261715D01*
X18813088Y-58026439D02*
X14925751Y-39331140D01*
X58026439Y18813088D02*
X39331140Y14925751D01*
X8341382Y-39120600D02*
X12720607Y-59658915D01*
X-26598890Y32591649D02*
X-37261715Y45656819D01*
X-25815475Y38319327D02*
X-30616067Y45445109D01*
X-41524642Y-6739490D02*
X-58170823Y-9441181D01*
X-58170823Y9441181D02*
X-43849385Y5021738D01*
X6469914Y56494731D02*
X3197193Y46093248D01*
X40485551Y-17575739D02*
X52160829Y-22644255D01*
X-25815475Y38319327D02*
X-30616067Y45445109D01*
X6739490Y-41524642D02*
X9441181Y-58170823D01*
X-12336451Y-38050124D02*
X-18813088Y-58026439D01*
X-12720607Y-59658915D02*
X-6739490Y-41524642D01*
X33850475Y45690915D02*
X25815475Y38319327D01*
X-41524642Y-6739490D02*
X-58170823Y-9441181D01*
X-6469914Y-56494731D02*
X-3197193Y-46093248D01*
X22644255Y-52160829D02*
X20277773Y-41516521D01*
X-18813088Y58026439D02*
X-14925751Y39331140D01*
X-12720607Y-59658915D02*
X-6739490Y-41524642D01*
X-20909108Y55098001D02*
X-17575739Y40485551D01*
X29708742Y26784148D02*
X45305832Y40845826D01*
X14925751Y39331140D02*
X20909108Y55098001D01*
X-58026439Y-18813088D02*
X-39331140Y-14925751D01*
X-40845826Y-45305832D02*
X-26598890Y-32591649D01*
X29708742Y26784148D02*
X45305832Y40845826D01*
X38319327Y25815475D02*
X45445109Y30616067D01*
X-59658915Y12720607D02*
X-41524642Y6739490D01*
X-33850475Y-45690915D02*
X-25815475Y-38319327D01*
X-6739490Y41524642D02*
X-9441181Y58170823D01*
X-55098001Y-20909108D02*
X-40485551Y-17575739D01*
X-37261715Y-45656819D02*
X-26273645Y-35463812D01*
X-37261715Y-45656819D02*
X-26273645Y-35463812D01*
X-32591649Y-26598890D02*
X-45656819Y-37261715D01*
X-46093248Y-3197193D02*
X-54664653Y-3791737D01*
X-33850475Y-45690915D02*
X-25815475Y-38319327D01*
X-29708742Y-26784148D02*
X-45305832Y-40845826D01*
X52160829Y22644255D02*
X41516521Y20277773D01*
X-38050124Y12336451D02*
X-58026439Y18813088D01*
X-26273645Y35463812D02*
X-33850475Y45690915D01*
X41524642Y6739490D02*
X58170823Y9441181D01*
X17575739Y40485551D02*
X22644255Y52160829D01*
X-45656819Y37261715D02*
X-35463812Y26273645D01*
X6469914Y56494731D02*
X3197193Y46093248D01*
X-59658915Y12720607D02*
X-41524642Y6739490D01*
X-25815475Y38319327D02*
X-30616067Y45445109D01*
X-37261715Y-45656819D02*
X-26273645Y-35463812D01*
X20909108Y-55098001D02*
X17575739Y-40485551D01*
X59658915Y-12720607D02*
X41524642Y-6739490D01*
X-26273645Y35463812D02*
X-33850475Y45690915D01*
X52160829Y22644255D02*
X41516521Y20277773D01*
X3197193Y-46093248D02*
X3791737Y-54664653D01*
X-20277773Y-41516521D02*
X-24048585Y-49236847D01*
X5021738Y-43849385D02*
X6469914Y-56494731D01*
X-18813088Y58026439D02*
X-14925751Y39331140D01*
X-12720607Y-59658915D02*
X-6739490Y-41524642D01*
X-59658915Y12720607D02*
X-41524642Y6739490D01*
X14925751Y39331140D02*
X20909108Y55098001D01*
X-55098001Y-20909108D02*
X-40485551Y-17575739D01*
X-14925751Y-39331140D02*
X-20909108Y-55098001D01*
X40845826Y45305832D02*
X26598890Y32591649D01*
X-26784148Y29708742D02*
X-40845826Y45305832D01*
X-12336451Y-38050124D02*
X-18813088Y-58026439D01*
X5021738Y-43849385D02*
X6469914Y-56494731D01*
X45305832Y-40845826D02*
X32591649Y-26598890D01*
X45690915Y-33850475D02*
X38319327Y-25815475D01*
X-45690915Y33850475D02*
X-38319327Y25815475D01*
X-26784148Y29708742D02*
X-40845826Y45305832D01*
X43849385Y5021738D02*
X56494731Y6469914D01*
X40485551Y-17575739D02*
X52160829Y-22644255D01*
X-26784148Y29708742D02*
X-40845826Y45305832D01*
X-45305832Y40845826D02*
X-32591649Y26598890D01*
X-8341382Y39120600D02*
X-12720607Y59658915D01*
X-14925751Y-39331140D02*
X-20909108Y-55098001D01*
X12720607Y59658915D02*
X6739490Y41524642D01*
X-35463812Y-26273645D02*
X-45690915Y-33850475D01*
X38050124Y-12336451D02*
X58026439Y-18813088D01*
X-20909108Y55098001D02*
X-17575739Y40485551D01*
X-45305832Y40845826D02*
X-32591649Y26598890D01*
X41516521Y-20277773D02*
X49236847Y-24048585D01*
X52160829Y22644255D02*
X41516521Y20277773D01*
X43849385Y5021738D02*
X56494731Y6469914D01*
X39331140Y-14925751D02*
X55098001Y-20909108D01*
X35463812Y26273645D02*
X45690915Y33850475D01*
X37261715Y45656819D02*
X26273645Y35463812D01*
X46093248Y3197193D02*
X54664653Y3791737D01*
X37261715Y45656819D02*
X26273645Y35463812D01*
X-29708742Y-26784148D02*
X-45305832Y-40845826D01*
X12720607Y59658915D02*
X6739490Y41524642D01*
X17575739Y40485551D02*
X22644255Y52160829D01*
X6469914Y56494731D02*
X3197193Y46093248D01*
X-18813088Y58026439D02*
X-14925751Y39331140D01*
X29708742Y26784148D02*
X45305832Y40845826D01*
X39120600Y8341382D02*
X59658915Y12720607D01*
X-6739490Y41524642D02*
X-9441181Y58170823D01*
X25815475Y-38319327D02*
X30616067Y-45445109D01*
X26273645Y-35463812D02*
X33850475Y-45690915D01*
X-12336451Y-38050124D02*
X-18813088Y-58026439D01*
X-40485551Y17575739D02*
X-52160829Y22644255D01*
X-6469914Y-56494731D02*
X-3197193Y-46093248D01*
X26273645Y-35463812D02*
X33850475Y-45690915D01*
X45656819Y-37261715D02*
X35463812Y-26273645D01*
X-5021738Y43849385D02*
X-6469914Y56494731D01*
X46093248Y3197193D02*
X54664653Y3791737D01*
X-52160829Y-22644255D02*
X-41516521Y-20277773D01*
X-58170823Y9441181D02*
X-43849385Y5021738D01*
X-17575739Y-40485551D02*
X-22644255Y-52160829D01*
X-6739490Y41524642D02*
X-9441181Y58170823D01*
X17575739Y40485551D02*
X22644255Y52160829D01*
X-22644255Y52160829D02*
X-20277773Y41516521D01*
X38319327Y25815475D02*
X45445109Y30616067D01*
X-35463812Y-26273645D02*
X-45690915Y-33850475D01*
X-40845826Y-45305832D02*
X-26598890Y-32591649D01*
X32591649Y26598890D02*
X45656819Y37261715D01*
X9441181Y58170823D02*
X5021738Y43849385D01*
X-56494731Y6469914D02*
X-46093248Y3197193D01*
X26598890Y-32591649D02*
X37261715Y-45656819D01*
X9441181Y58170823D02*
X5021738Y43849385D01*
X39120600Y8341382D02*
X59658915Y12720607D01*
X-32591649Y-26598890D02*
X-45656819Y-37261715D01*
X-14925751Y-39331140D02*
X-20909108Y-55098001D01*
X38050124Y-12336451D02*
X58026439Y-18813088D01*
X-43849385Y-5021738D02*
X-56494731Y-6469914D01*
X20909108Y-55098001D02*
X17575739Y-40485551D01*
X-3197193Y46093248D02*
X-3791737Y54664653D01*
X-39120600Y-8341382D02*
X-59658915Y-12720607D01*
X-39331140Y14925751D02*
X-55098001Y20909108D01*
X-55098001Y-20909108D02*
X-40485551Y-17575739D01*
X-56494731Y6469914D02*
X-46093248Y3197193D01*
X55098001Y20909108D02*
X40485551Y17575739D01*
X-45656819Y37261715D02*
X-35463812Y26273645D01*
X8341382Y-39120600D02*
X12720607Y-59658915D01*
X38319327Y25815475D02*
X45445109Y30616067D01*
X45690915Y-33850475D02*
X38319327Y-25815475D01*
X25815475Y-38319327D02*
X30616067Y-45445109D01*
X45656819Y-37261715D02*
X35463812Y-26273645D01*
X18813088Y-58026439D02*
X14925751Y-39331140D01*
X8341382Y-39120600D02*
X12720607Y-59658915D01*
X-39120600Y-8341382D02*
X-59658915Y-12720607D01*
X-6469914Y-56494731D02*
X-3197193Y-46093248D01*
X-58026439Y-18813088D02*
X-39331140Y-14925751D01*
X41524642Y6739490D02*
X58170823Y9441181D01*
X39331140Y-14925751D02*
X55098001Y-20909108D01*
X22644255Y-52160829D02*
X20277773Y-41516521D01*
X5021738Y-43849385D02*
X6469914Y-56494731D01*
X45305832Y-40845826D02*
X32591649Y-26598890D01*
X-58170823Y9441181D02*
X-43849385Y5021738D01*
X-20277773Y-41516521D02*
X-24048585Y-49236847D01*
X35463812Y26273645D02*
X45690915Y33850475D01*
X25815475Y-38319327D02*
X30616067Y-45445109D01*
X-38319327Y-25815475D02*
X-45445109Y-30616067D01*
X-40485551Y17575739D02*
X-52160829Y22644255D01*
X-5021738Y43849385D02*
X-6469914Y56494731D01*
X-39331140Y14925751D02*
X-55098001Y20909108D01*
X-20277773Y-41516521D02*
X-24048585Y-49236847D01*
X-5021738Y43849385D02*
X-6469914Y56494731D01*
X58170823Y-9441181D02*
X43849385Y-5021738D01*
X-41516521Y20277773D02*
X-49236847Y24048585D01*
X-17575739Y-40485551D02*
X-22644255Y-52160829D01*
X-3197193Y46093248D02*
X-3791737Y54664653D01*
X39120600Y8341382D02*
X59658915Y12720607D01*
X12336451Y38050124D02*
X18813088Y58026439D01*
X-9441181Y-58170823D02*
X-5021738Y-43849385D01*
X-38319327Y-25815475D02*
X-45445109Y-30616067D01*
X-9441181Y-58170823D02*
X-5021738Y-43849385D01*
X33850475Y45690915D02*
X25815475Y38319327D01*
X55098001Y20909108D02*
X40485551Y17575739D01*
X3197193Y-46093248D02*
X3791737Y-54664653D01*
X43849385Y5021738D02*
X56494731Y6469914D01*
X22644255Y-52160829D02*
X20277773Y-41516521D01*
X12720607Y59658915D02*
X6739490Y41524642D01*
X59658915Y-12720607D02*
X41524642Y-6739490D01*
X-9441181Y-58170823D02*
X-5021738Y-43849385D01*
X45305832Y-40845826D02*
X32591649Y-26598890D01*
X-3197193Y46093248D02*
X-3791737Y54664653D01*
X-8341382Y39120600D02*
X-12720607Y59658915D01*
X-8341382Y39120600D02*
X-12720607Y59658915D01*
X-41524642Y-6739490D02*
X-58170823Y-9441181D01*
X26273645Y-35463812D02*
X33850475Y-45690915D01*
X-52160829Y-22644255D02*
X-41516521Y-20277773D01*
X14925751Y39331140D02*
X20909108Y55098001D01*
X3197193Y-46093248D02*
X3791737Y-54664653D01*
X56494731Y-6469914D02*
X46093248Y-3197193D01*
X45690915Y-33850475D02*
X38319327Y-25815475D01*
X41524642Y6739490D02*
X58170823Y9441181D01*
X-17575739Y-40485551D02*
X-22644255Y-52160829D01*
X-22644255Y52160829D02*
X-20277773Y41516521D01*
X-38050124Y12336451D02*
X-58026439Y18813088D01*
X12336451Y38050124D02*
X18813088Y58026439D01*
X-22644255Y52160829D02*
X-20277773Y41516521D01*
X33850475Y45690915D02*
X25815475Y38319327D01*
X-46093248Y-3197193D02*
X-54664653Y-3791737D01*
X-40845826Y-45305832D02*
X-26598890Y-32591649D01*
X32591649Y26598890D02*
X45656819Y37261715D01*
X-26598890Y32591649D02*
X-37261715Y45656819D01*
X26784148Y-29708742D02*
X40845826Y-45305832D01*
X-41516521Y20277773D02*
X-49236847Y24048585D01*
X26784148Y-29708742D02*
X40845826Y-45305832D01*
X-46093248Y-3197193D02*
X-54664653Y-3791737D01*
X39331140Y-14925751D02*
X55098001Y-20909108D01*
X55098001Y20909108D02*
X40485551Y17575739D01*
X56494731Y-6469914D02*
X46093248Y-3197193D01*
X20277773Y41516521D02*
X24048585Y49236847D01*
X26598890Y-32591649D02*
X37261715Y-45656819D01*
X40485551Y-17575739D02*
X52160829Y-22644255D01*
X20277773Y41516521D02*
X24048585Y49236847D01*
X40845826Y45305832D02*
X26598890Y32591649D01*
X18813088Y-58026439D02*
X14925751Y-39331140D01*
X-45690915Y33850475D02*
X-38319327Y25815475D01*
X-45690915Y33850475D02*
X-38319327Y25815475D01*
X-38319327Y-25815475D02*
X-45445109Y-30616067D01*
X-45656819Y37261715D02*
X-35463812Y26273645D01*
X6739490Y-41524642D02*
X9441181Y-58170823D01*
X26784148Y-29708742D02*
X40845826Y-45305832D01*
X-33850475Y-45690915D02*
X-25815475Y-38319327D01*
X-43849385Y-5021738D02*
X-56494731Y-6469914D01*
X-52160829Y-22644255D02*
X-41516521Y-20277773D01*
X41516521Y-20277773D02*
X49236847Y-24048585D01*
X26598890Y-32591649D02*
X37261715Y-45656819D01*
X-58026439Y-18813088D02*
X-39331140Y-14925751D01*
X9441181Y58170823D02*
X5021738Y43849385D01*
X-41516521Y20277773D02*
X-49236847Y24048585D01*
X-38050124Y12336451D02*
X-58026439Y18813088D01*
X-45305832Y40845826D02*
X-32591649Y26598890D01*
X20277773Y41516521D02*
X24048585Y49236847D01*
X12336451Y38050124D02*
X18813088Y58026439D01*
X6739490Y-41524642D02*
X9441181Y-58170823D01*
X26273645Y35463811D02*
G75*
G03*
X17575738Y40485550I-26273645J-35463811D01*
G01*
X-34641015Y-20000000D02*
G75*
G03*
X-29708741Y-26784147I34640988J19999985D01*
G01*
X0Y-40000000D02*
G75*
G03*
X8341382Y-39120600I3J39999975D01*
G01*
X0Y40000000D02*
G75*
G03*
X-8341382Y39120600I-3J-39999975D01*
G01*
X-45305832Y-40845826D02*
G75*
G02*
X-58026439Y-18813088I45305824J40845821D01*
G01*
X33850474Y-45690914D02*
G75*
G02*
X22644254Y-52160828I-33850424J45690834D01*
G01*
X19999999Y34641016D02*
G75*
G03*
X12336451Y38050124I-20000002J-34641021D01*
G01*
X-55098001Y20909108D02*
G75*
G02*
X-45656819Y37261715I55097980J-20909096D01*
G01*
X-3791737Y54664652D02*
G75*
G02*
X0Y54795999I3791737J-54664552D01*
G01*
X9441181Y-58170822D02*
G75*
G02*
X-9441181Y-58170822I-9441181J58170772D01*
G01*
X-19999999Y-34641016D02*
G75*
G03*
X-12336451Y-38050124I19999999J34641016D01*
G01*
X45656819Y37261715D02*
G75*
G02*
X55098000Y20909108I-45656769J-37261685D01*
G01*
X20000000Y-34641015D02*
G75*
G03*
X26784148Y-29708742I-20000000J34641015D01*
G01*
X55098001Y-20909108D02*
G75*
G02*
X45656819Y-37261715I-55098001J20909108D01*
G01*
X5021738Y43849384D02*
G75*
G03*
X-5021738Y43849384I-5021738J-43849247D01*
G01*
X-40485550Y-17575739D02*
G75*
G03*
X-35463811Y-26273645I40485447J17575683D01*
G01*
X40485550Y17575739D02*
G75*
G03*
X35463812Y26273645I-40485450J-17575679D01*
G01*
X26273645Y35463811D02*
G75*
G03*
X17575738Y40485550I-26273645J-35463811D01*
G01*
X54664652Y3791737D02*
G75*
G02*
X54795999Y0I-54664552J-3791737D01*
G01*
X-38319327Y25815475D02*
G75*
G03*
X-41516524Y20277774I38319627J-25815675D01*
G01*
X-54664652Y-3791737D02*
G75*
G02*
X-54795999Y0I54664525J3791740D01*
G01*
X35463811Y-26273645D02*
G75*
G03*
X40485550Y-17575738I-35463811J26273645D01*
G01*
X39331139Y14925751D02*
G75*
G03*
X32591649Y26598890I-39331139J-14925751D01*
G01*
X-24048585Y-49236846D02*
G75*
G02*
X-27397999Y-47454727I24048568J49236819D01*
G01*
X-46093248Y3197193D02*
G75*
G03*
X-46093248Y-3197193I46092969J-3197193D01*
G01*
X18813088Y58026438D02*
G75*
G02*
X40845825Y45305831I-18813095J-58026450D01*
G01*
X34641015Y20000000D02*
G75*
G03*
X29708742Y26784148I-34641015J-20000000D01*
G01*
X-58026439Y18813088D02*
G75*
G02*
X-45305832Y40845826I58026439J-18813088D01*
G01*
X20909108Y55098001D02*
G75*
G02*
X37261715Y45656819I-20909108J-55098001D01*
G01*
X-3197193Y-46093248D02*
G75*
G03*
X3197193Y-46093248I3197193J46092969D01*
G01*
X12720607Y-59658915D02*
G75*
G02*
X-12720607Y-59658915I-12720607J59658908D01*
G01*
X58170822Y9441181D02*
G75*
G02*
X58170822Y-9441181I-58170722J-9441181D01*
G01*
X40845826Y-45305832D02*
G75*
G02*
X18813088Y-58026439I-40845826J45305832D01*
G01*
X26598890Y32591649D02*
G75*
G03*
X14925751Y39331140I-26598913J-32591682D01*
G01*
X45305832Y40845826D02*
G75*
G02*
X58026439Y18813088I-45305832J-40845826D01*
G01*
X-20000000Y34641015D02*
G75*
G03*
X-26784147Y29708741I19999985J-34640988D01*
G01*
X0Y-40000000D02*
G75*
G03*
X8341382Y-39120600I3J39999975D01*
G01*
X30616067Y-45445109D02*
G75*
G02*
X27398000Y-47454728I-30615967J45444909D01*
G01*
X41524641Y-6739490D02*
G75*
G03*
X41524641Y6739490I-41524641J6739490D01*
G01*
X43849384Y-5021738D02*
G75*
G03*
X43849384Y5021738I-43849284J5021738D01*
G01*
X20000000Y-34641015D02*
G75*
G03*
X26784148Y-29708742I-20000000J34641015D01*
G01*
X35463811Y-26273645D02*
G75*
G03*
X40485550Y-17575738I-35463811J26273645D01*
G01*
X20277773Y-41516520D02*
G75*
G03*
X25815475Y-38319326I-20277836J41516625D01*
G01*
X14925751Y-39331140D02*
G75*
G03*
X26598890Y-32591649I-14925754J39331139D01*
G01*
X-43849384Y5021738D02*
G75*
G03*
X-43849384Y-5021738I43849247J-5021738D01*
G01*
X-9441181Y58170822D02*
G75*
G02*
X9441181Y58170822I9441181J-58170772D01*
G01*
X45445109Y30616067D02*
G75*
G02*
X47454728Y27398000I-45444909J-30615967D01*
G01*
X22644255Y52160828D02*
G75*
G02*
X33850474Y45690914I-22644255J-52160828D01*
G01*
X54664652Y3791737D02*
G75*
G02*
X54795999Y0I-54664552J-3791737D01*
G01*
X26598890Y32591649D02*
G75*
G03*
X14925751Y39331140I-26598913J-32591682D01*
G01*
X-45656819Y-37261715D02*
G75*
G02*
X-55098001Y-20909108I45656765J37261683D01*
G01*
X40485550Y17575739D02*
G75*
G03*
X35463812Y26273645I-40485450J-17575679D01*
G01*
X12720607Y-59658915D02*
G75*
G02*
X-12720607Y-59658915I-12720607J59658908D01*
G01*
X37261715Y-45656819D02*
G75*
G02*
X20909108Y-55098000I-37261685J45656769D01*
G01*
X41524641Y-6739490D02*
G75*
G03*
X41524641Y6739490I-41524641J6739490D01*
G01*
X-14925751Y39331139D02*
G75*
G03*
X-26598890Y32591649I14925751J-39331139D01*
G01*
X-56494731Y-6469914D02*
G75*
G02*
X-56494731Y6469914I56494625J6469914D01*
G01*
X-20277773Y41516521D02*
G75*
G03*
X-25815472Y38319323I20277873J-41516621D01*
G01*
X-33850475Y45690915D02*
G75*
G02*
X-22644255Y52160829I33850426J-45690831D01*
G01*
X5021738Y43849384D02*
G75*
G03*
X-5021738Y43849384I-5021738J-43849247D01*
G01*
X20909108Y55098001D02*
G75*
G02*
X37261715Y45656819I-20909108J-55098001D01*
G01*
X-34641015Y-20000000D02*
G75*
G03*
X-29708741Y-26784147I34640988J19999985D01*
G01*
X-3791737Y54664652D02*
G75*
G02*
X0Y54795999I3791737J-54664552D01*
G01*
X32591649Y-26598890D02*
G75*
G03*
X39331140Y-14925751I-32591682J26598913D01*
G01*
X49236847Y-24048585D02*
G75*
G02*
X47454728Y-27397999I-49236847J24048585D01*
G01*
X49236847Y-24048585D02*
G75*
G02*
X47454728Y-27397999I-49236847J24048585D01*
G01*
X-52160829Y22644255D02*
G75*
G02*
X-45690915Y33850475I52160811J-22644245D01*
G01*
X-34641016Y19999999D02*
G75*
G03*
X-38050124Y12336451I34641016J-19999999D01*
G01*
X40845826Y-45305832D02*
G75*
G02*
X18813088Y-58026439I-40845826J45305832D01*
G01*
X-5021738Y-43849384D02*
G75*
G03*
X5021738Y-43849384I5021738J43849247D01*
G01*
X-12720607Y59658915D02*
G75*
G02*
X12720607Y59658915I12720607J-59658908D01*
G01*
X22644255Y52160828D02*
G75*
G02*
X33850474Y45690914I-22644255J-52160828D01*
G01*
X-49236846Y24048585D02*
G75*
G02*
X-47454727Y27397999I49236819J-24048568D01*
G01*
X-20909108Y-55098001D02*
G75*
G02*
X-37261715Y-45656819I20909096J55097980D01*
G01*
X45445109Y30616067D02*
G75*
G02*
X47454728Y27398000I-45444909J-30615967D01*
G01*
X-20000000Y34641015D02*
G75*
G03*
X-26784147Y29708741I19999985J-34640988D01*
G01*
X20909108Y55098001D02*
G75*
G02*
X37261715Y45656819I-20909108J-55098001D01*
G01*
X17575739Y-40485550D02*
G75*
G03*
X26273645Y-35463812I-17575679J40485450D01*
G01*
X-25815475Y-38319327D02*
G75*
G03*
X-20277774Y-41516524I25815675J38319627D01*
G01*
X-32591648Y26598889D02*
G75*
G03*
X-39331139Y14925751I32591678J-26598909D01*
G01*
X-12720607Y59658915D02*
G75*
G02*
X12720607Y59658915I12720607J-59658908D01*
G01*
X46093248Y-3197193D02*
G75*
G03*
X46093248Y3197193I-46092948J3197193D01*
G01*
X-3197193Y-46093248D02*
G75*
G03*
X3197193Y-46093248I3197193J46092969D01*
G01*
X30616067Y-45445109D02*
G75*
G02*
X27398000Y-47454728I-30615967J45444909D01*
G01*
X34641016Y-19999999D02*
G75*
G03*
X38050124Y-12336451I-34641021J20000002D01*
G01*
X46093248Y-3197193D02*
G75*
G03*
X46093248Y3197193I-46092948J3197193D01*
G01*
X-22644255Y-52160829D02*
G75*
G02*
X-33850475Y-45690915I22644245J52160811D01*
G01*
X-6739490Y-41524642D02*
G75*
G03*
X6739490Y-41524642I6739490J41524637D01*
G01*
X22644255Y52160828D02*
G75*
G02*
X33850474Y45690914I-22644255J-52160828D01*
G01*
X-25815475Y-38319327D02*
G75*
G03*
X-20277774Y-41516524I25815675J38319627D01*
G01*
X-59658915Y-12720607D02*
G75*
G02*
X-59658915Y12720607I59658908J12720607D01*
G01*
X6739490Y41524642D02*
G75*
G03*
X-6739490Y41524642I-6739490J-41524637D01*
G01*
X39331139Y14925751D02*
G75*
G03*
X32591649Y26598890I-39331139J-14925751D01*
G01*
X45305832Y40845826D02*
G75*
G02*
X58026439Y18813088I-45305832J-40845826D01*
G01*
X-40845826Y45305832D02*
G75*
G02*
X-18813088Y58026439I40845821J-45305824D01*
G01*
X40000000Y0D02*
G75*
G03*
X39120600Y8341382I-40000000J0D01*
G01*
X45690914Y33850474D02*
G75*
G02*
X52160828Y22644254I-45690834J-33850424D01*
G01*
X-26273645Y-35463811D02*
G75*
G03*
X-17575739Y-40485550I26273628J35463775D01*
G01*
X-49236846Y24048585D02*
G75*
G02*
X-47454727Y27397999I49236819J-24048568D01*
G01*
X37261715Y-45656819D02*
G75*
G02*
X20909108Y-55098000I-37261685J45656769D01*
G01*
X25815475Y38319327D02*
G75*
G03*
X20277773Y41516521I-25815642J-38319612D01*
G01*
X-52160829Y22644255D02*
G75*
G02*
X-45690915Y33850475I52160811J-22644245D01*
G01*
X-59658915Y-12720607D02*
G75*
G02*
X-59658915Y12720607I59658908J12720607D01*
G01*
X9441181Y-58170822D02*
G75*
G02*
X-9441181Y-58170822I-9441181J58170772D01*
G01*
X-45690915Y-33850475D02*
G75*
G02*
X-52160829Y-22644255I45690831J33850426D01*
G01*
X-56494731Y-6469914D02*
G75*
G02*
X-56494731Y6469914I56494625J6469914D01*
G01*
X-58170822Y-9441181D02*
G75*
G02*
X-58170822Y9441181I58170772J9441181D01*
G01*
X-6469914Y56494731D02*
G75*
G02*
X6469914Y56494731I6469914J-56494625D01*
G01*
X49236847Y-24048585D02*
G75*
G02*
X47454728Y-27397999I-49236847J24048585D01*
G01*
X-40000000Y0D02*
G75*
G03*
X-39120600Y-8341382I39999975J-3D01*
G01*
X-30616066Y45445108D02*
G75*
G02*
X-27398000Y47454727I30615957J-45444903D01*
G01*
X19999999Y34641016D02*
G75*
G03*
X12336451Y38050124I-20000002J-34641021D01*
G01*
X-26273645Y-35463811D02*
G75*
G03*
X-17575739Y-40485550I26273628J35463775D01*
G01*
X32591649Y-26598890D02*
G75*
G03*
X39331140Y-14925751I-32591682J26598913D01*
G01*
X56494730Y6469914D02*
G75*
G02*
X56494730Y-6469914I-56494630J-6469914D01*
G01*
X-20909108Y-55098001D02*
G75*
G02*
X-37261715Y-45656819I20909096J55097980D01*
G01*
X34641016Y-19999999D02*
G75*
G03*
X38050124Y-12336451I-34641021J20000002D01*
G01*
X17575739Y-40485550D02*
G75*
G03*
X26273645Y-35463812I-17575679J40485450D01*
G01*
X-45305832Y-40845826D02*
G75*
G02*
X-58026439Y-18813088I45305824J40845821D01*
G01*
X38319327Y-25815475D02*
G75*
G03*
X41516521Y-20277773I-38319612J25815642D01*
G01*
X-22644255Y-52160829D02*
G75*
G02*
X-33850475Y-45690915I22644245J52160811D01*
G01*
X-9441181Y58170822D02*
G75*
G02*
X9441181Y58170822I9441181J-58170772D01*
G01*
X38319327Y-25815475D02*
G75*
G03*
X41516521Y-20277773I-38319612J25815642D01*
G01*
X-40000000Y0D02*
G75*
G03*
X-39120600Y-8341382I39999975J-3D01*
G01*
X3791737Y-54664652D02*
G75*
G02*
X0Y-54795999I-3791740J54664525D01*
G01*
X-20909108Y-55098001D02*
G75*
G02*
X-37261715Y-45656819I20909096J55097980D01*
G01*
X58170822Y9441181D02*
G75*
G02*
X58170822Y-9441181I-58170722J-9441181D01*
G01*
X37261715Y-45656819D02*
G75*
G02*
X20909108Y-55098000I-37261685J45656769D01*
G01*
X-35463811Y26273645D02*
G75*
G03*
X-40485550Y17575739I35463775J-26273628D01*
G01*
X-19999999Y-34641016D02*
G75*
G03*
X-12336451Y-38050124I19999999J34641016D01*
G01*
X56494730Y6469914D02*
G75*
G02*
X56494730Y-6469914I-56494630J-6469914D01*
G01*
X6469914Y-56494731D02*
G75*
G02*
X-6469914Y-56494731I-6469914J56494625D01*
G01*
X-33850475Y45690915D02*
G75*
G02*
X-22644255Y52160829I33850426J-45690831D01*
G01*
X41516520Y20277773D02*
G75*
G03*
X38319326Y25815475I-41516625J-20277836D01*
G01*
X34641016Y-19999999D02*
G75*
G03*
X38050124Y-12336451I-34641021J20000002D01*
G01*
X3197193Y46093248D02*
G75*
G03*
X-3197193Y46093248I-3197193J-46092969D01*
G01*
X-5021738Y-43849384D02*
G75*
G03*
X5021738Y-43849384I5021738J43849247D01*
G01*
X-34641016Y19999999D02*
G75*
G03*
X-38050124Y12336451I34641016J-19999999D01*
G01*
X-58170822Y-9441181D02*
G75*
G02*
X-58170822Y9441181I58170772J9441181D01*
G01*
X25815475Y38319327D02*
G75*
G03*
X20277773Y41516521I-25815642J-38319612D01*
G01*
X40845826Y-45305832D02*
G75*
G02*
X18813088Y-58026439I-40845826J45305832D01*
G01*
X45656819Y37261715D02*
G75*
G02*
X55098000Y20909108I-45656769J-37261685D01*
G01*
X0Y40000000D02*
G75*
G03*
X-8341382Y39120600I-3J-39999975D01*
G01*
X35463811Y-26273645D02*
G75*
G03*
X40485550Y-17575738I-35463811J26273645D01*
G01*
X-49236846Y24048585D02*
G75*
G02*
X-47454727Y27397999I49236819J-24048568D01*
G01*
X-18813088Y-58026439D02*
G75*
G02*
X-40845826Y-45305832I18813088J58026439D01*
G01*
X-14925751Y39331139D02*
G75*
G03*
X-26598890Y32591649I14925751J-39331139D01*
G01*
X3197193Y46093248D02*
G75*
G03*
X-3197193Y46093248I-3197193J-46092969D01*
G01*
X-45690915Y-33850475D02*
G75*
G02*
X-52160829Y-22644255I45690831J33850426D01*
G01*
X34641015Y20000000D02*
G75*
G03*
X29708742Y26784148I-34641015J-20000000D01*
G01*
X41524641Y-6739490D02*
G75*
G03*
X41524641Y6739490I-41524641J6739490D01*
G01*
X43849384Y-5021738D02*
G75*
G03*
X43849384Y5021738I-43849284J5021738D01*
G01*
X40000000Y0D02*
G75*
G03*
X39120600Y8341382I-40000000J0D01*
G01*
X39331139Y14925751D02*
G75*
G03*
X32591649Y26598890I-39331139J-14925751D01*
G01*
X-56494731Y-6469914D02*
G75*
G02*
X-56494731Y6469914I56494625J6469914D01*
G01*
X24048585Y49236847D02*
G75*
G02*
X27397999Y47454728I-24048585J-49236847D01*
G01*
X-34641015Y-20000000D02*
G75*
G03*
X-29708741Y-26784147I34640988J19999985D01*
G01*
X-41516521Y-20277773D02*
G75*
G03*
X-38319323Y-25815472I41516621J20277873D01*
G01*
X34641015Y20000000D02*
G75*
G03*
X29708742Y26784148I-34641015J-20000000D01*
G01*
X-35463811Y26273645D02*
G75*
G03*
X-40485550Y17575739I35463775J-26273628D01*
G01*
X-32591648Y26598889D02*
G75*
G03*
X-39331139Y14925751I32591678J-26598909D01*
G01*
X55098001Y-20909108D02*
G75*
G02*
X45656819Y-37261715I-55098001J20909108D01*
G01*
X-41516521Y-20277773D02*
G75*
G03*
X-38319323Y-25815472I41516621J20277873D01*
G01*
X-41524642Y6739490D02*
G75*
G03*
X-41524642Y-6739490I41524637J-6739490D01*
G01*
X20000000Y-34641015D02*
G75*
G03*
X26784148Y-29708742I-20000000J34641015D01*
G01*
X-58026439Y18813088D02*
G75*
G02*
X-45305832Y40845826I58026439J-18813088D01*
G01*
X-55098001Y20909108D02*
G75*
G02*
X-45656819Y37261715I55097980J-20909096D01*
G01*
X-41524642Y6739490D02*
G75*
G03*
X-41524642Y-6739490I41524637J-6739490D01*
G01*
X-17575739Y40485550D02*
G75*
G03*
X-26273645Y35463811I17575683J-40485447D01*
G01*
X-17575739Y40485550D02*
G75*
G03*
X-26273645Y35463811I17575683J-40485447D01*
G01*
X5021738Y43849384D02*
G75*
G03*
X-5021738Y43849384I-5021738J-43849247D01*
G01*
X-58026439Y18813088D02*
G75*
G02*
X-45305832Y40845826I58026439J-18813088D01*
G01*
X20277773Y-41516520D02*
G75*
G03*
X25815475Y-38319326I-20277836J41516625D01*
G01*
X-6469914Y56494731D02*
G75*
G02*
X6469914Y56494731I6469914J-56494625D01*
G01*
X-20000000Y34641015D02*
G75*
G03*
X-26784147Y29708741I19999985J-34640988D01*
G01*
X24048585Y49236847D02*
G75*
G02*
X27397999Y47454728I-24048585J-49236847D01*
G01*
X45690914Y33850474D02*
G75*
G02*
X52160828Y22644254I-45690834J-33850424D01*
G01*
X-41524642Y6739490D02*
G75*
G03*
X-41524642Y-6739490I41524637J-6739490D01*
G01*
X-14925751Y39331139D02*
G75*
G03*
X-26598890Y32591649I14925751J-39331139D01*
G01*
X24048585Y49236847D02*
G75*
G02*
X27397999Y47454728I-24048585J-49236847D01*
G01*
X-54664652Y-3791737D02*
G75*
G02*
X-54795999Y0I54664525J3791740D01*
G01*
X-33850475Y45690915D02*
G75*
G02*
X-22644255Y52160829I33850426J-45690831D01*
G01*
X32591649Y-26598890D02*
G75*
G03*
X39331140Y-14925751I-32591682J26598913D01*
G01*
X43849384Y-5021738D02*
G75*
G03*
X43849384Y5021738I-43849284J5021738D01*
G01*
X56494730Y6469914D02*
G75*
G02*
X56494730Y-6469914I-56494630J-6469914D01*
G01*
X6469914Y-56494731D02*
G75*
G02*
X-6469914Y-56494731I-6469914J56494625D01*
G01*
X-40485550Y-17575739D02*
G75*
G03*
X-35463811Y-26273645I40485447J17575683D01*
G01*
X-46093248Y3197193D02*
G75*
G03*
X-46093248Y-3197193I46092969J-3197193D01*
G01*
X-19999999Y-34641016D02*
G75*
G03*
X-12336451Y-38050124I19999999J34641016D01*
G01*
X52160828Y-22644255D02*
G75*
G02*
X45690914Y-33850474I-52160828J22644255D01*
G01*
X-37261715Y45656819D02*
G75*
G02*
X-20909108Y55098001I37261683J-45656765D01*
G01*
X-20277773Y41516521D02*
G75*
G03*
X-25815472Y38319323I20277873J-41516621D01*
G01*
X14925751Y-39331140D02*
G75*
G03*
X26598890Y-32591649I-14925754J39331139D01*
G01*
X-38319327Y25815475D02*
G75*
G03*
X-41516524Y20277774I38319627J-25815675D01*
G01*
X41516520Y20277773D02*
G75*
G03*
X38319326Y25815475I-41516625J-20277836D01*
G01*
X-45305832Y-40845826D02*
G75*
G02*
X-58026439Y-18813088I45305824J40845821D01*
G01*
X30616067Y-45445109D02*
G75*
G02*
X27398000Y-47454728I-30615967J45444909D01*
G01*
X-30616066Y45445108D02*
G75*
G02*
X-27398000Y47454727I30615957J-45444903D01*
G01*
X45690914Y33850474D02*
G75*
G02*
X52160828Y22644254I-45690834J-33850424D01*
G01*
X54664652Y3791737D02*
G75*
G02*
X54795999Y0I-54664552J-3791737D01*
G01*
X-18813088Y-58026439D02*
G75*
G02*
X-40845826Y-45305832I18813088J58026439D01*
G01*
X-24048585Y-49236846D02*
G75*
G02*
X-27397999Y-47454727I24048568J49236819D01*
G01*
X-26273645Y-35463811D02*
G75*
G03*
X-17575739Y-40485550I26273628J35463775D01*
G01*
X-3197193Y-46093248D02*
G75*
G03*
X3197193Y-46093248I3197193J46092969D01*
G01*
X25815475Y38319327D02*
G75*
G03*
X20277773Y41516521I-25815642J-38319612D01*
G01*
X26598890Y32591649D02*
G75*
G03*
X14925751Y39331140I-26598913J-32591682D01*
G01*
X6469914Y-56494731D02*
G75*
G02*
X-6469914Y-56494731I-6469914J56494625D01*
G01*
X-39331140Y-14925751D02*
G75*
G03*
X-32591649Y-26598890I39331139J14925754D01*
G01*
X52160828Y-22644255D02*
G75*
G02*
X45690914Y-33850474I-52160828J22644255D01*
G01*
X-59658915Y-12720607D02*
G75*
G02*
X-59658915Y12720607I59658908J12720607D01*
G01*
X3791737Y-54664652D02*
G75*
G02*
X0Y-54795999I-3791740J54664525D01*
G01*
X14925751Y-39331140D02*
G75*
G03*
X26598890Y-32591649I-14925754J39331139D01*
G01*
X58026438Y-18813088D02*
G75*
G02*
X45305831Y-40845825I-58026450J18813095D01*
G01*
X33850474Y-45690914D02*
G75*
G02*
X22644254Y-52160828I-33850424J45690834D01*
G01*
X-40845826Y45305832D02*
G75*
G02*
X-18813088Y58026439I40845821J-45305824D01*
G01*
X-5021738Y-43849384D02*
G75*
G03*
X5021738Y-43849384I5021738J43849247D01*
G01*
X-18813088Y-58026439D02*
G75*
G02*
X-40845826Y-45305832I18813088J58026439D01*
G01*
X0Y40000000D02*
G75*
G03*
X-8341382Y39120600I-3J-39999975D01*
G01*
X-52160829Y22644255D02*
G75*
G02*
X-45690915Y33850475I52160811J-22644245D01*
G01*
X46093248Y-3197193D02*
G75*
G03*
X46093248Y3197193I-46092948J3197193D01*
G01*
X-9441181Y58170822D02*
G75*
G02*
X9441181Y58170822I9441181J-58170772D01*
G01*
X-22644255Y-52160829D02*
G75*
G02*
X-33850475Y-45690915I22644245J52160811D01*
G01*
X40000000Y0D02*
G75*
G03*
X39120600Y8341382I-40000000J0D01*
G01*
X-26598889Y-32591648D02*
G75*
G03*
X-14925751Y-39331139I26598909J32591678D01*
G01*
X6739490Y41524642D02*
G75*
G03*
X-6739490Y41524642I-6739490J-41524637D01*
G01*
X59658914Y12720607D02*
G75*
G02*
X59658914Y-12720607I-59658914J-12720607D01*
G01*
X20277773Y-41516520D02*
G75*
G03*
X25815475Y-38319326I-20277836J41516625D01*
G01*
X-43849384Y5021738D02*
G75*
G03*
X-43849384Y-5021738I43849247J-5021738D01*
G01*
X-45445108Y-30616066D02*
G75*
G02*
X-47454727Y-27398000I45444903J30615957D01*
G01*
X-45690915Y-33850475D02*
G75*
G02*
X-52160829Y-22644255I45690831J33850426D01*
G01*
X-38319327Y25815475D02*
G75*
G03*
X-41516524Y20277774I38319627J-25815675D01*
G01*
X-39331140Y-14925751D02*
G75*
G03*
X-32591649Y-26598890I39331139J14925754D01*
G01*
X59658914Y12720607D02*
G75*
G02*
X59658914Y-12720607I-59658914J-12720607D01*
G01*
X3791737Y-54664652D02*
G75*
G02*
X0Y-54795999I-3791740J54664525D01*
G01*
X45656819Y37261715D02*
G75*
G02*
X55098000Y20909108I-45656769J-37261685D01*
G01*
X-12720607Y59658915D02*
G75*
G02*
X12720607Y59658915I12720607J-59658908D01*
G01*
X-3791737Y54664652D02*
G75*
G02*
X0Y54795999I3791737J-54664552D01*
G01*
X45445109Y30616067D02*
G75*
G02*
X47454728Y27398000I-45444909J-30615967D01*
G01*
X-6739490Y-41524642D02*
G75*
G03*
X6739490Y-41524642I6739490J41524637D01*
G01*
X19999999Y34641016D02*
G75*
G03*
X12336451Y38050124I-20000002J-34641021D01*
G01*
X-20277773Y41516521D02*
G75*
G03*
X-25815472Y38319323I20277873J-41516621D01*
G01*
X-6469914Y56494731D02*
G75*
G02*
X6469914Y56494731I6469914J-56494625D01*
G01*
X-45445108Y-30616066D02*
G75*
G02*
X-47454727Y-27398000I45444903J30615957D01*
G01*
X45305832Y40845826D02*
G75*
G02*
X58026439Y18813088I-45305832J-40845826D01*
G01*
X-54664652Y-3791737D02*
G75*
G02*
X-54795999Y0I54664525J3791740D01*
G01*
X55098001Y-20909108D02*
G75*
G02*
X45656819Y-37261715I-55098001J20909108D01*
G01*
X-26598889Y-32591648D02*
G75*
G03*
X-14925751Y-39331139I26598909J32591678D01*
G01*
X-26598889Y-32591648D02*
G75*
G03*
X-14925751Y-39331139I26598909J32591678D01*
G01*
X58170822Y9441181D02*
G75*
G02*
X58170822Y-9441181I-58170722J-9441181D01*
G01*
X38319327Y-25815475D02*
G75*
G03*
X41516521Y-20277773I-38319612J25815642D01*
G01*
X3197193Y46093248D02*
G75*
G03*
X-3197193Y46093248I-3197193J-46092969D01*
G01*
X-30616066Y45445108D02*
G75*
G02*
X-27398000Y47454727I30615957J-45444903D01*
G01*
X-43849384Y5021738D02*
G75*
G03*
X-43849384Y-5021738I43849247J-5021738D01*
G01*
X40485550Y17575739D02*
G75*
G03*
X35463812Y26273645I-40485450J-17575679D01*
G01*
X-45656819Y-37261715D02*
G75*
G02*
X-55098001Y-20909108I45656765J37261683D01*
G01*
X0Y-40000000D02*
G75*
G03*
X8341382Y-39120600I3J39999975D01*
G01*
X-35463811Y26273645D02*
G75*
G03*
X-40485550Y17575739I35463775J-26273628D01*
G01*
X18813088Y58026438D02*
G75*
G02*
X40845825Y45305831I-18813095J-58026450D01*
G01*
X-40000000Y0D02*
G75*
G03*
X-39120600Y-8341382I39999975J-3D01*
G01*
X-6739490Y-41524642D02*
G75*
G03*
X6739490Y-41524642I6739490J41524637D01*
G01*
X-37261715Y45656819D02*
G75*
G02*
X-20909108Y55098001I37261683J-45656765D01*
G01*
X-45445108Y-30616066D02*
G75*
G02*
X-47454727Y-27398000I45444903J30615957D01*
G01*
X-39331140Y-14925751D02*
G75*
G03*
X-32591649Y-26598890I39331139J14925754D01*
G01*
X-58170822Y-9441181D02*
G75*
G02*
X-58170822Y9441181I58170772J9441181D01*
G01*
X-55098001Y20909108D02*
G75*
G02*
X-45656819Y37261715I55097980J-20909096D01*
G01*
X-41516521Y-20277773D02*
G75*
G03*
X-38319323Y-25815472I41516621J20277873D01*
G01*
X-40845826Y45305832D02*
G75*
G02*
X-18813088Y58026439I40845821J-45305824D01*
G01*
X52160828Y-22644255D02*
G75*
G02*
X45690914Y-33850474I-52160828J22644255D01*
G01*
X-32591648Y26598889D02*
G75*
G03*
X-39331139Y14925751I32591678J-26598909D01*
G01*
X58026438Y-18813088D02*
G75*
G02*
X45305831Y-40845825I-58026450J18813095D01*
G01*
X58026438Y-18813088D02*
G75*
G02*
X45305831Y-40845825I-58026450J18813095D01*
G01*
X-45656819Y-37261715D02*
G75*
G02*
X-55098001Y-20909108I45656765J37261683D01*
G01*
X-46093248Y3197193D02*
G75*
G03*
X-46093248Y-3197193I46092969J-3197193D01*
G01*
X-24048585Y-49236846D02*
G75*
G02*
X-27397999Y-47454727I24048568J49236819D01*
G01*
X12720607Y-59658915D02*
G75*
G02*
X-12720607Y-59658915I-12720607J59658908D01*
G01*
X26273645Y35463811D02*
G75*
G03*
X17575738Y40485550I-26273645J-35463811D01*
G01*
X59658914Y12720607D02*
G75*
G02*
X59658914Y-12720607I-59658914J-12720607D01*
G01*
X6739490Y41524642D02*
G75*
G03*
X-6739490Y41524642I-6739490J-41524637D01*
G01*
X33850474Y-45690914D02*
G75*
G02*
X22644254Y-52160828I-33850424J45690834D01*
G01*
X41516520Y20277773D02*
G75*
G03*
X38319326Y25815475I-41516625J-20277836D01*
G01*
X-34641016Y19999999D02*
G75*
G03*
X-38050124Y12336451I34641016J-19999999D01*
G01*
X-40485550Y-17575739D02*
G75*
G03*
X-35463811Y-26273645I40485447J17575683D01*
G01*
X18813088Y58026438D02*
G75*
G02*
X40845825Y45305831I-18813095J-58026450D01*
G01*
X-25815475Y-38319327D02*
G75*
G03*
X-20277774Y-41516524I25815675J38319627D01*
G01*
X9441181Y-58170822D02*
G75*
G02*
X-9441181Y-58170822I-9441181J58170772D01*
G01*
X-37261715Y45656819D02*
G75*
G02*
X-20909108Y55098001I37261683J-45656765D01*
G01*
X17575739Y-40485550D02*
G75*
G03*
X26273645Y-35463812I-17575679J40485450D01*
G01*
X-17575739Y40485550D02*
G75*
G03*
X-26273645Y35463811I17575683J-40485447D01*
G01*
%TD*%
M02*
