%TF.GenerationSoftware,KiCad,Pcbnew,7.99.0-3356-g00904e8e23*%
%TF.CreationDate,2023-10-26T14:27:13+05:30*%
%TF.ProjectId,kimotor-project,6b696d6f-746f-4722-9d70-726f6a656374,rev?*%
%TF.SameCoordinates,Original*%
%TF.FileFunction,Soldermask,Bot*%
%TF.FilePolarity,Negative*%
%FSLAX46Y46*%
G04 Gerber Fmt 4.6, Leading zero omitted, Abs format (unit mm)*
G04 Created by KiCad (PCBNEW 7.99.0-3356-g00904e8e23) date 2023-10-26 14:27:13*
%MOMM*%
%LPD*%
G01*
G04 APERTURE LIST*
G04 Aperture macros list*
%AMRoundRect*
0 Rectangle with rounded corners*
0 $1 Rounding radius*
0 $2 $3 $4 $5 $6 $7 $8 $9 X,Y pos of 4 corners*
0 Add a 4 corners polygon primitive as box body*
4,1,4,$2,$3,$4,$5,$6,$7,$8,$9,$2,$3,0*
0 Add four circle primitives for the rounded corners*
1,1,$1+$1,$2,$3*
1,1,$1+$1,$4,$5*
1,1,$1+$1,$6,$7*
1,1,$1+$1,$8,$9*
0 Add four rect primitives between the rounded corners*
20,1,$1+$1,$2,$3,$4,$5,0*
20,1,$1+$1,$4,$5,$6,$7,0*
20,1,$1+$1,$6,$7,$8,$9,0*
20,1,$1+$1,$8,$9,$2,$3,0*%
G04 Aperture macros list end*
%ADD10RoundRect,0.250000X-0.734847X-0.424264X0.424264X-0.734847X0.734847X0.424264X-0.424264X0.734847X0*%
%ADD11RoundRect,0.250000X-0.848528X0.000000X0.000000X-0.848528X0.848528X0.000000X0.000000X0.848528X0*%
%ADD12RoundRect,0.250000X-0.424264X-0.734847X0.734847X-0.424264X0.424264X0.734847X-0.734847X0.424264X0*%
G04 APERTURE END LIST*
D10*
%TO.C,T2*%
X60853327Y-16305599D03*
%TD*%
D11*
%TO.C,T3*%
X44547727Y-44547727D03*
%TD*%
%TO.C,T3*%
X44547727Y-44547727D03*
%TD*%
D12*
%TO.C,T1*%
X60853327Y16305599D03*
%TD*%
D10*
%TO.C,T2*%
X60853327Y-16305599D03*
%TD*%
D12*
%TO.C,T1*%
X60853327Y16305599D03*
%TD*%
G36*
X1730566Y27537614D02*
G01*
X1734454Y27537369D01*
X3456263Y27374609D01*
X3460128Y27374121D01*
X5168289Y27103576D01*
X5172116Y27102846D01*
X6859960Y26725568D01*
X6863733Y26724599D01*
X8524519Y26242096D01*
X8528224Y26240892D01*
X10155453Y25655053D01*
X10159076Y25653619D01*
X11746313Y24966761D01*
X11749838Y24965102D01*
X13290814Y24179934D01*
X13294228Y24178058D01*
X14782856Y23297686D01*
X14786145Y23295599D01*
X16216561Y22323488D01*
X16219713Y22321198D01*
X17586251Y21261203D01*
X17589252Y21258720D01*
X18886569Y20114983D01*
X18889409Y20112316D01*
X20112316Y18889409D01*
X20114983Y18886569D01*
X21258720Y17589252D01*
X21261203Y17586251D01*
X22321198Y16219713D01*
X22323488Y16216561D01*
X23295599Y14786145D01*
X23297686Y14782856D01*
X24178058Y13294228D01*
X24179934Y13290814D01*
X24965102Y11749838D01*
X24966761Y11746313D01*
X25653619Y10159076D01*
X25655053Y10155453D01*
X26240892Y8528224D01*
X26242096Y8524519D01*
X26724599Y6863733D01*
X26725568Y6859960D01*
X27102846Y5172116D01*
X27103576Y5168289D01*
X27374121Y3460128D01*
X27374609Y3456263D01*
X27537369Y1734454D01*
X27537614Y1730566D01*
X27591938Y1948D01*
X27591938Y-1948D01*
X27537614Y-1730566D01*
X27537369Y-1734454D01*
X27374609Y-3456263D01*
X27374121Y-3460128D01*
X27103576Y-5168289D01*
X27102846Y-5172116D01*
X26725568Y-6859960D01*
X26724599Y-6863733D01*
X26242096Y-8524519D01*
X26240892Y-8528224D01*
X25655053Y-10155453D01*
X25653619Y-10159076D01*
X24966761Y-11746313D01*
X24965102Y-11749838D01*
X24179934Y-13290814D01*
X24178058Y-13294228D01*
X23297686Y-14782856D01*
X23295599Y-14786145D01*
X22323488Y-16216561D01*
X22321198Y-16219713D01*
X21261203Y-17586251D01*
X21258720Y-17589252D01*
X20114983Y-18886569D01*
X20112316Y-18889409D01*
X18889409Y-20112316D01*
X18886569Y-20114983D01*
X17589252Y-21258720D01*
X17586251Y-21261203D01*
X16219713Y-22321198D01*
X16216561Y-22323488D01*
X14786145Y-23295599D01*
X14782856Y-23297686D01*
X13294228Y-24178058D01*
X13290814Y-24179934D01*
X11749838Y-24965102D01*
X11746313Y-24966761D01*
X10159076Y-25653619D01*
X10155453Y-25655053D01*
X8528224Y-26240892D01*
X8524519Y-26242096D01*
X6863733Y-26724599D01*
X6859960Y-26725568D01*
X5172116Y-27102846D01*
X5168289Y-27103576D01*
X3460128Y-27374121D01*
X3456263Y-27374609D01*
X1734454Y-27537369D01*
X1730566Y-27537614D01*
X1948Y-27591938D01*
X-1948Y-27591938D01*
X-1730566Y-27537614D01*
X-1734454Y-27537369D01*
X-3456263Y-27374609D01*
X-3460128Y-27374121D01*
X-5168289Y-27103576D01*
X-5172116Y-27102846D01*
X-6859960Y-26725568D01*
X-6863733Y-26724599D01*
X-8524519Y-26242096D01*
X-8528224Y-26240892D01*
X-10155453Y-25655053D01*
X-10159076Y-25653619D01*
X-11746313Y-24966761D01*
X-11749838Y-24965102D01*
X-13290814Y-24179934D01*
X-13294228Y-24178058D01*
X-14782856Y-23297686D01*
X-14786145Y-23295599D01*
X-16216561Y-22323488D01*
X-16219713Y-22321198D01*
X-17586251Y-21261203D01*
X-17589252Y-21258720D01*
X-18886569Y-20114983D01*
X-18889409Y-20112316D01*
X-20112316Y-18889409D01*
X-20114983Y-18886569D01*
X-21258720Y-17589252D01*
X-21261203Y-17586251D01*
X-22321198Y-16219713D01*
X-22323488Y-16216561D01*
X-23295599Y-14786145D01*
X-23297686Y-14782856D01*
X-24178058Y-13294228D01*
X-24179934Y-13290814D01*
X-24965102Y-11749838D01*
X-24966761Y-11746313D01*
X-25653619Y-10159076D01*
X-25655053Y-10155453D01*
X-26240892Y-8528224D01*
X-26242096Y-8524519D01*
X-26724599Y-6863733D01*
X-26725568Y-6859960D01*
X-27102846Y-5172116D01*
X-27103576Y-5168289D01*
X-27374121Y-3460128D01*
X-27374609Y-3456263D01*
X-27537369Y-1734454D01*
X-27537614Y-1730566D01*
X-27591938Y-1948D01*
X-27591938Y1948D01*
X-27537614Y1730566D01*
X-27537369Y1734454D01*
X-27374609Y3456263D01*
X-27374121Y3460128D01*
X-27103576Y5168289D01*
X-27102846Y5172116D01*
X-26725568Y6859960D01*
X-26724599Y6863733D01*
X-26242096Y8524519D01*
X-26240892Y8528224D01*
X-25655053Y10155453D01*
X-25653619Y10159076D01*
X-24966761Y11746313D01*
X-24965102Y11749838D01*
X-24179934Y13290814D01*
X-24178058Y13294228D01*
X-23297686Y14782856D01*
X-23295599Y14786145D01*
X-22323488Y16216561D01*
X-22321198Y16219713D01*
X-21261203Y17586251D01*
X-21258720Y17589252D01*
X-20114983Y18886569D01*
X-20112316Y18889409D01*
X-18889409Y20112316D01*
X-18886569Y20114983D01*
X-17589252Y21258720D01*
X-17586251Y21261203D01*
X-16219713Y22321198D01*
X-16216561Y22323488D01*
X-14786145Y23295599D01*
X-14782856Y23297686D01*
X-13294228Y24178058D01*
X-13290814Y24179934D01*
X-11749838Y24965102D01*
X-11746313Y24966761D01*
X-10159076Y25653619D01*
X-10155453Y25655053D01*
X-8528224Y26240892D01*
X-8524519Y26242096D01*
X-6863733Y26724599D01*
X-6859960Y26725568D01*
X-5172116Y27102846D01*
X-5168289Y27103576D01*
X-3460128Y27374121D01*
X-3456263Y27374609D01*
X-1734454Y27537369D01*
X-1730566Y27537614D01*
X-1948Y27591938D01*
X1948Y27591938D01*
X1730566Y27537614D01*
G37*
G36*
X4393386Y69861931D02*
G01*
X4397274Y69861686D01*
X8771395Y69448210D01*
X8775260Y69447722D01*
X13114756Y68760414D01*
X13118583Y68759684D01*
X17406401Y67801243D01*
X17410174Y67800274D01*
X21629317Y66574500D01*
X21633023Y66573296D01*
X25766874Y65085017D01*
X25770497Y65083583D01*
X29802761Y63338666D01*
X29806286Y63337007D01*
X33721024Y61342348D01*
X33724438Y61340472D01*
X37506199Y59103944D01*
X37509488Y59101857D01*
X41143358Y56632281D01*
X41146510Y56629991D01*
X44618128Y53937128D01*
X44621129Y53934645D01*
X47916843Y51029084D01*
X47919683Y51026417D01*
X51026417Y47919683D01*
X51029084Y47916843D01*
X53934645Y44621129D01*
X53937128Y44618128D01*
X56629991Y41146510D01*
X56632281Y41143358D01*
X59101857Y37509488D01*
X59103944Y37506199D01*
X61340472Y33724438D01*
X61342348Y33721024D01*
X63337007Y29806286D01*
X63338666Y29802761D01*
X65083583Y25770497D01*
X65085017Y25766874D01*
X66573296Y21633023D01*
X66574500Y21629317D01*
X67800274Y17410174D01*
X67801243Y17406401D01*
X68759684Y13118583D01*
X68760414Y13114756D01*
X69447722Y8775260D01*
X69448210Y8771395D01*
X69861686Y4397274D01*
X69861931Y4393386D01*
X69999938Y1948D01*
X69999938Y-1948D01*
X69861931Y-4393386D01*
X69861686Y-4397274D01*
X69448210Y-8771395D01*
X69447722Y-8775260D01*
X68760414Y-13114756D01*
X68759684Y-13118583D01*
X67801243Y-17406401D01*
X67800274Y-17410174D01*
X66574500Y-21629317D01*
X66573296Y-21633023D01*
X65085017Y-25766874D01*
X65083583Y-25770497D01*
X63338666Y-29802761D01*
X63337007Y-29806286D01*
X61342348Y-33721024D01*
X61340472Y-33724438D01*
X59103944Y-37506199D01*
X59101857Y-37509488D01*
X56632281Y-41143358D01*
X56629991Y-41146510D01*
X53937128Y-44618128D01*
X53934645Y-44621129D01*
X51029084Y-47916843D01*
X51026417Y-47919683D01*
X47919683Y-51026417D01*
X47916843Y-51029084D01*
X44621129Y-53934645D01*
X44618128Y-53937128D01*
X41146510Y-56629991D01*
X41143358Y-56632281D01*
X37509488Y-59101857D01*
X37506199Y-59103944D01*
X33724438Y-61340472D01*
X33721024Y-61342348D01*
X29806286Y-63337007D01*
X29802761Y-63338666D01*
X25770497Y-65083583D01*
X25766874Y-65085017D01*
X21633023Y-66573296D01*
X21629317Y-66574500D01*
X17410174Y-67800274D01*
X17406401Y-67801243D01*
X13118583Y-68759684D01*
X13114756Y-68760414D01*
X8775260Y-69447722D01*
X8771395Y-69448210D01*
X4397274Y-69861686D01*
X4393386Y-69861931D01*
X1948Y-69999938D01*
X-1948Y-69999938D01*
X-4393386Y-69861931D01*
X-4397274Y-69861686D01*
X-8771395Y-69448210D01*
X-8775260Y-69447722D01*
X-13114756Y-68760414D01*
X-13118583Y-68759684D01*
X-17406401Y-67801243D01*
X-17410174Y-67800274D01*
X-21629317Y-66574500D01*
X-21633023Y-66573296D01*
X-25766874Y-65085017D01*
X-25770497Y-65083583D01*
X-29802761Y-63338666D01*
X-29806286Y-63337007D01*
X-33721024Y-61342348D01*
X-33724438Y-61340472D01*
X-37506199Y-59103944D01*
X-37509488Y-59101857D01*
X-41143358Y-56632281D01*
X-41146510Y-56629991D01*
X-44618128Y-53937128D01*
X-44621129Y-53934645D01*
X-47916843Y-51029084D01*
X-47919683Y-51026417D01*
X-51026417Y-47919683D01*
X-51029084Y-47916843D01*
X-53934645Y-44621129D01*
X-53937128Y-44618128D01*
X-56629991Y-41146510D01*
X-56632281Y-41143358D01*
X-59101857Y-37509488D01*
X-59103944Y-37506199D01*
X-61340472Y-33724438D01*
X-61342348Y-33721024D01*
X-63337007Y-29806286D01*
X-63338666Y-29802761D01*
X-65083583Y-25770497D01*
X-65085017Y-25766874D01*
X-66573296Y-21633023D01*
X-66574500Y-21629317D01*
X-67800274Y-17410174D01*
X-67801243Y-17406401D01*
X-68759684Y-13118583D01*
X-68760414Y-13114756D01*
X-69447722Y-8775260D01*
X-69448210Y-8771395D01*
X-69861686Y-4397274D01*
X-69861931Y-4393386D01*
X-69999938Y-1948D01*
X-69999938Y0D01*
X-66034000Y0D01*
X-65903697Y-4146303D01*
X-65513301Y-8276258D01*
X-64864356Y-12373538D01*
X-63959421Y-16421984D01*
X-62802066Y-20405626D01*
X-61396857Y-24308742D01*
X-59749351Y-28115905D01*
X-57866029Y-31812132D01*
X-55754348Y-35382789D01*
X-53422627Y-38813811D01*
X-50880073Y-42091652D01*
X-50880074Y-42091651D01*
X-48136715Y-45203383D01*
X-45203383Y-48136715D01*
X-42091651Y-50880074D01*
X-42091652Y-50880073D01*
X-38813811Y-53422627D01*
X-35382789Y-55754348D01*
X-31812132Y-57866029D01*
X-28115905Y-59749351D01*
X-24308742Y-61396857D01*
X-20405626Y-62802066D01*
X-16421984Y-63959421D01*
X-12373538Y-64864356D01*
X-8276258Y-65513301D01*
X-4146303Y-65903697D01*
X0Y-66034000D01*
X4146303Y-65903697D01*
X8276258Y-65513301D01*
X12373538Y-64864356D01*
X16421984Y-63959421D01*
X20405626Y-62802066D01*
X24308742Y-61396857D01*
X28115905Y-59749351D01*
X31812132Y-57866029D01*
X35382789Y-55754348D01*
X38813811Y-53422627D01*
X42091652Y-50880073D01*
X42091651Y-50880074D01*
X45203383Y-48136715D01*
X48136715Y-45203383D01*
X50880074Y-42091651D01*
X50880073Y-42091652D01*
X53422627Y-38813811D01*
X55754348Y-35382789D01*
X57866029Y-31812132D01*
X59749351Y-28115905D01*
X61396857Y-24308742D01*
X62802066Y-20405626D01*
X63959421Y-16421984D01*
X64864356Y-12373538D01*
X65513301Y-8276258D01*
X65903697Y-4146303D01*
X66034000Y0D01*
X65903697Y4146303D01*
X65513301Y8276258D01*
X64864356Y12373538D01*
X63959421Y16421984D01*
X62802066Y20405626D01*
X61396857Y24308742D01*
X59749351Y28115905D01*
X57866029Y31812132D01*
X55754348Y35382789D01*
X53422627Y38813811D01*
X50880073Y42091652D01*
X50880074Y42091651D01*
X48136715Y45203383D01*
X45203383Y48136715D01*
X42091651Y50880074D01*
X42091652Y50880073D01*
X38813811Y53422627D01*
X35382789Y55754348D01*
X31812132Y57866029D01*
X28115905Y59749351D01*
X24308742Y61396857D01*
X20405626Y62802066D01*
X16421984Y63959421D01*
X12373538Y64864356D01*
X8276258Y65513301D01*
X4146303Y65903697D01*
X0Y66034000D01*
X-4146303Y65903697D01*
X-8276258Y65513301D01*
X-12373538Y64864356D01*
X-16421984Y63959421D01*
X-20405626Y62802066D01*
X-24308742Y61396857D01*
X-28115905Y59749351D01*
X-31812132Y57866029D01*
X-35382789Y55754348D01*
X-38813811Y53422627D01*
X-42091652Y50880073D01*
X-42091651Y50880074D01*
X-45203383Y48136715D01*
X-48136715Y45203383D01*
X-50880074Y42091651D01*
X-50880073Y42091652D01*
X-53422627Y38813811D01*
X-55754348Y35382789D01*
X-57866029Y31812132D01*
X-59749351Y28115905D01*
X-61396857Y24308742D01*
X-62802066Y20405626D01*
X-63959421Y16421984D01*
X-64864356Y12373538D01*
X-65513301Y8276258D01*
X-65903697Y4146303D01*
X-66034000Y0D01*
X-69999938Y0D01*
X-69999938Y1948D01*
X-69861931Y4393386D01*
X-69861686Y4397274D01*
X-69448210Y8771395D01*
X-69447722Y8775260D01*
X-68760414Y13114756D01*
X-68759684Y13118583D01*
X-67801243Y17406401D01*
X-67800274Y17410174D01*
X-66574500Y21629317D01*
X-66573296Y21633023D01*
X-65085017Y25766874D01*
X-65083583Y25770497D01*
X-63338666Y29802761D01*
X-63337007Y29806286D01*
X-61342348Y33721024D01*
X-61340472Y33724438D01*
X-59103944Y37506199D01*
X-59101857Y37509488D01*
X-56632281Y41143358D01*
X-56629991Y41146510D01*
X-53937128Y44618128D01*
X-53934645Y44621129D01*
X-51029084Y47916843D01*
X-51026417Y47919683D01*
X-47919683Y51026417D01*
X-47916843Y51029084D01*
X-44621129Y53934645D01*
X-44618128Y53937128D01*
X-41146510Y56629991D01*
X-41143358Y56632281D01*
X-37509488Y59101857D01*
X-37506199Y59103944D01*
X-33724438Y61340472D01*
X-33721024Y61342348D01*
X-29806286Y63337007D01*
X-29802761Y63338666D01*
X-25770497Y65083583D01*
X-25766874Y65085017D01*
X-21633023Y66573296D01*
X-21629317Y66574500D01*
X-17410174Y67800274D01*
X-17406401Y67801243D01*
X-13118583Y68759684D01*
X-13114756Y68760414D01*
X-8775260Y69447722D01*
X-8771395Y69448210D01*
X-4397274Y69861686D01*
X-4393386Y69861931D01*
X-1948Y69999938D01*
X1948Y69999938D01*
X4393386Y69861931D01*
G37*
G36*
X1730566Y27537614D02*
G01*
X1734454Y27537369D01*
X3456263Y27374609D01*
X3460128Y27374121D01*
X5168289Y27103576D01*
X5172116Y27102846D01*
X6859960Y26725568D01*
X6863733Y26724599D01*
X8524519Y26242096D01*
X8528224Y26240892D01*
X10155453Y25655053D01*
X10159076Y25653619D01*
X11746313Y24966761D01*
X11749838Y24965102D01*
X13290814Y24179934D01*
X13294228Y24178058D01*
X14782856Y23297686D01*
X14786145Y23295599D01*
X16216561Y22323488D01*
X16219713Y22321198D01*
X17586251Y21261203D01*
X17589252Y21258720D01*
X18886569Y20114983D01*
X18889409Y20112316D01*
X20112316Y18889409D01*
X20114983Y18886569D01*
X21258720Y17589252D01*
X21261203Y17586251D01*
X22321198Y16219713D01*
X22323488Y16216561D01*
X23295599Y14786145D01*
X23297686Y14782856D01*
X24178058Y13294228D01*
X24179934Y13290814D01*
X24965102Y11749838D01*
X24966761Y11746313D01*
X25653619Y10159076D01*
X25655053Y10155453D01*
X26240892Y8528224D01*
X26242096Y8524519D01*
X26724599Y6863733D01*
X26725568Y6859960D01*
X27102846Y5172116D01*
X27103576Y5168289D01*
X27374121Y3460128D01*
X27374609Y3456263D01*
X27537369Y1734454D01*
X27537614Y1730566D01*
X27591938Y1948D01*
X27591938Y-1948D01*
X27537614Y-1730566D01*
X27537369Y-1734454D01*
X27374609Y-3456263D01*
X27374121Y-3460128D01*
X27103576Y-5168289D01*
X27102846Y-5172116D01*
X26725568Y-6859960D01*
X26724599Y-6863733D01*
X26242096Y-8524519D01*
X26240892Y-8528224D01*
X25655053Y-10155453D01*
X25653619Y-10159076D01*
X24966761Y-11746313D01*
X24965102Y-11749838D01*
X24179934Y-13290814D01*
X24178058Y-13294228D01*
X23297686Y-14782856D01*
X23295599Y-14786145D01*
X22323488Y-16216561D01*
X22321198Y-16219713D01*
X21261203Y-17586251D01*
X21258720Y-17589252D01*
X20114983Y-18886569D01*
X20112316Y-18889409D01*
X18889409Y-20112316D01*
X18886569Y-20114983D01*
X17589252Y-21258720D01*
X17586251Y-21261203D01*
X16219713Y-22321198D01*
X16216561Y-22323488D01*
X14786145Y-23295599D01*
X14782856Y-23297686D01*
X13294228Y-24178058D01*
X13290814Y-24179934D01*
X11749838Y-24965102D01*
X11746313Y-24966761D01*
X10159076Y-25653619D01*
X10155453Y-25655053D01*
X8528224Y-26240892D01*
X8524519Y-26242096D01*
X6863733Y-26724599D01*
X6859960Y-26725568D01*
X5172116Y-27102846D01*
X5168289Y-27103576D01*
X3460128Y-27374121D01*
X3456263Y-27374609D01*
X1734454Y-27537369D01*
X1730566Y-27537614D01*
X1948Y-27591938D01*
X-1948Y-27591938D01*
X-1730566Y-27537614D01*
X-1734454Y-27537369D01*
X-3456263Y-27374609D01*
X-3460128Y-27374121D01*
X-5168289Y-27103576D01*
X-5172116Y-27102846D01*
X-6859960Y-26725568D01*
X-6863733Y-26724599D01*
X-8524519Y-26242096D01*
X-8528224Y-26240892D01*
X-10155453Y-25655053D01*
X-10159076Y-25653619D01*
X-11746313Y-24966761D01*
X-11749838Y-24965102D01*
X-13290814Y-24179934D01*
X-13294228Y-24178058D01*
X-14782856Y-23297686D01*
X-14786145Y-23295599D01*
X-16216561Y-22323488D01*
X-16219713Y-22321198D01*
X-17586251Y-21261203D01*
X-17589252Y-21258720D01*
X-18886569Y-20114983D01*
X-18889409Y-20112316D01*
X-20112316Y-18889409D01*
X-20114983Y-18886569D01*
X-21258720Y-17589252D01*
X-21261203Y-17586251D01*
X-22321198Y-16219713D01*
X-22323488Y-16216561D01*
X-23295599Y-14786145D01*
X-23297686Y-14782856D01*
X-24178058Y-13294228D01*
X-24179934Y-13290814D01*
X-24965102Y-11749838D01*
X-24966761Y-11746313D01*
X-25653619Y-10159076D01*
X-25655053Y-10155453D01*
X-26240892Y-8528224D01*
X-26242096Y-8524519D01*
X-26724599Y-6863733D01*
X-26725568Y-6859960D01*
X-27102846Y-5172116D01*
X-27103576Y-5168289D01*
X-27374121Y-3460128D01*
X-27374609Y-3456263D01*
X-27537369Y-1734454D01*
X-27537614Y-1730566D01*
X-27591938Y-1948D01*
X-27591938Y1948D01*
X-27537614Y1730566D01*
X-27537369Y1734454D01*
X-27374609Y3456263D01*
X-27374121Y3460128D01*
X-27103576Y5168289D01*
X-27102846Y5172116D01*
X-26725568Y6859960D01*
X-26724599Y6863733D01*
X-26242096Y8524519D01*
X-26240892Y8528224D01*
X-25655053Y10155453D01*
X-25653619Y10159076D01*
X-24966761Y11746313D01*
X-24965102Y11749838D01*
X-24179934Y13290814D01*
X-24178058Y13294228D01*
X-23297686Y14782856D01*
X-23295599Y14786145D01*
X-22323488Y16216561D01*
X-22321198Y16219713D01*
X-21261203Y17586251D01*
X-21258720Y17589252D01*
X-20114983Y18886569D01*
X-20112316Y18889409D01*
X-18889409Y20112316D01*
X-18886569Y20114983D01*
X-17589252Y21258720D01*
X-17586251Y21261203D01*
X-16219713Y22321198D01*
X-16216561Y22323488D01*
X-14786145Y23295599D01*
X-14782856Y23297686D01*
X-13294228Y24178058D01*
X-13290814Y24179934D01*
X-11749838Y24965102D01*
X-11746313Y24966761D01*
X-10159076Y25653619D01*
X-10155453Y25655053D01*
X-8528224Y26240892D01*
X-8524519Y26242096D01*
X-6863733Y26724599D01*
X-6859960Y26725568D01*
X-5172116Y27102846D01*
X-5168289Y27103576D01*
X-3460128Y27374121D01*
X-3456263Y27374609D01*
X-1734454Y27537369D01*
X-1730566Y27537614D01*
X-1948Y27591938D01*
X1948Y27591938D01*
X1730566Y27537614D01*
G37*
G36*
X4393386Y69861931D02*
G01*
X4397274Y69861686D01*
X8771395Y69448210D01*
X8775260Y69447722D01*
X13114756Y68760414D01*
X13118583Y68759684D01*
X17406401Y67801243D01*
X17410174Y67800274D01*
X21629317Y66574500D01*
X21633023Y66573296D01*
X25766874Y65085017D01*
X25770497Y65083583D01*
X29802761Y63338666D01*
X29806286Y63337007D01*
X33721024Y61342348D01*
X33724438Y61340472D01*
X37506199Y59103944D01*
X37509488Y59101857D01*
X41143358Y56632281D01*
X41146510Y56629991D01*
X44618128Y53937128D01*
X44621129Y53934645D01*
X47916843Y51029084D01*
X47919683Y51026417D01*
X51026417Y47919683D01*
X51029084Y47916843D01*
X53934645Y44621129D01*
X53937128Y44618128D01*
X56629991Y41146510D01*
X56632281Y41143358D01*
X59101857Y37509488D01*
X59103944Y37506199D01*
X61340472Y33724438D01*
X61342348Y33721024D01*
X63337007Y29806286D01*
X63338666Y29802761D01*
X65083583Y25770497D01*
X65085017Y25766874D01*
X66573296Y21633023D01*
X66574500Y21629317D01*
X67800274Y17410174D01*
X67801243Y17406401D01*
X68759684Y13118583D01*
X68760414Y13114756D01*
X69447722Y8775260D01*
X69448210Y8771395D01*
X69861686Y4397274D01*
X69861931Y4393386D01*
X69999938Y1948D01*
X69999938Y-1948D01*
X69861931Y-4393386D01*
X69861686Y-4397274D01*
X69448210Y-8771395D01*
X69447722Y-8775260D01*
X68760414Y-13114756D01*
X68759684Y-13118583D01*
X67801243Y-17406401D01*
X67800274Y-17410174D01*
X66574500Y-21629317D01*
X66573296Y-21633023D01*
X65085017Y-25766874D01*
X65083583Y-25770497D01*
X63338666Y-29802761D01*
X63337007Y-29806286D01*
X61342348Y-33721024D01*
X61340472Y-33724438D01*
X59103944Y-37506199D01*
X59101857Y-37509488D01*
X56632281Y-41143358D01*
X56629991Y-41146510D01*
X53937128Y-44618128D01*
X53934645Y-44621129D01*
X51029084Y-47916843D01*
X51026417Y-47919683D01*
X47919683Y-51026417D01*
X47916843Y-51029084D01*
X44621129Y-53934645D01*
X44618128Y-53937128D01*
X41146510Y-56629991D01*
X41143358Y-56632281D01*
X37509488Y-59101857D01*
X37506199Y-59103944D01*
X33724438Y-61340472D01*
X33721024Y-61342348D01*
X29806286Y-63337007D01*
X29802761Y-63338666D01*
X25770497Y-65083583D01*
X25766874Y-65085017D01*
X21633023Y-66573296D01*
X21629317Y-66574500D01*
X17410174Y-67800274D01*
X17406401Y-67801243D01*
X13118583Y-68759684D01*
X13114756Y-68760414D01*
X8775260Y-69447722D01*
X8771395Y-69448210D01*
X4397274Y-69861686D01*
X4393386Y-69861931D01*
X1948Y-69999938D01*
X-1948Y-69999938D01*
X-4393386Y-69861931D01*
X-4397274Y-69861686D01*
X-8771395Y-69448210D01*
X-8775260Y-69447722D01*
X-13114756Y-68760414D01*
X-13118583Y-68759684D01*
X-17406401Y-67801243D01*
X-17410174Y-67800274D01*
X-21629317Y-66574500D01*
X-21633023Y-66573296D01*
X-25766874Y-65085017D01*
X-25770497Y-65083583D01*
X-29802761Y-63338666D01*
X-29806286Y-63337007D01*
X-33721024Y-61342348D01*
X-33724438Y-61340472D01*
X-37506199Y-59103944D01*
X-37509488Y-59101857D01*
X-41143358Y-56632281D01*
X-41146510Y-56629991D01*
X-44618128Y-53937128D01*
X-44621129Y-53934645D01*
X-47916843Y-51029084D01*
X-47919683Y-51026417D01*
X-51026417Y-47919683D01*
X-51029084Y-47916843D01*
X-53934645Y-44621129D01*
X-53937128Y-44618128D01*
X-56629991Y-41146510D01*
X-56632281Y-41143358D01*
X-59101857Y-37509488D01*
X-59103944Y-37506199D01*
X-61340472Y-33724438D01*
X-61342348Y-33721024D01*
X-63337007Y-29806286D01*
X-63338666Y-29802761D01*
X-65083583Y-25770497D01*
X-65085017Y-25766874D01*
X-66573296Y-21633023D01*
X-66574500Y-21629317D01*
X-67800274Y-17410174D01*
X-67801243Y-17406401D01*
X-68759684Y-13118583D01*
X-68760414Y-13114756D01*
X-69447722Y-8775260D01*
X-69448210Y-8771395D01*
X-69861686Y-4397274D01*
X-69861931Y-4393386D01*
X-69999938Y-1948D01*
X-69999938Y0D01*
X-66034000Y0D01*
X-65903697Y-4146303D01*
X-65513301Y-8276258D01*
X-64864356Y-12373538D01*
X-63959421Y-16421984D01*
X-62802066Y-20405626D01*
X-61396857Y-24308742D01*
X-59749351Y-28115905D01*
X-57866029Y-31812132D01*
X-55754348Y-35382789D01*
X-53422627Y-38813811D01*
X-50880073Y-42091652D01*
X-50880074Y-42091651D01*
X-48136715Y-45203383D01*
X-45203383Y-48136715D01*
X-42091651Y-50880074D01*
X-42091652Y-50880073D01*
X-38813811Y-53422627D01*
X-35382789Y-55754348D01*
X-31812132Y-57866029D01*
X-28115905Y-59749351D01*
X-24308742Y-61396857D01*
X-20405626Y-62802066D01*
X-16421984Y-63959421D01*
X-12373538Y-64864356D01*
X-8276258Y-65513301D01*
X-4146303Y-65903697D01*
X0Y-66034000D01*
X4146303Y-65903697D01*
X8276258Y-65513301D01*
X12373538Y-64864356D01*
X16421984Y-63959421D01*
X20405626Y-62802066D01*
X24308742Y-61396857D01*
X28115905Y-59749351D01*
X31812132Y-57866029D01*
X35382789Y-55754348D01*
X38813811Y-53422627D01*
X42091652Y-50880073D01*
X42091651Y-50880074D01*
X45203383Y-48136715D01*
X48136715Y-45203383D01*
X50880074Y-42091651D01*
X50880073Y-42091652D01*
X53422627Y-38813811D01*
X55754348Y-35382789D01*
X57866029Y-31812132D01*
X59749351Y-28115905D01*
X61396857Y-24308742D01*
X62802066Y-20405626D01*
X63959421Y-16421984D01*
X64864356Y-12373538D01*
X65513301Y-8276258D01*
X65903697Y-4146303D01*
X66034000Y0D01*
X65903697Y4146303D01*
X65513301Y8276258D01*
X64864356Y12373538D01*
X63959421Y16421984D01*
X62802066Y20405626D01*
X61396857Y24308742D01*
X59749351Y28115905D01*
X57866029Y31812132D01*
X55754348Y35382789D01*
X53422627Y38813811D01*
X50880073Y42091652D01*
X50880074Y42091651D01*
X48136715Y45203383D01*
X45203383Y48136715D01*
X42091651Y50880074D01*
X42091652Y50880073D01*
X38813811Y53422627D01*
X35382789Y55754348D01*
X31812132Y57866029D01*
X28115905Y59749351D01*
X24308742Y61396857D01*
X20405626Y62802066D01*
X16421984Y63959421D01*
X12373538Y64864356D01*
X8276258Y65513301D01*
X4146303Y65903697D01*
X0Y66034000D01*
X-4146303Y65903697D01*
X-8276258Y65513301D01*
X-12373538Y64864356D01*
X-16421984Y63959421D01*
X-20405626Y62802066D01*
X-24308742Y61396857D01*
X-28115905Y59749351D01*
X-31812132Y57866029D01*
X-35382789Y55754348D01*
X-38813811Y53422627D01*
X-42091652Y50880073D01*
X-42091651Y50880074D01*
X-45203383Y48136715D01*
X-48136715Y45203383D01*
X-50880074Y42091651D01*
X-50880073Y42091652D01*
X-53422627Y38813811D01*
X-55754348Y35382789D01*
X-57866029Y31812132D01*
X-59749351Y28115905D01*
X-61396857Y24308742D01*
X-62802066Y20405626D01*
X-63959421Y16421984D01*
X-64864356Y12373538D01*
X-65513301Y8276258D01*
X-65903697Y4146303D01*
X-66034000Y0D01*
X-69999938Y0D01*
X-69999938Y1948D01*
X-69861931Y4393386D01*
X-69861686Y4397274D01*
X-69448210Y8771395D01*
X-69447722Y8775260D01*
X-68760414Y13114756D01*
X-68759684Y13118583D01*
X-67801243Y17406401D01*
X-67800274Y17410174D01*
X-66574500Y21629317D01*
X-66573296Y21633023D01*
X-65085017Y25766874D01*
X-65083583Y25770497D01*
X-63338666Y29802761D01*
X-63337007Y29806286D01*
X-61342348Y33721024D01*
X-61340472Y33724438D01*
X-59103944Y37506199D01*
X-59101857Y37509488D01*
X-56632281Y41143358D01*
X-56629991Y41146510D01*
X-53937128Y44618128D01*
X-53934645Y44621129D01*
X-51029084Y47916843D01*
X-51026417Y47919683D01*
X-47919683Y51026417D01*
X-47916843Y51029084D01*
X-44621129Y53934645D01*
X-44618128Y53937128D01*
X-41146510Y56629991D01*
X-41143358Y56632281D01*
X-37509488Y59101857D01*
X-37506199Y59103944D01*
X-33724438Y61340472D01*
X-33721024Y61342348D01*
X-29806286Y63337007D01*
X-29802761Y63338666D01*
X-25770497Y65083583D01*
X-25766874Y65085017D01*
X-21633023Y66573296D01*
X-21629317Y66574500D01*
X-17410174Y67800274D01*
X-17406401Y67801243D01*
X-13118583Y68759684D01*
X-13114756Y68760414D01*
X-8775260Y69447722D01*
X-8771395Y69448210D01*
X-4397274Y69861686D01*
X-4393386Y69861931D01*
X-1948Y69999938D01*
X1948Y69999938D01*
X4393386Y69861931D01*
G37*
M02*
