M48
; DRILL file {KiCad 7.99.0-3356-g00904e8e23} date 2023-10-26T14:27:01+0530
; FORMAT={-:-/ absolute / inch / decimal}
; #@! TF.CreationDate,2023-10-26T14:27:01+05:30
; #@! TF.GenerationSoftware,Kicad,Pcbnew,7.99.0-3356-g00904e8e23
; #@! TF.FileFunction,Plated,8,9,Buried
FMAT,2
INCH
; #@! TA.AperFunction,Plated,Buried,ViaDrill
T1C0.0059
%
G90
G05
T1
X-1.5748Y0.0
X-1.5748Y0.0
X-1.3638Y0.7874
X-1.3638Y0.7874
X-1.3638Y-0.7874
X-1.3638Y-0.7874
X-0.7874Y1.3638
X-0.7874Y1.3638
X-0.7874Y-1.3638
X-0.7874Y-1.3638
X0.0Y1.5748
X0.0Y1.5748
X0.0Y-1.5748
X0.0Y-1.5748
X0.7874Y1.3638
X0.7874Y1.3638
X0.7874Y-1.3638
X0.7874Y-1.3638
X1.3638Y0.7874
X1.3638Y0.7874
X1.3638Y-0.7874
X1.3638Y-0.7874
X1.5748Y0.0
X1.5748Y0.0
T0
M30
