M48
; DRILL file {KiCad 7.99.0-3356-g00904e8e23} date 2023-10-26T14:27:01+0530
; FORMAT={-:-/ absolute / inch / decimal}
; #@! TF.CreationDate,2023-10-26T14:27:01+05:30
; #@! TF.GenerationSoftware,Kicad,Pcbnew,7.99.0-3356-g00904e8e23
; #@! TF.FileFunction,Plated,5,6,Blind
FMAT,2
INCH
; #@! TA.AperFunction,Plated,Buried,ViaDrill
T1C0.0059
%
G90
G05
T1
X-2.1573Y0.0
X-2.1573Y0.0
X-1.8683Y1.0787
X-1.8683Y1.0787
X-1.8683Y-1.0787
X-1.8683Y-1.0787
X-1.0787Y1.8683
X-1.0787Y1.8683
X-1.0787Y-1.8683
X-1.0787Y-1.8683
X0.0Y2.1573
X0.0Y2.1573
X0.0Y-2.1573
X0.0Y-2.1573
X1.0787Y1.8683
X1.0787Y1.8683
X1.0787Y-1.8683
X1.0787Y-1.8683
X1.8683Y1.0787
X1.8683Y1.0787
X1.8683Y-1.0787
X1.8683Y-1.0787
X2.1573Y0.0
X2.1573Y0.0
T0
M30
