%TF.GenerationSoftware,KiCad,Pcbnew,7.99.0-3356-g00904e8e23*%
%TF.CreationDate,2023-10-26T14:27:03+05:30*%
%TF.ProjectId,kimotor-project,6b696d6f-746f-4722-9d70-726f6a656374,rev?*%
%TF.SameCoordinates,Original*%
%TF.FileFunction,Drillmap*%
%TF.FilePolarity,Positive*%
%FSLAX45Y45*%
G04 Gerber Fmt 4.5, Leading zero omitted, Abs format (unit mm)*
G04 Created by KiCad (PCBNEW 7.99.0-3356-g00904e8e23) date 2023-10-26 14:27:03*
%MOMM*%
%LPD*%
G01*
G04 APERTURE LIST*
%ADD10C,0.100000*%
%ADD11C,0.200000*%
G04 APERTURE END LIST*
D10*
X500000Y0D02*
G75*
G02*
X500000Y0I-500000J0D01*
G01*
X7000000Y0D02*
G75*
G02*
X7000000Y0I-7000000J0D01*
G01*
X7000000Y0D02*
G75*
G02*
X7000000Y0I-7000000J0D01*
G01*
X500000Y0D02*
G75*
G02*
X500000Y0I-500000J0D01*
G01*
D11*
D10*
X-5487100Y7500D02*
X-5472100Y-7500D01*
X-5472100Y7500D02*
X-5487100Y-7500D01*
X-5487100Y7500D02*
X-5472100Y-7500D01*
X-5472100Y7500D02*
X-5487100Y-7500D01*
X-5487100Y7500D02*
X-5472100Y-7500D01*
X-5472100Y7500D02*
X-5487100Y-7500D01*
X-4752973Y2747300D02*
X-4737973Y2732300D01*
X-4737973Y2747300D02*
X-4752973Y2732300D01*
X-4752973Y2747300D02*
X-4737973Y2732300D01*
X-4737973Y2747300D02*
X-4752973Y2732300D01*
X-4752973Y2747300D02*
X-4737973Y2732300D01*
X-4737973Y2747300D02*
X-4752973Y2732300D01*
X-4752973Y-2732300D02*
X-4737973Y-2747300D01*
X-4737973Y-2732300D02*
X-4752973Y-2747300D01*
X-4752973Y-2732300D02*
X-4737973Y-2747300D01*
X-4737973Y-2732300D02*
X-4752973Y-2747300D01*
X-4752973Y-2732300D02*
X-4737973Y-2747300D01*
X-4737973Y-2732300D02*
X-4752973Y-2747300D01*
X-2747300Y4752973D02*
X-2732300Y4737973D01*
X-2732300Y4752973D02*
X-2747300Y4737973D01*
X-2747300Y4752973D02*
X-2732300Y4737973D01*
X-2732300Y4752973D02*
X-2747300Y4737973D01*
X-2747300Y4752973D02*
X-2732300Y4737973D01*
X-2732300Y4752973D02*
X-2747300Y4737973D01*
X-2747300Y-4737973D02*
X-2732300Y-4752973D01*
X-2732300Y-4737973D02*
X-2747300Y-4752973D01*
X-2747300Y-4737973D02*
X-2732300Y-4752973D01*
X-2732300Y-4737973D02*
X-2747300Y-4752973D01*
X-2747300Y-4737973D02*
X-2732300Y-4752973D01*
X-2732300Y-4737973D02*
X-2747300Y-4752973D01*
X-7500Y5487100D02*
X7500Y5472100D01*
X7500Y5487100D02*
X-7500Y5472100D01*
X-7500Y5487100D02*
X7500Y5472100D01*
X7500Y5487100D02*
X-7500Y5472100D01*
X-7500Y5487100D02*
X7500Y5472100D01*
X7500Y5487100D02*
X-7500Y5472100D01*
X-7500Y-5472100D02*
X7500Y-5487100D01*
X7500Y-5472100D02*
X-7500Y-5487100D01*
X-7500Y-5472100D02*
X7500Y-5487100D01*
X7500Y-5472100D02*
X-7500Y-5487100D01*
X-7500Y-5472100D02*
X7500Y-5487100D01*
X7500Y-5472100D02*
X-7500Y-5487100D01*
X2732300Y4752973D02*
X2747300Y4737973D01*
X2747300Y4752973D02*
X2732300Y4737973D01*
X2732300Y4752973D02*
X2747300Y4737973D01*
X2747300Y4752973D02*
X2732300Y4737973D01*
X2732300Y4752973D02*
X2747300Y4737973D01*
X2747300Y4752973D02*
X2732300Y4737973D01*
X2732300Y-4737973D02*
X2747300Y-4752973D01*
X2747300Y-4737973D02*
X2732300Y-4752973D01*
X2732300Y-4737973D02*
X2747300Y-4752973D01*
X2747300Y-4737973D02*
X2732300Y-4752973D01*
X2732300Y-4737973D02*
X2747300Y-4752973D01*
X2747300Y-4737973D02*
X2732300Y-4752973D01*
X4737973Y2747300D02*
X4752973Y2732300D01*
X4752973Y2747300D02*
X4737973Y2732300D01*
X4737973Y2747300D02*
X4752973Y2732300D01*
X4752973Y2747300D02*
X4737973Y2732300D01*
X4737973Y2747300D02*
X4752973Y2732300D01*
X4752973Y2747300D02*
X4737973Y2732300D01*
X4737973Y-2732300D02*
X4752973Y-2747300D01*
X4752973Y-2732300D02*
X4737973Y-2747300D01*
X4737973Y-2732300D02*
X4752973Y-2747300D01*
X4752973Y-2732300D02*
X4737973Y-2747300D01*
X4737973Y-2732300D02*
X4752973Y-2747300D01*
X4752973Y-2732300D02*
X4737973Y-2747300D01*
X5472100Y7500D02*
X5487100Y-7500D01*
X5487100Y7500D02*
X5472100Y-7500D01*
X5472100Y7500D02*
X5487100Y-7500D01*
X5487100Y7500D02*
X5472100Y-7500D01*
X5472100Y7500D02*
X5487100Y-7500D01*
X5487100Y7500D02*
X5472100Y-7500D01*
D11*
X-6744223Y-7316484D02*
X-6744223Y-7116484D01*
X-6744223Y-7116484D02*
X-6696604Y-7116484D01*
X-6696604Y-7116484D02*
X-6668033Y-7126008D01*
X-6668033Y-7126008D02*
X-6648985Y-7145055D01*
X-6648985Y-7145055D02*
X-6639461Y-7164103D01*
X-6639461Y-7164103D02*
X-6629937Y-7202198D01*
X-6629937Y-7202198D02*
X-6629937Y-7230769D01*
X-6629937Y-7230769D02*
X-6639461Y-7268865D01*
X-6639461Y-7268865D02*
X-6648985Y-7287912D01*
X-6648985Y-7287912D02*
X-6668033Y-7306960D01*
X-6668033Y-7306960D02*
X-6696604Y-7316484D01*
X-6696604Y-7316484D02*
X-6744223Y-7316484D01*
X-6544223Y-7316484D02*
X-6544223Y-7183150D01*
X-6544223Y-7221246D02*
X-6534699Y-7202198D01*
X-6534699Y-7202198D02*
X-6525175Y-7192674D01*
X-6525175Y-7192674D02*
X-6506128Y-7183150D01*
X-6506128Y-7183150D02*
X-6487080Y-7183150D01*
X-6420414Y-7316484D02*
X-6420414Y-7183150D01*
X-6420414Y-7116484D02*
X-6429937Y-7126008D01*
X-6429937Y-7126008D02*
X-6420414Y-7135531D01*
X-6420414Y-7135531D02*
X-6410890Y-7126008D01*
X-6410890Y-7126008D02*
X-6420414Y-7116484D01*
X-6420414Y-7116484D02*
X-6420414Y-7135531D01*
X-6296604Y-7316484D02*
X-6315652Y-7306960D01*
X-6315652Y-7306960D02*
X-6325175Y-7287912D01*
X-6325175Y-7287912D02*
X-6325175Y-7116484D01*
X-6191842Y-7316484D02*
X-6210890Y-7306960D01*
X-6210890Y-7306960D02*
X-6220414Y-7287912D01*
X-6220414Y-7287912D02*
X-6220414Y-7116484D01*
X-5963271Y-7316484D02*
X-5963271Y-7116484D01*
X-5963271Y-7116484D02*
X-5896604Y-7259341D01*
X-5896604Y-7259341D02*
X-5829937Y-7116484D01*
X-5829937Y-7116484D02*
X-5829937Y-7316484D01*
X-5648985Y-7316484D02*
X-5648985Y-7211722D01*
X-5648985Y-7211722D02*
X-5658509Y-7192674D01*
X-5658509Y-7192674D02*
X-5677556Y-7183150D01*
X-5677556Y-7183150D02*
X-5715652Y-7183150D01*
X-5715652Y-7183150D02*
X-5734699Y-7192674D01*
X-5648985Y-7306960D02*
X-5668033Y-7316484D01*
X-5668033Y-7316484D02*
X-5715652Y-7316484D01*
X-5715652Y-7316484D02*
X-5734699Y-7306960D01*
X-5734699Y-7306960D02*
X-5744223Y-7287912D01*
X-5744223Y-7287912D02*
X-5744223Y-7268865D01*
X-5744223Y-7268865D02*
X-5734699Y-7249817D01*
X-5734699Y-7249817D02*
X-5715652Y-7240293D01*
X-5715652Y-7240293D02*
X-5668033Y-7240293D01*
X-5668033Y-7240293D02*
X-5648985Y-7230769D01*
X-5553747Y-7183150D02*
X-5553747Y-7383150D01*
X-5553747Y-7192674D02*
X-5534699Y-7183150D01*
X-5534699Y-7183150D02*
X-5496604Y-7183150D01*
X-5496604Y-7183150D02*
X-5477556Y-7192674D01*
X-5477556Y-7192674D02*
X-5468033Y-7202198D01*
X-5468033Y-7202198D02*
X-5458509Y-7221246D01*
X-5458509Y-7221246D02*
X-5458509Y-7278388D01*
X-5458509Y-7278388D02*
X-5468033Y-7297436D01*
X-5468033Y-7297436D02*
X-5477556Y-7306960D01*
X-5477556Y-7306960D02*
X-5496604Y-7316484D01*
X-5496604Y-7316484D02*
X-5534699Y-7316484D01*
X-5534699Y-7316484D02*
X-5553747Y-7306960D01*
X-5372795Y-7297436D02*
X-5363271Y-7306960D01*
X-5363271Y-7306960D02*
X-5372795Y-7316484D01*
X-5372795Y-7316484D02*
X-5382318Y-7306960D01*
X-5382318Y-7306960D02*
X-5372795Y-7297436D01*
X-5372795Y-7297436D02*
X-5372795Y-7316484D01*
X-5372795Y-7192674D02*
X-5363271Y-7202198D01*
X-5363271Y-7202198D02*
X-5372795Y-7211722D01*
X-5372795Y-7211722D02*
X-5382318Y-7202198D01*
X-5382318Y-7202198D02*
X-5372795Y-7192674D01*
X-5372795Y-7192674D02*
X-5372795Y-7211722D01*
D10*
X-7020000Y-7637500D02*
X-7005000Y-7652500D01*
X-7005000Y-7637500D02*
X-7020000Y-7652500D01*
D11*
X-6706128Y-7536484D02*
X-6687080Y-7536484D01*
X-6687080Y-7536484D02*
X-6668033Y-7546008D01*
X-6668033Y-7546008D02*
X-6658509Y-7555531D01*
X-6658509Y-7555531D02*
X-6648985Y-7574579D01*
X-6648985Y-7574579D02*
X-6639461Y-7612674D01*
X-6639461Y-7612674D02*
X-6639461Y-7660293D01*
X-6639461Y-7660293D02*
X-6648985Y-7698388D01*
X-6648985Y-7698388D02*
X-6658509Y-7717436D01*
X-6658509Y-7717436D02*
X-6668033Y-7726960D01*
X-6668033Y-7726960D02*
X-6687080Y-7736484D01*
X-6687080Y-7736484D02*
X-6706128Y-7736484D01*
X-6706128Y-7736484D02*
X-6725175Y-7726960D01*
X-6725175Y-7726960D02*
X-6734699Y-7717436D01*
X-6734699Y-7717436D02*
X-6744223Y-7698388D01*
X-6744223Y-7698388D02*
X-6753747Y-7660293D01*
X-6753747Y-7660293D02*
X-6753747Y-7612674D01*
X-6753747Y-7612674D02*
X-6744223Y-7574579D01*
X-6744223Y-7574579D02*
X-6734699Y-7555531D01*
X-6734699Y-7555531D02*
X-6725175Y-7546008D01*
X-6725175Y-7546008D02*
X-6706128Y-7536484D01*
X-6553747Y-7717436D02*
X-6544223Y-7726960D01*
X-6544223Y-7726960D02*
X-6553747Y-7736484D01*
X-6553747Y-7736484D02*
X-6563271Y-7726960D01*
X-6563271Y-7726960D02*
X-6553747Y-7717436D01*
X-6553747Y-7717436D02*
X-6553747Y-7736484D01*
X-6353747Y-7736484D02*
X-6468033Y-7736484D01*
X-6410890Y-7736484D02*
X-6410890Y-7536484D01*
X-6410890Y-7536484D02*
X-6429937Y-7565055D01*
X-6429937Y-7565055D02*
X-6448985Y-7584103D01*
X-6448985Y-7584103D02*
X-6468033Y-7593627D01*
X-6172794Y-7536484D02*
X-6268033Y-7536484D01*
X-6268033Y-7536484D02*
X-6277556Y-7631722D01*
X-6277556Y-7631722D02*
X-6268033Y-7622198D01*
X-6268033Y-7622198D02*
X-6248985Y-7612674D01*
X-6248985Y-7612674D02*
X-6201366Y-7612674D01*
X-6201366Y-7612674D02*
X-6182318Y-7622198D01*
X-6182318Y-7622198D02*
X-6172794Y-7631722D01*
X-6172794Y-7631722D02*
X-6163271Y-7650769D01*
X-6163271Y-7650769D02*
X-6163271Y-7698388D01*
X-6163271Y-7698388D02*
X-6172794Y-7717436D01*
X-6172794Y-7717436D02*
X-6182318Y-7726960D01*
X-6182318Y-7726960D02*
X-6201366Y-7736484D01*
X-6201366Y-7736484D02*
X-6248985Y-7736484D01*
X-6248985Y-7736484D02*
X-6268033Y-7726960D01*
X-6268033Y-7726960D02*
X-6277556Y-7717436D01*
X-6039461Y-7536484D02*
X-6020413Y-7536484D01*
X-6020413Y-7536484D02*
X-6001366Y-7546008D01*
X-6001366Y-7546008D02*
X-5991842Y-7555531D01*
X-5991842Y-7555531D02*
X-5982318Y-7574579D01*
X-5982318Y-7574579D02*
X-5972794Y-7612674D01*
X-5972794Y-7612674D02*
X-5972794Y-7660293D01*
X-5972794Y-7660293D02*
X-5982318Y-7698388D01*
X-5982318Y-7698388D02*
X-5991842Y-7717436D01*
X-5991842Y-7717436D02*
X-6001366Y-7726960D01*
X-6001366Y-7726960D02*
X-6020413Y-7736484D01*
X-6020413Y-7736484D02*
X-6039461Y-7736484D01*
X-6039461Y-7736484D02*
X-6058509Y-7726960D01*
X-6058509Y-7726960D02*
X-6068033Y-7717436D01*
X-6068033Y-7717436D02*
X-6077556Y-7698388D01*
X-6077556Y-7698388D02*
X-6087080Y-7660293D01*
X-6087080Y-7660293D02*
X-6087080Y-7612674D01*
X-6087080Y-7612674D02*
X-6077556Y-7574579D01*
X-6077556Y-7574579D02*
X-6068033Y-7555531D01*
X-6068033Y-7555531D02*
X-6058509Y-7546008D01*
X-6058509Y-7546008D02*
X-6039461Y-7536484D01*
X-5887080Y-7736484D02*
X-5887080Y-7603150D01*
X-5887080Y-7622198D02*
X-5877556Y-7612674D01*
X-5877556Y-7612674D02*
X-5858509Y-7603150D01*
X-5858509Y-7603150D02*
X-5829937Y-7603150D01*
X-5829937Y-7603150D02*
X-5810890Y-7612674D01*
X-5810890Y-7612674D02*
X-5801366Y-7631722D01*
X-5801366Y-7631722D02*
X-5801366Y-7736484D01*
X-5801366Y-7631722D02*
X-5791842Y-7612674D01*
X-5791842Y-7612674D02*
X-5772794Y-7603150D01*
X-5772794Y-7603150D02*
X-5744223Y-7603150D01*
X-5744223Y-7603150D02*
X-5725175Y-7612674D01*
X-5725175Y-7612674D02*
X-5715652Y-7631722D01*
X-5715652Y-7631722D02*
X-5715652Y-7736484D01*
X-5620413Y-7736484D02*
X-5620413Y-7603150D01*
X-5620413Y-7622198D02*
X-5610890Y-7612674D01*
X-5610890Y-7612674D02*
X-5591842Y-7603150D01*
X-5591842Y-7603150D02*
X-5563271Y-7603150D01*
X-5563271Y-7603150D02*
X-5544223Y-7612674D01*
X-5544223Y-7612674D02*
X-5534699Y-7631722D01*
X-5534699Y-7631722D02*
X-5534699Y-7736484D01*
X-5534699Y-7631722D02*
X-5525175Y-7612674D01*
X-5525175Y-7612674D02*
X-5506128Y-7603150D01*
X-5506128Y-7603150D02*
X-5477556Y-7603150D01*
X-5477556Y-7603150D02*
X-5458509Y-7612674D01*
X-5458509Y-7612674D02*
X-5448985Y-7631722D01*
X-5448985Y-7631722D02*
X-5448985Y-7736484D01*
X-5058509Y-7526960D02*
X-5229937Y-7784103D01*
X-4801366Y-7536484D02*
X-4782318Y-7536484D01*
X-4782318Y-7536484D02*
X-4763271Y-7546008D01*
X-4763271Y-7546008D02*
X-4753747Y-7555531D01*
X-4753747Y-7555531D02*
X-4744223Y-7574579D01*
X-4744223Y-7574579D02*
X-4734699Y-7612674D01*
X-4734699Y-7612674D02*
X-4734699Y-7660293D01*
X-4734699Y-7660293D02*
X-4744223Y-7698388D01*
X-4744223Y-7698388D02*
X-4753747Y-7717436D01*
X-4753747Y-7717436D02*
X-4763271Y-7726960D01*
X-4763271Y-7726960D02*
X-4782318Y-7736484D01*
X-4782318Y-7736484D02*
X-4801366Y-7736484D01*
X-4801366Y-7736484D02*
X-4820413Y-7726960D01*
X-4820413Y-7726960D02*
X-4829937Y-7717436D01*
X-4829937Y-7717436D02*
X-4839461Y-7698388D01*
X-4839461Y-7698388D02*
X-4848985Y-7660293D01*
X-4848985Y-7660293D02*
X-4848985Y-7612674D01*
X-4848985Y-7612674D02*
X-4839461Y-7574579D01*
X-4839461Y-7574579D02*
X-4829937Y-7555531D01*
X-4829937Y-7555531D02*
X-4820413Y-7546008D01*
X-4820413Y-7546008D02*
X-4801366Y-7536484D01*
X-4648985Y-7717436D02*
X-4639461Y-7726960D01*
X-4639461Y-7726960D02*
X-4648985Y-7736484D01*
X-4648985Y-7736484D02*
X-4658509Y-7726960D01*
X-4658509Y-7726960D02*
X-4648985Y-7717436D01*
X-4648985Y-7717436D02*
X-4648985Y-7736484D01*
X-4515652Y-7536484D02*
X-4496604Y-7536484D01*
X-4496604Y-7536484D02*
X-4477556Y-7546008D01*
X-4477556Y-7546008D02*
X-4468032Y-7555531D01*
X-4468032Y-7555531D02*
X-4458509Y-7574579D01*
X-4458509Y-7574579D02*
X-4448985Y-7612674D01*
X-4448985Y-7612674D02*
X-4448985Y-7660293D01*
X-4448985Y-7660293D02*
X-4458509Y-7698388D01*
X-4458509Y-7698388D02*
X-4468032Y-7717436D01*
X-4468032Y-7717436D02*
X-4477556Y-7726960D01*
X-4477556Y-7726960D02*
X-4496604Y-7736484D01*
X-4496604Y-7736484D02*
X-4515652Y-7736484D01*
X-4515652Y-7736484D02*
X-4534699Y-7726960D01*
X-4534699Y-7726960D02*
X-4544223Y-7717436D01*
X-4544223Y-7717436D02*
X-4553747Y-7698388D01*
X-4553747Y-7698388D02*
X-4563271Y-7660293D01*
X-4563271Y-7660293D02*
X-4563271Y-7612674D01*
X-4563271Y-7612674D02*
X-4553747Y-7574579D01*
X-4553747Y-7574579D02*
X-4544223Y-7555531D01*
X-4544223Y-7555531D02*
X-4534699Y-7546008D01*
X-4534699Y-7546008D02*
X-4515652Y-7536484D01*
X-4325175Y-7536484D02*
X-4306128Y-7536484D01*
X-4306128Y-7536484D02*
X-4287080Y-7546008D01*
X-4287080Y-7546008D02*
X-4277556Y-7555531D01*
X-4277556Y-7555531D02*
X-4268032Y-7574579D01*
X-4268032Y-7574579D02*
X-4258509Y-7612674D01*
X-4258509Y-7612674D02*
X-4258509Y-7660293D01*
X-4258509Y-7660293D02*
X-4268032Y-7698388D01*
X-4268032Y-7698388D02*
X-4277556Y-7717436D01*
X-4277556Y-7717436D02*
X-4287080Y-7726960D01*
X-4287080Y-7726960D02*
X-4306128Y-7736484D01*
X-4306128Y-7736484D02*
X-4325175Y-7736484D01*
X-4325175Y-7736484D02*
X-4344223Y-7726960D01*
X-4344223Y-7726960D02*
X-4353747Y-7717436D01*
X-4353747Y-7717436D02*
X-4363271Y-7698388D01*
X-4363271Y-7698388D02*
X-4372794Y-7660293D01*
X-4372794Y-7660293D02*
X-4372794Y-7612674D01*
X-4372794Y-7612674D02*
X-4363271Y-7574579D01*
X-4363271Y-7574579D02*
X-4353747Y-7555531D01*
X-4353747Y-7555531D02*
X-4344223Y-7546008D01*
X-4344223Y-7546008D02*
X-4325175Y-7536484D01*
X-4077556Y-7536484D02*
X-4172794Y-7536484D01*
X-4172794Y-7536484D02*
X-4182318Y-7631722D01*
X-4182318Y-7631722D02*
X-4172794Y-7622198D01*
X-4172794Y-7622198D02*
X-4153747Y-7612674D01*
X-4153747Y-7612674D02*
X-4106128Y-7612674D01*
X-4106128Y-7612674D02*
X-4087080Y-7622198D01*
X-4087080Y-7622198D02*
X-4077556Y-7631722D01*
X-4077556Y-7631722D02*
X-4068032Y-7650769D01*
X-4068032Y-7650769D02*
X-4068032Y-7698388D01*
X-4068032Y-7698388D02*
X-4077556Y-7717436D01*
X-4077556Y-7717436D02*
X-4087080Y-7726960D01*
X-4087080Y-7726960D02*
X-4106128Y-7736484D01*
X-4106128Y-7736484D02*
X-4153747Y-7736484D01*
X-4153747Y-7736484D02*
X-4172794Y-7726960D01*
X-4172794Y-7726960D02*
X-4182318Y-7717436D01*
X-3972794Y-7736484D02*
X-3934699Y-7736484D01*
X-3934699Y-7736484D02*
X-3915651Y-7726960D01*
X-3915651Y-7726960D02*
X-3906128Y-7717436D01*
X-3906128Y-7717436D02*
X-3887080Y-7688865D01*
X-3887080Y-7688865D02*
X-3877556Y-7650769D01*
X-3877556Y-7650769D02*
X-3877556Y-7574579D01*
X-3877556Y-7574579D02*
X-3887080Y-7555531D01*
X-3887080Y-7555531D02*
X-3896604Y-7546008D01*
X-3896604Y-7546008D02*
X-3915651Y-7536484D01*
X-3915651Y-7536484D02*
X-3953747Y-7536484D01*
X-3953747Y-7536484D02*
X-3972794Y-7546008D01*
X-3972794Y-7546008D02*
X-3982318Y-7555531D01*
X-3982318Y-7555531D02*
X-3991842Y-7574579D01*
X-3991842Y-7574579D02*
X-3991842Y-7622198D01*
X-3991842Y-7622198D02*
X-3982318Y-7641246D01*
X-3982318Y-7641246D02*
X-3972794Y-7650769D01*
X-3972794Y-7650769D02*
X-3953747Y-7660293D01*
X-3953747Y-7660293D02*
X-3915651Y-7660293D01*
X-3915651Y-7660293D02*
X-3896604Y-7650769D01*
X-3896604Y-7650769D02*
X-3887080Y-7641246D01*
X-3887080Y-7641246D02*
X-3877556Y-7622198D01*
X-3801366Y-7536484D02*
X-3801366Y-7574579D01*
X-3725175Y-7536484D02*
X-3725175Y-7574579D01*
X-3429937Y-7812674D02*
X-3439461Y-7803150D01*
X-3439461Y-7803150D02*
X-3458508Y-7774579D01*
X-3458508Y-7774579D02*
X-3468032Y-7755531D01*
X-3468032Y-7755531D02*
X-3477556Y-7726960D01*
X-3477556Y-7726960D02*
X-3487080Y-7679341D01*
X-3487080Y-7679341D02*
X-3487080Y-7641246D01*
X-3487080Y-7641246D02*
X-3477556Y-7593627D01*
X-3477556Y-7593627D02*
X-3468032Y-7565055D01*
X-3468032Y-7565055D02*
X-3458508Y-7546008D01*
X-3458508Y-7546008D02*
X-3439461Y-7517436D01*
X-3439461Y-7517436D02*
X-3429937Y-7507912D01*
X-3372794Y-7536484D02*
X-3248985Y-7536484D01*
X-3248985Y-7536484D02*
X-3315651Y-7612674D01*
X-3315651Y-7612674D02*
X-3287080Y-7612674D01*
X-3287080Y-7612674D02*
X-3268032Y-7622198D01*
X-3268032Y-7622198D02*
X-3258508Y-7631722D01*
X-3258508Y-7631722D02*
X-3248985Y-7650769D01*
X-3248985Y-7650769D02*
X-3248985Y-7698388D01*
X-3248985Y-7698388D02*
X-3258508Y-7717436D01*
X-3258508Y-7717436D02*
X-3268032Y-7726960D01*
X-3268032Y-7726960D02*
X-3287080Y-7736484D01*
X-3287080Y-7736484D02*
X-3344223Y-7736484D01*
X-3344223Y-7736484D02*
X-3363270Y-7726960D01*
X-3363270Y-7726960D02*
X-3372794Y-7717436D01*
X-3077556Y-7536484D02*
X-3115651Y-7536484D01*
X-3115651Y-7536484D02*
X-3134699Y-7546008D01*
X-3134699Y-7546008D02*
X-3144223Y-7555531D01*
X-3144223Y-7555531D02*
X-3163270Y-7584103D01*
X-3163270Y-7584103D02*
X-3172794Y-7622198D01*
X-3172794Y-7622198D02*
X-3172794Y-7698388D01*
X-3172794Y-7698388D02*
X-3163270Y-7717436D01*
X-3163270Y-7717436D02*
X-3153747Y-7726960D01*
X-3153747Y-7726960D02*
X-3134699Y-7736484D01*
X-3134699Y-7736484D02*
X-3096604Y-7736484D01*
X-3096604Y-7736484D02*
X-3077556Y-7726960D01*
X-3077556Y-7726960D02*
X-3068032Y-7717436D01*
X-3068032Y-7717436D02*
X-3058508Y-7698388D01*
X-3058508Y-7698388D02*
X-3058508Y-7650769D01*
X-3058508Y-7650769D02*
X-3068032Y-7631722D01*
X-3068032Y-7631722D02*
X-3077556Y-7622198D01*
X-3077556Y-7622198D02*
X-3096604Y-7612674D01*
X-3096604Y-7612674D02*
X-3134699Y-7612674D01*
X-3134699Y-7612674D02*
X-3153747Y-7622198D01*
X-3153747Y-7622198D02*
X-3163270Y-7631722D01*
X-3163270Y-7631722D02*
X-3172794Y-7650769D01*
X-2820413Y-7736484D02*
X-2820413Y-7536484D01*
X-2734699Y-7736484D02*
X-2734699Y-7631722D01*
X-2734699Y-7631722D02*
X-2744223Y-7612674D01*
X-2744223Y-7612674D02*
X-2763270Y-7603150D01*
X-2763270Y-7603150D02*
X-2791842Y-7603150D01*
X-2791842Y-7603150D02*
X-2810889Y-7612674D01*
X-2810889Y-7612674D02*
X-2820413Y-7622198D01*
X-2610889Y-7736484D02*
X-2629937Y-7726960D01*
X-2629937Y-7726960D02*
X-2639461Y-7717436D01*
X-2639461Y-7717436D02*
X-2648985Y-7698388D01*
X-2648985Y-7698388D02*
X-2648985Y-7641246D01*
X-2648985Y-7641246D02*
X-2639461Y-7622198D01*
X-2639461Y-7622198D02*
X-2629937Y-7612674D01*
X-2629937Y-7612674D02*
X-2610889Y-7603150D01*
X-2610889Y-7603150D02*
X-2582318Y-7603150D01*
X-2582318Y-7603150D02*
X-2563270Y-7612674D01*
X-2563270Y-7612674D02*
X-2553747Y-7622198D01*
X-2553747Y-7622198D02*
X-2544223Y-7641246D01*
X-2544223Y-7641246D02*
X-2544223Y-7698388D01*
X-2544223Y-7698388D02*
X-2553747Y-7717436D01*
X-2553747Y-7717436D02*
X-2563270Y-7726960D01*
X-2563270Y-7726960D02*
X-2582318Y-7736484D01*
X-2582318Y-7736484D02*
X-2610889Y-7736484D01*
X-2429937Y-7736484D02*
X-2448985Y-7726960D01*
X-2448985Y-7726960D02*
X-2458508Y-7707912D01*
X-2458508Y-7707912D02*
X-2458508Y-7536484D01*
X-2277556Y-7726960D02*
X-2296604Y-7736484D01*
X-2296604Y-7736484D02*
X-2334699Y-7736484D01*
X-2334699Y-7736484D02*
X-2353747Y-7726960D01*
X-2353747Y-7726960D02*
X-2363270Y-7707912D01*
X-2363270Y-7707912D02*
X-2363270Y-7631722D01*
X-2363270Y-7631722D02*
X-2353747Y-7612674D01*
X-2353747Y-7612674D02*
X-2334699Y-7603150D01*
X-2334699Y-7603150D02*
X-2296604Y-7603150D01*
X-2296604Y-7603150D02*
X-2277556Y-7612674D01*
X-2277556Y-7612674D02*
X-2268032Y-7631722D01*
X-2268032Y-7631722D02*
X-2268032Y-7650769D01*
X-2268032Y-7650769D02*
X-2363270Y-7669817D01*
X-2191842Y-7726960D02*
X-2172794Y-7736484D01*
X-2172794Y-7736484D02*
X-2134699Y-7736484D01*
X-2134699Y-7736484D02*
X-2115651Y-7726960D01*
X-2115651Y-7726960D02*
X-2106127Y-7707912D01*
X-2106127Y-7707912D02*
X-2106127Y-7698388D01*
X-2106127Y-7698388D02*
X-2115651Y-7679341D01*
X-2115651Y-7679341D02*
X-2134699Y-7669817D01*
X-2134699Y-7669817D02*
X-2163270Y-7669817D01*
X-2163270Y-7669817D02*
X-2182318Y-7660293D01*
X-2182318Y-7660293D02*
X-2191842Y-7641246D01*
X-2191842Y-7641246D02*
X-2191842Y-7631722D01*
X-2191842Y-7631722D02*
X-2182318Y-7612674D01*
X-2182318Y-7612674D02*
X-2163270Y-7603150D01*
X-2163270Y-7603150D02*
X-2134699Y-7603150D01*
X-2134699Y-7603150D02*
X-2115651Y-7612674D01*
X-2039461Y-7812674D02*
X-2029937Y-7803150D01*
X-2029937Y-7803150D02*
X-2010889Y-7774579D01*
X-2010889Y-7774579D02*
X-2001365Y-7755531D01*
X-2001365Y-7755531D02*
X-1991842Y-7726960D01*
X-1991842Y-7726960D02*
X-1982318Y-7679341D01*
X-1982318Y-7679341D02*
X-1982318Y-7641246D01*
X-1982318Y-7641246D02*
X-1991842Y-7593627D01*
X-1991842Y-7593627D02*
X-2001365Y-7565055D01*
X-2001365Y-7565055D02*
X-2010889Y-7546008D01*
X-2010889Y-7546008D02*
X-2029937Y-7517436D01*
X-2029937Y-7517436D02*
X-2039461Y-7507912D01*
M02*
