M48
; DRILL file {KiCad 7.99.0-3356-g00904e8e23} date 2023-10-26T14:27:01+0530
; FORMAT={-:-/ absolute / inch / decimal}
; #@! TF.CreationDate,2023-10-26T14:27:01+05:30
; #@! TF.GenerationSoftware,Kicad,Pcbnew,7.99.0-3356-g00904e8e23
; #@! TF.FileFunction,Plated,1,6,PTH
FMAT,2
INCH
; #@! TA.AperFunction,Plated,PTH,ViaDrill
T1C0.0059
; #@! TA.AperFunction,Plated,PTH,ComponentDrill
T2C0.0276
%
G90
G05
T1
X-1.4089Y0.0923
X-1.4089Y0.0923
X-1.3394Y0.6605
X-1.3394Y0.6605
X-1.2417Y-0.8297
X-1.2417Y-0.8297
X-1.1933Y0.5885
X-1.1933Y0.5885
X-1.1203Y-0.5525
X-1.1203Y-0.5525
X-1.1063Y0.7392
X-1.1063Y0.7392
X-1.0386Y-0.694
X-1.0386Y-0.694
X-0.8297Y1.2417
X-0.8297Y1.2417
X-0.7392Y-1.1063
X-0.7392Y-1.1063
X-0.694Y1.0386
X-0.694Y1.0386
X-0.6605Y-1.3394
X-0.6605Y-1.3394
X-0.5885Y-1.1933
X-0.5885Y-1.1933
X-0.5525Y1.1203
X-0.5525Y1.1203
X-0.0923Y-1.4089
X-0.0923Y-1.4089
X0.5525Y-1.1203
X0.5525Y-1.1203
X1.1063Y-0.7392
X1.1063Y-0.7392
X1.4089Y-0.0923
X1.4089Y-0.0923
T2
X1.7538Y-1.7538
X1.7538Y-1.7538
X2.3958Y0.642
X2.3958Y0.642
X2.3958Y-0.642
X2.3958Y-0.642
T0
M30
